#N canvas 0 22 594 836 10;
#X floatatom 191 46 5 0 0 0 - - -;
#X obj 194 3 hsl 128 20 0 255 0 0 empty empty empty -2 -8 0 10 -262144
-1 -1 0 1;
#X obj 191 26 list-round;
#X floatatom 211 109 5 0 0 0 - - -;
#X obj 214 66 hsl 128 20 0 255 0 0 empty empty empty -2 -8 0 10 -262144
-1 -1 0 1;
#X obj 211 89 list-round;
#X obj 194 317 spell;
#X obj 194 397 prepend set;
#X msg 194 440 57 54 32 48 32 56 56 32 49 48 56 10;
#X obj 194 417 t b a;
#X obj 194 377 iem_append 10;
#X floatatom 231 171 5 0 0 0 - - -;
#X obj 234 128 hsl 128 20 0 255 0 0 empty empty empty -2 -8 0 10 -262144
-1 -1 0 1;
#X obj 231 151 list-round;
#X floatatom 252 233 5 0 0 0 - - -;
#X obj 255 190 hsl 128 20 0 255 0 0 empty empty empty -2 -8 0 10 -262144
-1 -1 0 1;
#X obj 252 213 list-round;
#X obj 171 -70 tgl 50 0 empty empty empty 17 7 0 10 -262144 -1 -1 0
1;
#X obj 171 3 bng 15 250 50 0 empty empty empty 17 7 0 10 -262144 -1
-1;
#X obj 194 465 comport 9600;
#X msg 17 297 devices;
#X msg 17 370 close;
#X floatatom 17 324 5 0 0 0 - - -;
#X msg 17 343 open \$1;
#X obj 194 485 sel 13 10;
#X obj 194 532 iem_anything;
#X obj 194 552 iem_alisttosym;
#X obj 194 572 fromsymbol;
#X text 72 297 find Arduino board;
#X text 73 370 close serial port;
#X text 73 332 open serial port;
#X text 427 71 slider data to Arduino;
#X text 427 92 round slider floats;
#X text 427 317 convert to ASCII;
#X text 427 337 combine into list;
#X text 427 439 poll slider data;
#X text 427 465 serial port;
#X text 427 485 route & trigger;
#X text 427 522 group into 1 message;
#X text 427 552 convert ASCII to int;
#X text 428 572 convert symbol;
#X text 35 279 1;
#X text 224 -48 2;
#X obj 194 593 unpack 0 0 0 0;
#X floatatom 194 618 5 0 0 0 - - -;
#X floatatom 221 635 5 0 0 0 - - -;
#X floatatom 248 652 5 0 0 0 - - -;
#X floatatom 275 669 5 0 0 0 - - -;
#X obj 194 512 zl group 1000;
#X obj 194 337 thresh 0.047;
#X obj 171 257 pack 0 0 0 0 0;
#X obj 171 277 unpack 0 0 0 0 0;
#X obj 194 297 pack 0 0 0 0;
#X obj 194 357 speedlim 0.047;
#X text 224 -37 poll clock;
#X text 427 276 unpack data;
#X text 427 257 pack data;
#X text 427 296 repack data;
#X obj 171 -17 metro 50;
#X text 427 357 slow down data;
#X text 427 378 append newline;
#X text 427 397 set message for polling;
#X text 428 592 unpack slider data;
#X text 85 -110 arduivis - model #5 - multipleInputs;
#X text 58 -90 sketch: arduivis_PD_model5_multipleInputs.ino;
#X text 24 657 Christopher Konopka;
#X text 24 670 cskonopka.github.io/arduivis/;
#X text 24 683 christopherkonopka.com;
#X connect 0 0 50 1;
#X connect 1 0 2 0;
#X connect 2 0 0 0;
#X connect 3 0 50 2;
#X connect 4 0 5 0;
#X connect 5 0 3 0;
#X connect 6 0 49 0;
#X connect 7 0 9 0;
#X connect 8 0 19 0;
#X connect 9 0 8 0;
#X connect 9 1 8 0;
#X connect 10 0 7 0;
#X connect 11 0 50 3;
#X connect 12 0 13 0;
#X connect 13 0 11 0;
#X connect 14 0 50 4;
#X connect 15 0 16 0;
#X connect 16 0 14 0;
#X connect 17 0 58 0;
#X connect 18 0 8 0;
#X connect 18 0 50 0;
#X connect 19 0 24 0;
#X connect 20 0 19 0;
#X connect 21 0 19 0;
#X connect 22 0 23 0;
#X connect 23 0 19 0;
#X connect 24 0 48 0;
#X connect 24 2 48 0;
#X connect 25 0 26 0;
#X connect 26 0 27 0;
#X connect 27 0 43 0;
#X connect 43 0 44 0;
#X connect 43 1 45 0;
#X connect 43 2 46 0;
#X connect 43 3 47 0;
#X connect 48 0 25 0;
#X connect 49 0 53 0;
#X connect 50 0 51 0;
#X connect 51 1 52 0;
#X connect 51 2 52 1;
#X connect 51 3 52 2;
#X connect 51 4 52 3;
#X connect 52 0 6 0;
#X connect 53 0 10 0;
#X connect 58 0 18 0;
