#N canvas 89 22 1436 856 16;
#X obj 304 529 comport 9600;
#X msg 4 -108 devices;
#X msg 34 -28 close;
#X floatatom 15 -81 5 0 0 0 - - -;
#X msg 15 -55 open \$1;
#X text 102 -110 find Arduino board;
#X text 102 -30 close serial buffer;
#X text 102 -82 define board number;
#X text 102 -58 open defined board;
#X floatatom 342 4 5 0 255 0 - - -;
#X obj 342 30 spell;
#X obj 342 84 prepend set;
#X msg 342 142 53 48;
#X obj 342 223 prepend;
#X obj 342 250 prepend set;
#X obj 342 111 t b a;
#X obj 342 169 t b a;
#X msg 342 327 53 48 32;
#X obj 342 277 t b a;
#X obj 342 57 thresh 0.9;
#X obj 342 464 prepend set;
#X msg 342 493 53 48 32 49 55 51 32 55 48 32 49 57 57 10;
#X msg 342 196 32;
#X obj 204 249 bng 15 250 50 0 empty empty empty 17 7 0 10 -262144
-1 -1;
#X obj 527 403 tgl 15 0 empty empty empty 17 7 0 10 -262144 -1 -1 1
1;
#X obj 527 463 bng 15 250 50 0 empty empty empty 17 7 0 10 -262144
-1 -1;
#X obj 342 375 zl join;
#X obj 342 405 zl join;
#X obj 342 435 zl join;
#X msg 204 219 loadbang;
#X msg 402 277 loadbang;
#X obj 402 304 bng 15 250 50 0 empty empty empty 17 7 0 10 -262144
-1 -1;
#X obj 345 -48 hsl 128 20 0 255 0 0 empty empty empty -2 -8 0 10 -262144
-1 -1 2500 1;
#X obj 342 -23 list-round;
#X floatatom 1040 103 5 0 0 0 - - -;
#X floatatom 1167 253 5 0 255 0 - - -;
#X obj 1167 279 spell;
#X obj 1377 333 prepend set;
#X msg 1377 391 49 49 52;
#X obj 1377 472 prepend;
#X obj 1377 499 prepend set;
#X obj 1377 360 t b a;
#X obj 1377 418 t b a;
#X msg 1377 576 49 49 52 32;
#X obj 1377 526 t b a;
#X obj 1167 306 thresh 0.9;
#X msg 1377 445 32;
#X msg 1437 526 loadbang;
#X obj 1437 553 bng 15 250 50 0 empty empty empty 17 7 0 10 -262144
-1 -1;
#X obj 1170 201 hsl 128 20 0 255 0 0 empty empty empty -2 -8 0 10 -262144
-1 -1 0 1;
#X obj 1167 226 list-round;
#X obj 1060 360 prepend set;
#X msg 1055 470 49 48 52 10;
#X obj 921 429 t b a;
#X msg 1115 420 loadbang;
#X obj 1115 447 bng 15 250 50 0 empty empty empty 17 7 0 10 -262144
-1 -1;
#X obj 1060 333 iem_prepend;
#X obj 1060 281 bng 15 250 50 0 empty empty empty 17 7 0 10 -262144
-1 -1;
#X obj 479 423 bng 15 250 50 0 empty empty empty 17 7 0 10 -262144
-1 -1;
#X msg 1060 306 10;
#X obj 540 529 r output1;
#X obj 550 559 r output2;
#X obj 560 589 r output3;
#X obj 570 618 r output4;
#X obj 543 653 hsl 128 15 0 255 0 0 empty empty empty -2 -8 0 10 -262144
-1 -1 2490 1;
#X obj 553 673 hsl 128 15 0 255 0 0 empty empty empty -2 -8 0 10 -262144
-1 -1 8616 1;
#X obj 563 693 hsl 128 15 0 255 0 0 empty empty empty -2 -8 0 10 -262144
-1 -1 3486 1;
#X obj 573 713 hsl 128 15 0 255 0 0 empty empty empty -2 -8 0 10 -262144
-1 -1 9911 1;
#X obj 304 584 unpack 0 0 0 0;
#X obj 304 611 s output1;
#X obj 349 638 s output2;
#X obj 441 694 s output4;
#X obj 395 666 s output3;
#X obj 304 556 repack 4;
#X msg 169 413 mode join;
#X floatatom 496 4 5 0 255 0 - - -;
#X obj 496 30 spell;
#X obj 496 84 prepend set;
#X msg 496 142 49 55 51;
#X obj 496 223 prepend;
#X obj 496 250 prepend set;
#X obj 496 111 t b a;
#X obj 496 169 t b a;
#X msg 496 327 49 55 51 32;
#X obj 496 277 t b a;
#X obj 496 57 thresh 0.9;
#X msg 496 196 32;
#X msg 556 277 loadbang;
#X obj 556 304 bng 15 250 50 0 empty empty empty 17 7 0 10 -262144
-1 -1;
#X floatatom 650 4 5 0 255 0 - - -;
#X obj 650 30 spell;
#X obj 650 84 prepend set;
#X msg 650 142 55 48;
#X obj 650 223 prepend;
#X obj 650 250 prepend set;
#X obj 650 111 t b a;
#X obj 650 169 t b a;
#X msg 650 327 55 48 32;
#X obj 650 277 t b a;
#X obj 650 57 thresh 0.9;
#X msg 650 196 32;
#X msg 710 277 loadbang;
#X obj 710 304 bng 15 250 50 0 empty empty empty 17 7 0 10 -262144
-1 -1;
#X floatatom 804 4 5 0 255 0 - - -;
#X obj 804 30 spell;
#X obj 804 84 prepend set;
#X msg 804 142 49 57 57;
#X obj 804 223 prepend;
#X obj 804 250 prepend set;
#X obj 804 111 t b a;
#X obj 804 169 t b a;
#X msg 804 327 49 57 57 10;
#X obj 804 277 t b a;
#X msg 864 277 loadbang;
#X obj 864 304 bng 15 250 50 0 empty empty empty 17 7 0 10 -262144
-1 -1;
#X msg 804 196 10;
#X obj 807 -48 hsl 128 20 0 255 0 0 empty empty empty -2 -8 0 10 -262144
-1 -1 9900 1;
#X obj 804 -23 list-round;
#X obj 653 -48 hsl 128 20 0 255 0 0 empty empty empty -2 -8 0 10 -262144
-1 -1 3500 1;
#X obj 650 -23 list-round;
#X obj 499 -48 hsl 128 20 0 255 0 0 empty empty empty -2 -8 0 10 -262144
-1 -1 8600 1;
#X obj 496 -23 list-round;
#X obj 950 18 smooth;
#X obj 998 71 hsl 128 15 0 1 0 0 empty empty empty -2 -8 0 10 -262130
-1 -1 0 1;
#X floatatom 935 191 5 0 0 0 - - -;
#X floatatom 957 248 5 0 255 0 - - -;
#X obj 957 221 list-round;
#X obj 804 57 thresh 0.2;
#X obj 949 116 smooth 0.1;
#X obj 527 433 metro 47;
#X connect 0 0 73 0;
#X connect 1 0 0 0;
#X connect 2 0 0 0;
#X connect 3 0 4 0;
#X connect 4 0 0 0;
#X connect 9 0 10 0;
#X connect 10 0 19 0;
#X connect 11 0 15 0;
#X connect 12 0 16 0;
#X connect 13 0 14 0;
#X connect 14 0 18 0;
#X connect 15 0 12 0;
#X connect 15 1 12 0;
#X connect 16 0 22 0;
#X connect 16 1 13 1;
#X connect 17 0 26 0;
#X connect 18 0 17 0;
#X connect 18 1 17 0;
#X connect 19 0 11 0;
#X connect 20 0 21 0;
#X connect 21 0 0 0;
#X connect 22 0 13 0;
#X connect 23 0 26 0;
#X connect 23 0 27 0;
#X connect 23 0 28 0;
#X connect 24 0 129 0;
#X connect 25 0 21 0;
#X connect 26 0 27 0;
#X connect 27 0 28 0;
#X connect 28 0 20 0;
#X connect 29 0 23 0;
#X connect 30 0 31 0;
#X connect 31 0 17 0;
#X connect 32 0 33 0;
#X connect 33 0 9 0;
#X connect 35 0 36 0;
#X connect 36 0 45 0;
#X connect 37 0 41 0;
#X connect 38 0 42 0;
#X connect 39 0 40 0;
#X connect 40 0 44 0;
#X connect 41 0 38 0;
#X connect 41 1 38 0;
#X connect 42 0 46 0;
#X connect 42 1 39 1;
#X connect 44 0 43 0;
#X connect 44 1 43 0;
#X connect 45 0 56 1;
#X connect 46 0 39 0;
#X connect 47 0 48 0;
#X connect 48 0 43 0;
#X connect 49 0 50 0;
#X connect 49 0 57 0;
#X connect 50 0 35 0;
#X connect 51 0 52 0;
#X connect 51 0 53 0;
#X connect 52 0 28 1;
#X connect 53 0 52 0;
#X connect 53 0 28 0;
#X connect 53 1 52 0;
#X connect 54 0 55 0;
#X connect 55 0 52 0;
#X connect 56 0 51 0;
#X connect 57 0 59 0;
#X connect 58 0 28 0;
#X connect 59 0 56 0;
#X connect 60 0 64 0;
#X connect 61 0 65 0;
#X connect 62 0 66 0;
#X connect 63 0 67 0;
#X connect 68 0 69 0;
#X connect 68 1 70 0;
#X connect 68 2 72 0;
#X connect 68 3 71 0;
#X connect 73 0 68 0;
#X connect 74 0 26 0;
#X connect 74 0 27 0;
#X connect 74 0 28 0;
#X connect 75 0 76 0;
#X connect 76 0 85 0;
#X connect 77 0 81 0;
#X connect 78 0 82 0;
#X connect 79 0 80 0;
#X connect 80 0 84 0;
#X connect 81 0 78 0;
#X connect 81 1 78 0;
#X connect 82 0 86 0;
#X connect 82 1 79 1;
#X connect 83 0 26 1;
#X connect 84 0 83 0;
#X connect 84 0 26 0;
#X connect 84 1 83 0;
#X connect 85 0 77 0;
#X connect 86 0 79 0;
#X connect 87 0 88 0;
#X connect 88 0 83 0;
#X connect 89 0 90 0;
#X connect 90 0 99 0;
#X connect 91 0 95 0;
#X connect 92 0 96 0;
#X connect 93 0 94 0;
#X connect 94 0 98 0;
#X connect 95 0 92 0;
#X connect 95 1 92 0;
#X connect 96 0 100 0;
#X connect 96 1 93 1;
#X connect 97 0 27 1;
#X connect 98 0 97 0;
#X connect 98 0 27 0;
#X connect 98 1 97 0;
#X connect 99 0 91 0;
#X connect 100 0 93 0;
#X connect 101 0 102 0;
#X connect 102 0 97 0;
#X connect 103 0 104 0;
#X connect 104 0 127 0;
#X connect 105 0 109 0;
#X connect 106 0 110 0;
#X connect 107 0 108 0;
#X connect 108 0 112 0;
#X connect 109 0 106 0;
#X connect 109 1 106 0;
#X connect 110 0 115 0;
#X connect 110 1 107 1;
#X connect 111 0 28 1;
#X connect 112 0 111 0;
#X connect 112 0 28 0;
#X connect 112 1 111 0;
#X connect 113 0 114 0;
#X connect 114 0 111 0;
#X connect 115 0 107 0;
#X connect 116 0 117 0;
#X connect 116 0 128 0;
#X connect 117 0 103 0;
#X connect 118 0 119 0;
#X connect 119 0 89 0;
#X connect 120 0 121 0;
#X connect 121 0 75 0;
#X connect 123 0 128 1;
#X connect 123 0 34 0;
#X connect 124 0 126 0;
#X connect 126 0 125 0;
#X connect 127 0 105 0;
#X connect 128 0 124 0;
#X connect 129 0 25 0;
