#N canvas 245 22 1199 807 16;
#X floatatom 541 -38 5 0 255 0 - - -;
#X obj 541 -8 spell;
#X obj 541 54 prepend set;
#X msg 541 119 49 54 49;
#X obj 541 85 t b a;
#X obj 541 23 thresh 0.9;
#X obj 544 -94 hsl 128 20 0 255 0 0 empty empty empty -2 -8 0 10 -262144
-1 -1 8000 1;
#X obj 541 -69 list-round;
#X obj 347 -94 tgl 50 0 empty empty empty 17 7 0 10 -262144 -1 -1 1
1;
#X obj 347 160 bng 15 250 50 0 empty empty empty 17 7 0 10 -262144
-1 -1;
#X obj 347 119 metro 50;
#X obj 14 452 comport 9600;
#X text 352 -82 poll;
#X text 21 -133 arduivis - model #2 - input;
#X msg 14 -98 devices;
#X msg 44 -18 close;
#X floatatom 25 -71 5 0 0 0 - - -;
#X msg 25 -45 open \$1;
#X text 112 -100 find Arduino board;
#X text 112 -20 close serial buffer;
#X text 112 -72 define board number;
#X text 112 -48 open defined board;
#X floatatom 222 560 5 0 255 0 - - -;
#X obj 222 590 spell;
#X obj 222 652 prepend set;
#X msg 222 717 52 56;
#X obj 222 810 prepend;
#X obj 222 841 prepend set;
#X obj 222 683 t b a;
#X obj 222 748 t b a;
#X msg 222 907 52 56 32;
#X obj 222 621 thresh 0.9;
#X msg 222 779 32;
#X obj 222 872 t b a;
#X obj 225 504 hsl 128 20 0 255 0 0 empty empty empty -2 -8 0 10 -262144
-1 -1 0 1;
#X obj 222 529 list-round;
#X obj 541 225 zl join;
#X msg 437 119 mode join;
#X floatatom 440 606 5 0 0 0 - - -;
#X floatatom 681 -38 5 0 255 0 - - -;
#X obj 681 -8 spell;
#X obj 681 54 prepend set;
#X msg 681 119 49 55 55;
#X obj 681 85 t b a;
#X obj 681 23 thresh 0.9;
#X obj 684 -94 hsl 128 20 0 255 0 0 empty empty empty -2 -8 0 10 -262144
-1 -1 8800 1;
#X obj 681 -69 list-round;
#X obj 541 314 prepend;
#X obj 541 345 prepend set;
#X obj 541 252 t b a;
#X msg 541 411 49 54 49 49 55 55 49 51 49 49 54 55 32;
#X msg 541 283 32;
#X obj 541 376 t b a;
#X floatatom 720 574 5 0 255 0 - - -;
#X obj 720 604 spell;
#X obj 720 666 prepend set;
#X msg 720 731 49 50 54;
#X obj 720 697 t b a;
#X obj 720 635 thresh 0.9;
#X obj 723 518 hsl 128 20 0 255 0 0 empty empty empty -2 -8 0 10 -262144
-1 -1 0 1;
#X obj 720 543 list-round;
#X obj 720 844 zl join;
#X msg 486 727 mode join;
#X floatatom 860 574 5 0 255 0 - - -;
#X obj 860 604 spell;
#X obj 860 666 prepend set;
#X msg 860 731 56 54;
#X obj 860 697 t b a;
#X obj 860 635 thresh 0.9;
#X obj 863 518 hsl 128 20 0 255 0 0 empty empty empty -2 -8 0 10 -262144
-1 -1 0 1;
#X obj 860 543 list-round;
#X obj 860 767 bng 15 250 50 0 empty empty empty 17 7 0 10 -262144
-1 -1;
#X obj 720 933 prepend;
#X obj 720 964 prepend set;
#X obj 720 871 t b a;
#X msg 720 1030 49 50 54 56 54 32;
#X msg 720 902 32;
#X obj 720 995 t b a;
#X floatatom 821 -38 5 0 255 0 - - -;
#X obj 821 -8 spell;
#X obj 821 54 prepend set;
#X msg 821 119 49 51 49;
#X obj 821 85 t b a;
#X obj 821 23 thresh 0.9;
#X obj 824 -94 hsl 128 20 0 255 0 0 empty empty empty -2 -8 0 10 -262144
-1 -1 6500 1;
#X obj 821 -69 list-round;
#X floatatom 961 -38 5 0 255 0 - - -;
#X obj 961 -8 spell;
#X obj 961 54 prepend set;
#X msg 961 119 49 54 55;
#X obj 961 85 t b a;
#X obj 961 23 thresh 0.9;
#X obj 964 -94 hsl 128 20 0 255 0 0 empty empty empty -2 -8 0 10 -262144
-1 -1 8300 1;
#X obj 961 -69 list-round;
#X obj 821 159 zl join;
#X obj 681 193 zl join;
#X connect 0 0 1 0;
#X connect 1 0 5 0;
#X connect 2 0 4 0;
#X connect 3 0 36 0;
#X connect 4 0 3 0;
#X connect 4 1 3 0;
#X connect 5 0 2 0;
#X connect 6 0 7 0;
#X connect 7 0 0 0;
#X connect 8 0 10 0;
#X connect 9 0 36 0;
#X connect 9 0 95 0;
#X connect 9 0 94 0;
#X connect 10 0 9 0;
#X connect 14 0 11 0;
#X connect 15 0 11 0;
#X connect 16 0 17 0;
#X connect 17 0 11 0;
#X connect 22 0 23 0;
#X connect 23 0 31 0;
#X connect 24 0 28 0;
#X connect 25 0 29 0;
#X connect 26 0 27 0;
#X connect 27 0 33 0;
#X connect 28 0 25 0;
#X connect 28 1 25 0;
#X connect 29 0 32 0;
#X connect 29 1 26 1;
#X connect 31 0 24 0;
#X connect 32 0 26 0;
#X connect 33 0 30 0;
#X connect 33 1 30 0;
#X connect 34 0 35 0;
#X connect 35 0 22 0;
#X connect 36 0 49 0;
#X connect 37 0 36 0;
#X connect 37 0 95 0;
#X connect 37 0 94 0;
#X connect 39 0 40 0;
#X connect 40 0 44 0;
#X connect 41 0 43 0;
#X connect 42 0 95 0;
#X connect 43 0 42 0;
#X connect 43 1 42 0;
#X connect 44 0 41 0;
#X connect 45 0 46 0;
#X connect 46 0 39 0;
#X connect 47 0 48 0;
#X connect 48 0 52 0;
#X connect 49 0 51 0;
#X connect 49 1 47 1;
#X connect 51 0 47 0;
#X connect 52 0 50 0;
#X connect 52 1 50 0;
#X connect 53 0 54 0;
#X connect 54 0 58 0;
#X connect 55 0 57 0;
#X connect 56 0 61 0;
#X connect 57 0 56 0;
#X connect 57 1 56 0;
#X connect 58 0 55 0;
#X connect 59 0 60 0;
#X connect 60 0 53 0;
#X connect 61 0 74 0;
#X connect 62 0 61 0;
#X connect 63 0 64 0;
#X connect 64 0 68 0;
#X connect 65 0 67 0;
#X connect 66 0 61 1;
#X connect 66 0 71 0;
#X connect 67 0 66 0;
#X connect 67 1 66 0;
#X connect 68 0 65 0;
#X connect 69 0 70 0;
#X connect 70 0 63 0;
#X connect 71 0 61 0;
#X connect 72 0 73 0;
#X connect 73 0 77 0;
#X connect 74 0 76 0;
#X connect 74 1 72 1;
#X connect 76 0 72 0;
#X connect 77 0 75 0;
#X connect 77 1 75 0;
#X connect 78 0 79 0;
#X connect 79 0 83 0;
#X connect 80 0 82 0;
#X connect 81 0 94 0;
#X connect 82 0 81 0;
#X connect 82 1 81 0;
#X connect 83 0 80 0;
#X connect 84 0 85 0;
#X connect 85 0 78 0;
#X connect 86 0 87 0;
#X connect 87 0 91 0;
#X connect 88 0 90 0;
#X connect 89 0 94 1;
#X connect 90 0 89 0;
#X connect 90 1 89 0;
#X connect 91 0 88 0;
#X connect 92 0 93 0;
#X connect 93 0 86 0;
#X connect 94 0 95 1;
#X connect 95 0 36 1;
