#N canvas 199 119 394 359 10;
#X msg 14 74 devices;
#X floatatom 225 -117 5 0 255 0 - - -;
#X obj 225 -97 spell;
#X obj 225 -55 prepend set;
#X msg 225 -10 48;
#X obj 225 53 prepend;
#X obj 225 74 prepend set;
#X obj 225 -34 t b a;
#X obj 225 11 t b a;
#X msg 225 120 48 32;
#X obj 225 -76 thresh 0.9;
#X msg 225 32 32;
#X obj 169 -157 tgl 50 0 empty empty empty 17 7 0 10 -262144 -1 -1
0 1;
#X obj 169 95 bng 15 250 50 0 empty empty empty 17 7 0 10 -262144 -1
-1;
#X obj 225 95 t b a;
#X obj 169 74 metro 50;
#X obj 228 -157 hsl 128 15 0 255 0 0 empty empty empty -2 -8 0 10 -262144
-1 -1 0 1;
#X obj 225 -138 list-round;
#X msg 69 74 close;
#X floatatom 112 55 5 0 0 0 - - -;
#X msg 112 74 open \$1;
#X obj 14 150 comport 9600;
#X text 224 -175 data to Arduino;
#X text 267 -117 round float to int;
#X text 267 -97 convert to ASCII;
#X text 267 31 add ASCII stop byte;
#X text 180 -142 poll;
#X connect 0 0 21 0;
#X connect 1 0 2 0;
#X connect 2 0 10 0;
#X connect 3 0 7 0;
#X connect 4 0 8 0;
#X connect 5 0 6 0;
#X connect 6 0 14 0;
#X connect 7 0 4 0;
#X connect 7 1 4 0;
#X connect 8 0 11 0;
#X connect 8 1 5 1;
#X connect 9 0 21 0;
#X connect 10 0 3 0;
#X connect 11 0 5 0;
#X connect 12 0 15 0;
#X connect 13 0 9 0;
#X connect 14 0 9 0;
#X connect 14 1 9 0;
#X connect 15 0 13 0;
#X connect 16 0 17 0;
#X connect 17 0 1 0;
#X connect 18 0 21 0;
#X connect 19 0 20 0;
#X connect 20 0 21 0;
