#N canvas 630 22 608 759 24;
#X floatatom 185 -77 5 0 255 0 - - -;
#X obj 185 -47 spell;
#X obj 185 15 prepend set;
#X msg 185 80 52 56;
#X obj 185 173 prepend;
#X obj 185 204 prepend set;
#X obj 185 46 t b a;
#X obj 185 111 t b a;
#X msg 185 270 52 56 32;
#X obj 185 -16 thresh 0.9;
#X msg 185 142 32;
#X obj 185 235 t b a;
#X obj 188 -133 hsl 128 20 0 255 0 0 empty empty empty -2 -8 0 10 -262144
-1 -1 2400 1;
#X obj 185 -108 list-round;
#X text 322 -139 data to Arduino;
#X text 321 -80 round float to int;
#X text 321 140 add ASCII stop byte;
#X text 321 -49 convert to ASCII;
#X text 321 -19 combine fast numbers;
#X text 321 76 data from slider;
#X text 321 269 finished message;
#X connect 0 0 1 0;
#X connect 1 0 9 0;
#X connect 2 0 6 0;
#X connect 3 0 7 0;
#X connect 4 0 5 0;
#X connect 5 0 11 0;
#X connect 6 0 3 0;
#X connect 6 1 3 0;
#X connect 7 0 10 0;
#X connect 7 1 4 1;
#X connect 9 0 2 0;
#X connect 10 0 4 0;
#X connect 11 0 8 0;
#X connect 11 1 8 0;
#X connect 12 0 13 0;
#X connect 13 0 0 0;
