#N canvas 0 22 1920 1036 10;
#X floatatom 589 267 5 0 255 0 - - -;
#X obj 589 297 spell;
#X obj 589 360 prepend set;
#X msg 589 426 49 48 52;
#X obj 589 521 prepend;
#X obj 589 553 prepend set;
#X obj 589 391 t b a;
#X obj 589 457 t b a;
#X msg 588 622 49 48 52 10;
#X obj 589 584 t b a;
#X obj 133 362 bng 15 250 50 0 empty empty empty 17 7 0 10 -262144
-1 -1;
#X text 649 267 input#1;
#X obj 589 230 inlet;
#X obj 589 329 thresh 0.5;
#X msg 81 491 devices;
#X msg 136 491 open 7;
#X msg 181 491 close;
#X obj -77 397 prepend set;
#X msg -97 421 49 48 52 10;
#X obj -97 315 tgl 15 0 empty empty empty 17 7 0 10 -262144 -1 -1 1
1;
#X obj -97 360 bng 15 250 50 0 empty empty empty 17 7 0 10 -262144
-1 -1;
#X obj -97 337 metro 80;
#X obj -97 523 comport 1 9600;
#X obj -97 132 loadbang;
#X obj -97 291 int 1;
#X obj -41 262 bng 15 250 50 0 empty empty empty 17 7 0 10 -262144
-1 -1;
#X floatatom -84 909 5 0 0 0 - - -;
#X obj -102 937 change;
#X obj -120 970 bng 15 250 50 0 empty empty empty 17 7 0 10 -262144
-1 -1;
#X obj -102 996 int;
#X floatatom -84 625 5 0 0 0 - - -;
#X obj -84 860 scale_abs;
#X msg -69 746 0;
#X obj -69 722 bng 15 250 50 0 empty empty empty 17 7 0 10 -262144
-1 -1;
#X msg -54 769 254;
#X obj -84 884 list-round;
#X msg -39 792 0;
#X msg -24 815 8;
#X obj -24 679 receive setListLength;
#X obj -24 702 prepend set;
#X obj -69 658 loadbang;
#X obj -102 1024 send output1;
#X obj -84 589 unpack f;
#X msg 588 490 10;
#X obj -240 461 repack 2;
#X obj 44 550 prepend set;
#X msg 24 574 104;
#X obj 2 262 bng 15 250 50 0 empty empty empty 17 7 0 10 -262144 -1
-1;
#X obj -24 195 delay 1200;
#X obj 3 158 delay 2200;
#X connect 0 0 1 0;
#X connect 1 0 13 0;
#X connect 2 0 6 0;
#X connect 3 0 7 0;
#X connect 4 0 5 0;
#X connect 5 0 9 0;
#X connect 6 0 3 0;
#X connect 6 1 3 0;
#X connect 7 0 43 0;
#X connect 7 1 4 1;
#X connect 8 0 17 0;
#X connect 9 0 8 0;
#X connect 9 0 10 0;
#X connect 9 1 8 0;
#X connect 12 0 0 0;
#X connect 13 0 2 0;
#X connect 14 0 22 0;
#X connect 15 0 22 0;
#X connect 16 0 22 0;
#X connect 17 0 18 0;
#X connect 18 0 22 0;
#X connect 19 0 21 0;
#X connect 20 0 18 0;
#X connect 21 0 20 0;
#X connect 22 0 44 1;
#X connect 22 0 45 0;
#X connect 22 0 0 0;
#X connect 23 0 48 0;
#X connect 23 0 49 0;
#X connect 24 0 19 0;
#X connect 25 0 15 0;
#X connect 26 0 27 0;
#X connect 26 0 29 1;
#X connect 27 0 28 0;
#X connect 27 0 29 0;
#X connect 28 0 29 0;
#X connect 29 0 41 0;
#X connect 30 0 31 0;
#X connect 31 0 35 0;
#X connect 32 0 31 1;
#X connect 33 0 32 0;
#X connect 33 0 34 0;
#X connect 33 0 37 0;
#X connect 33 0 36 0;
#X connect 34 0 31 2;
#X connect 35 0 26 0;
#X connect 36 0 31 3;
#X connect 37 0 31 4;
#X connect 38 0 39 0;
#X connect 39 0 37 0;
#X connect 39 0 33 0;
#X connect 40 0 33 0;
#X connect 42 0 30 0;
#X connect 43 0 4 0;
#X connect 44 0 42 0;
#X connect 45 0 46 0;
#X connect 46 0 0 0;
#X connect 47 0 24 0;
#X connect 48 0 25 0;
#X connect 49 0 47 0;
