#N canvas 7 22 617 765 10;
#X obj -37 276 openpanel;
#X obj -37 252 bng 15 250 50 0 empty empty empty 0 -6 0 8 -262144 -1
-1;
#X obj -37 328 soundfiler;
#X msg -37 302 read -resize \$1 array1;
#X obj -37 355 expr 44100 / $f1;
#X floatatom 135 398 5 0 0 0 - - -;
#X obj 135 437 phasor~;
#X obj 135 467 *~;
#X obj 255 668 hsl 200 15 0 1 0 0 empty empty empty -2 -6 0 8 -262144
-1 -1 0 1;
#X text 253 691 0;
#X text 453 690 1;
#X obj 83 487 line~;
#X msg 83 467 \$1 20;
#X floatatom 83 448 5 0 0 0 - - -;
#X obj 135 514 *~;
#X obj 136 546 hip~ 5;
#X obj 136 576 dac~;
#X obj 135 417 *;
#X obj 138 360 hsl 128 15 -2 2 0 0 empty empty empty -2 -6 0 8 -262144
-1 -1 0 1;
#X text 117 358 -2;
#X text 272 359 2;
#X text -12 249 load sound file;
#X text 177 335 playback speed;
#X text 268 691 slider shows playing position;
#X text 40 446 volume;
#X text 32 544 DC offset filter;
#X obj 135 378 t b f;
#X obj 135 314 autoscale -2 2;
#X floatatom 135 334 5 0 0 0 - - -;
#X msg 135 70 devices;
#X msg 165 143 close;
#X floatatom 135 277 5 0 0 0 - - -;
#X obj 135 170 comport 9600;
#X floatatom 146 97 5 0 0 0 - - -;
#X msg 146 116 open \$1;
#X text 213 68 find Arduino board;
#X obj 138 296 hsl 128 15 0 1023 0 0 empty empty empty -2 -8 0 10 -262144
-1 -1 0 1;
#X text 213 104 open serial port;
#X text 213 141 close serial port;
#X obj 135 190 sel 13 10;
#X obj 135 237 iem_alisttosym;
#X obj 135 257 fromsymbol;
#X obj 135 217 zl group 1000;
#X text 237 170 serial port;
#X text 237 190 route & trigger;
#X text 237 217 group into 1 message;
#X text 237 237 convert ASCII to int;
#X text 238 257 convert symbol;
#X text 238 277 unpack slider data;
#X text -50 -27 Christopher Konopka;
#X text -50 -14 cskonopka.github.io/arduivis/;
#X text -50 -1 christopherkonopka.com;
#X text 168 -11 arduivis - project - potentiometer;
#X text 138 10 sketch: arduivis_PD_project_potentiometer.ino;
#N canvas 0 22 450 300 (subpatch) 0;
#X array array1 132300 float 2;
#X coords 0 1 132300 -1 200 140 1;
#X restore 254 520 graph;
#X obj 252 487 unsig~ 50;
#X text 133 629 www.pd-tutorial.com;
#X text 136 607 Johannes Kreidler;
#X obj 135 487 tabread4~ array1;
#X connect 0 0 3 0;
#X connect 1 0 0 0;
#X connect 2 0 4 0;
#X connect 2 0 7 1;
#X connect 3 0 2 0;
#X connect 4 0 5 0;
#X connect 5 0 17 0;
#X connect 6 0 7 0;
#X connect 6 0 55 0;
#X connect 7 0 58 0;
#X connect 11 0 14 1;
#X connect 12 0 11 0;
#X connect 13 0 12 0;
#X connect 14 0 15 0;
#X connect 15 0 16 0;
#X connect 15 0 16 1;
#X connect 17 0 6 0;
#X connect 18 0 26 0;
#X connect 26 0 5 0;
#X connect 26 1 17 1;
#X connect 27 0 28 0;
#X connect 28 0 18 0;
#X connect 29 0 32 0;
#X connect 30 0 32 0;
#X connect 31 0 36 0;
#X connect 32 0 39 0;
#X connect 33 0 34 0;
#X connect 34 0 32 0;
#X connect 36 0 27 0;
#X connect 39 0 42 0;
#X connect 39 2 42 0;
#X connect 40 0 41 0;
#X connect 41 0 31 0;
#X connect 42 0 40 0;
#X connect 55 0 8 0;
#X connect 58 0 14 0;
