#N canvas 424 131 280 416 10;
#X msg -125 83 devices;
#X msg -95 156 close;
#X floatatom -125 310 5 0 0 0 - - -;
#X obj -125 183 comport 9600;
#X floatatom -114 110 5 0 0 0 - - -;
#X msg -114 129 open \$1;
#X text -47 81 find Arduino board;
#X text -91 22 arduivis - model #1 - input;
#X obj -122 329 hsl 128 15 0 255 0 0 empty empty empty -2 -8 0 10 -262144
-1 -1 0 1;
#X text -130 42 sketch: arduivis_PD_model1_output.ino;
#X text -47 117 open serial port;
#X text -47 154 close serial port;
#X obj -125 203 sel 13 10;
#X obj -125 250 iem_anything;
#X obj -125 270 iem_alisttosym;
#X obj -125 290 fromsymbol;
#X obj -125 230 zl group 1000;
#X text -23 183 serial port;
#X text -23 203 route & trigger;
#X text -23 240 group into 1 message;
#X text -23 270 convert ASCII to int;
#X text -22 290 convert symbol;
#X text -22 310 unpack slider data;
#X text -126 363 Christopher Konopka;
#X text -126 376 cskonopka.github.io/arduivis/;
#X text -126 389 christopherkonopka.com;
#X connect 0 0 3 0;
#X connect 1 0 3 0;
#X connect 2 0 8 0;
#X connect 3 0 12 0;
#X connect 4 0 5 0;
#X connect 5 0 3 0;
#X connect 12 0 16 0;
#X connect 12 2 16 0;
#X connect 13 0 14 0;
#X connect 14 0 15 0;
#X connect 15 0 2 0;
#X connect 16 0 13 0;
