#N canvas 0 22 477 465 10;
#X obj 301 67 tgl 50 0 empty empty empty 17 7 0 10 -262144 -1 -1 0
1;
#X obj 301 140 bng 15 250 50 0 empty empty empty 17 7 0 10 -262144
-1 -1;
#X obj 301 120 metro 50;
#X obj 158 295 comport 9600;
#X msg 286 209 devices;
#X msg 286 282 close;
#X floatatom 286 236 5 0 0 0 - - -;
#X msg 286 255 open \$1;
#X obj 158 315 sel 13 10;
#X obj 158 342 zl group 1000;
#X obj 158 362 iem_anything;
#X obj 158 382 iem_alisttosym;
#X obj 158 402 fromsymbol;
#X floatatom 158 110 5 0 0 0 - - -;
#X obj 158 149 spell;
#X obj 158 209 prepend set;
#X msg 158 252 49 52 55 10;
#X obj 158 229 t b a;
#X obj 161 67 hsl 128 20 0 255 0 0 empty empty empty -2 -8 0 10 -262144
-1 -1 0 1;
#X obj 158 90 list-round;
#X obj 158 129 speedlim 0.47;
#X obj 158 169 thresh 0.47;
#X obj 158 189 iem_append 10;
#X obj 301 158 s clock;
#X obj 238 209 r clock;
#X obj 238 229 bng 15 250 50 0 empty empty empty 17 7 0 10 -262144
-1 -1;
#X text 117 13 arduivis - model #2 - input;
#X text 341 209 find Arduino board;
#X text 90 33 sketch: arduivis_PD_model2_input.ino;
#X text 342 282 close serial port;
#X text 342 244 open serial port;
#X text 21 68 slider data to Arduino;
#X text 21 89 round slider floats;
#X text 21 128 slow down data;
#X text 21 148 convert to ASCII;
#X text 21 168 combine into list;
#X text 21 188 add newline int;
#X text 21 208 set message;
#X text 21 248 poll slider data;
#X text 21 291 serial port;
#X text 21 312 route & trigger;
#X text 21 352 group into 1 message;
#X text 21 382 convert ASCII to int;
#X text 22 400 convert symbol;
#X floatatom 158 422 5 0 0 0 - - -;
#X text 22 420 data from slider;
#X text 354 100 poll clock;
#X text 304 191 1;
#X text 354 90 2;
#X text 163 68 3;
#X text 273 397 Christopher Konopka;
#X text 273 410 cskonopka.github.io/arduivis/;
#X text 273 423 christopherkonopka.com;
#X connect 0 0 2 0;
#X connect 1 0 23 0;
#X connect 2 0 1 0;
#X connect 3 0 8 0;
#X connect 4 0 3 0;
#X connect 5 0 3 0;
#X connect 6 0 7 0;
#X connect 7 0 3 0;
#X connect 8 0 9 0;
#X connect 8 2 9 0;
#X connect 9 0 10 0;
#X connect 10 0 11 0;
#X connect 11 0 12 0;
#X connect 12 0 44 0;
#X connect 13 0 20 0;
#X connect 14 0 21 0;
#X connect 15 0 17 0;
#X connect 16 0 3 0;
#X connect 17 0 16 0;
#X connect 17 1 16 0;
#X connect 18 0 19 0;
#X connect 19 0 13 0;
#X connect 20 0 14 0;
#X connect 21 0 22 0;
#X connect 22 0 15 0;
#X connect 24 0 25 0;
#X connect 25 0 16 0;
