#N canvas 12 22 1403 856 16;
#X obj 11 755 comport 9600;
#X msg 11 104 devices;
#X msg 41 184 close;
#X floatatom 22 131 5 0 0 0 - - -;
#X msg 22 157 open \$1;
#X msg 179 709 52 55 32 49 51 32 49 55 55 32 49 48 51 32 49 51 32 49
55 55 32 49 53 52 49 54 52 32;
#X obj 90 381 tgl 47 0 empty empty empty 17 7 0 10 -262144 -1 -1 0
1;
#X obj 90 467 bng 15 250 50 0 empty empty empty 17 7 0 10 -262144 -1
-1;
#X obj 11 782 repack 4;
#X obj 11 810 unpack 0 0 0 0;
#X obj 11 837 s output1;
#X obj 56 864 s output2;
#X obj 148 920 s output4;
#X obj 102 892 s output3;
#X obj 846 612 r output1;
#X obj 856 642 r output2;
#X obj 866 672 r output3;
#X obj 876 701 r output4;
#X obj 849 736 hsl 128 15 0 255 0 0 empty empty empty -2 -8 0 10 -262144
-1 -1 0 1;
#X obj 859 756 hsl 128 15 0 255 0 0 empty empty empty -2 -8 0 10 -262144
-1 -1 0 1;
#X obj 869 776 hsl 128 15 0 255 0 0 empty empty empty -2 -8 0 10 -262144
-1 -1 0 1;
#X obj 879 796 hsl 128 15 0 255 0 0 empty empty empty -2 -8 0 10 -262144
-1 -1 0 1;
#X obj 179 680 prepend set;
#X obj 90 437 metro 47;
#X text 621 13 arduivis - model #6 - multipleFeedbacks;
#X text 587 37 sketch: arduivis_PD_model5_multiplefeedbacks.ino;
#X text 97 392 poll;
#X floatatom 946 268 5 0 255 0 - - -;
#X obj 946 294 spell;
#X obj 946 321 thresh 0.9;
#X obj 949 216 hsl 128 20 0 255 0 0 empty empty empty -2 -8 0 10 -262144
-1 -1 5478 1;
#X obj 946 241 list-round;
#X obj 839 375 prepend set;
#X msg 839 437 49 48 51 32;
#X obj 839 407 t b a;
#X msg 959 348 loadbang;
#X obj 959 375 bng 15 250 50 0 empty empty empty 17 7 0 10 -262144
-1 -1;
#X obj 839 348 iem_prepend;
#X obj 839 296 bng 15 250 50 0 empty empty empty 17 7 0 10 -262144
-1 -1;
#X obj 179 469 zl join;
#X obj 179 499 zl join;
#X obj 179 529 zl join;
#X floatatom 726 268 5 0 255 0 - - -;
#X obj 726 294 spell;
#X obj 726 321 thresh 0.9;
#X obj 729 216 hsl 128 20 0 255 0 0 empty empty empty -2 -8 0 10 -262144
-1 -1 9463 1;
#X obj 726 241 list-round;
#X obj 619 375 prepend set;
#X msg 619 437 49 55 55 32;
#X obj 619 407 t b a;
#X msg 739 348 loadbang;
#X obj 739 375 bng 15 250 50 0 empty empty empty 17 7 0 10 -262144
-1 -1;
#X obj 619 348 iem_prepend;
#X obj 619 296 bng 15 250 50 0 empty empty empty 17 7 0 10 -262144
-1 -1;
#X floatatom 506 268 5 0 255 0 - - -;
#X obj 506 294 spell;
#X obj 506 321 thresh 0.9;
#X obj 509 216 hsl 128 20 0 255 0 0 empty empty empty -2 -8 0 10 -262144
-1 -1 647 0;
#X obj 506 241 list-round;
#X obj 399 375 prepend set;
#X msg 399 437 49 51 32;
#X obj 399 407 t b a;
#X msg 519 348 loadbang;
#X obj 519 375 bng 15 250 50 0 empty empty empty 17 7 0 10 -262144
-1 -1;
#X obj 399 348 iem_prepend;
#X obj 399 296 bng 15 250 50 0 empty empty empty 17 7 0 10 -262144
-1 -1;
#X floatatom 286 268 5 0 255 0 - - -;
#X obj 286 294 spell;
#X obj 286 321 thresh 0.9;
#X obj 289 216 hsl 128 20 0 255 0 0 empty empty empty -2 -8 0 10 -262144
-1 -1 2341 1;
#X obj 286 241 list-round;
#X obj 179 375 prepend set;
#X msg 179 437 52 55 32;
#X obj 179 407 t b a;
#X msg 299 348 loadbang;
#X obj 299 375 bng 15 250 50 0 empty empty empty 17 7 0 10 -262144
-1 -1;
#X obj 179 348 iem_prepend;
#X msg 179 321 32;
#X msg 399 321 32;
#X msg 619 321 32;
#X obj 286 161 line;
#X floatatom 286 189 5 0 0 0 - - -;
#X msg 286 133 47 300;
#X obj 506 159 line;
#X floatatom 506 187 5 0 0 0 - - -;
#X obj 726 159 line;
#X floatatom 726 187 5 0 0 0 - - -;
#X obj 946 159 line;
#X floatatom 946 187 5 0 0 0 - - -;
#X msg 506 131 13 300;
#X msg 726 131 190 300;
#X msg 946 131 110 300;
#X text 345 186 slider #1;
#X text 565 186 slider #2;
#X text 785 186 slider #3;
#X text 1005 186 slider #4;
#X floatatom 1606 268 5 0 255 0 - - -;
#X obj 1606 294 spell;
#X obj 1606 321 thresh 0.9;
#X obj 1609 216 hsl 128 20 0 255 0 0 empty empty empty -2 -8 0 10 -262144
-1 -1 8278 1;
#X obj 1606 241 list-round;
#X obj 1499 375 prepend set;
#X msg 1499 437 49 53 52 49 54 52 32;
#X obj 1499 407 t b a;
#X msg 1619 348 loadbang;
#X obj 1619 375 bng 15 250 50 0 empty empty empty 17 7 0 10 -262144
-1 -1;
#X obj 1499 348 iem_prepend;
#X obj 1499 296 bng 15 250 50 0 empty empty empty 17 7 0 10 -262144
-1 -1;
#X floatatom 1386 268 5 0 255 0 - - -;
#X obj 1386 294 spell;
#X obj 1386 321 thresh 0.9;
#X obj 1389 216 hsl 128 20 0 255 0 0 empty empty empty -2 -8 0 10 -262144
-1 -1 9463 1;
#X obj 1386 241 list-round;
#X obj 1279 375 prepend set;
#X msg 1279 437 49 55 55 32;
#X obj 1279 407 t b a;
#X msg 1399 348 loadbang;
#X obj 1399 375 bng 15 250 50 0 empty empty empty 17 7 0 10 -262144
-1 -1;
#X obj 1279 348 iem_prepend;
#X obj 1279 296 bng 15 250 50 0 empty empty empty 17 7 0 10 -262144
-1 -1;
#X floatatom 1166 268 5 0 255 0 - - -;
#X obj 1166 294 spell;
#X obj 1166 321 thresh 0.9;
#X obj 1169 216 hsl 128 20 0 255 0 0 empty empty empty -2 -8 0 10 -262144
-1 -1 647 0;
#X obj 1166 241 list-round;
#X obj 1059 375 prepend set;
#X msg 1059 437 49 51 32;
#X obj 1059 407 t b a;
#X msg 1179 348 loadbang;
#X obj 1179 375 bng 15 250 50 0 empty empty empty 17 7 0 10 -262144
-1 -1;
#X obj 1059 348 iem_prepend;
#X obj 1059 296 bng 15 250 50 0 empty empty empty 17 7 0 10 -262144
-1 -1;
#X msg 1059 321 32;
#X msg 1279 321 32;
#X obj 1166 159 line;
#X floatatom 1166 187 5 0 0 0 - - -;
#X obj 1386 159 line;
#X floatatom 1386 187 5 0 0 0 - - -;
#X obj 1606 159 line;
#X floatatom 1606 187 5 0 0 0 - - -;
#X msg 1166 131 13 300;
#X msg 1386 131 190 300;
#X msg 1606 131 110 300;
#X floatatom 1826 268 5 0 255 0 - - -;
#X obj 1826 294 spell;
#X obj 1826 321 thresh 0.9;
#X obj 1829 216 hsl 128 20 0 255 0 0 empty empty empty -2 -8 0 10 -262144
-1 -1 3100 0;
#X obj 1826 241 list-round;
#X obj 1719 375 prepend set;
#X msg 1719 437 54 48 10;
#X obj 1719 407 t b a;
#X msg 1839 348 loadbang;
#X obj 1839 375 bng 15 250 50 0 empty empty empty 17 7 0 10 -262144
-1 -1;
#X obj 1719 348 iem_prepend;
#X obj 1719 296 bng 15 250 50 0 empty empty empty 17 7 0 10 -262144
-1 -1;
#X obj 1826 159 line;
#X floatatom 1826 187 5 0 0 0 - - -;
#X msg 1826 131 13 300;
#X obj 179 559 zl join;
#X obj 179 589 zl join;
#X obj 179 619 zl join;
#X obj 179 649 zl join;
#X msg 839 321 32;
#X msg 1499 321 32;
#X msg 1719 321 10;
#X obj 179 296 bng 15 250 50 0 empty empty empty 17 7 0 10 -262144
-1 -1;
#X text 109 112 find Arduino board;
#X text 109 192 close serial buffer;
#X text 109 140 define board number;
#X text 109 164 open defined board;
#X text 1225 186 feedback #1;
#X text 1445 186 feedback #2;
#X text 1665 186 feedback #3;
#X text 1885 186 feedback #4;
#X obj 286 99 loadbang;
#X connect 0 0 8 0;
#X connect 1 0 0 0;
#X connect 2 0 0 0;
#X connect 3 0 4 0;
#X connect 4 0 0 0;
#X connect 5 0 0 0;
#X connect 6 0 23 0;
#X connect 7 0 5 0;
#X connect 8 0 9 0;
#X connect 9 0 10 0;
#X connect 9 1 11 0;
#X connect 9 2 13 0;
#X connect 9 3 12 0;
#X connect 14 0 18 0;
#X connect 15 0 19 0;
#X connect 16 0 20 0;
#X connect 17 0 21 0;
#X connect 22 0 5 0;
#X connect 23 0 7 0;
#X connect 27 0 28 0;
#X connect 28 0 29 0;
#X connect 29 0 37 1;
#X connect 30 0 31 0;
#X connect 30 0 38 0;
#X connect 31 0 27 0;
#X connect 32 0 34 0;
#X connect 33 0 41 1;
#X connect 34 0 33 0;
#X connect 34 0 41 0;
#X connect 34 1 33 0;
#X connect 35 0 36 0;
#X connect 36 0 33 0;
#X connect 37 0 32 0;
#X connect 38 0 162 0;
#X connect 39 0 40 0;
#X connect 40 0 41 0;
#X connect 41 0 158 0;
#X connect 42 0 43 0;
#X connect 43 0 44 0;
#X connect 44 0 52 1;
#X connect 45 0 46 0;
#X connect 45 0 53 0;
#X connect 46 0 42 0;
#X connect 47 0 49 0;
#X connect 48 0 40 1;
#X connect 49 0 48 0;
#X connect 49 0 40 0;
#X connect 49 1 48 0;
#X connect 50 0 51 0;
#X connect 51 0 48 0;
#X connect 52 0 47 0;
#X connect 53 0 79 0;
#X connect 54 0 55 0;
#X connect 55 0 56 0;
#X connect 56 0 64 1;
#X connect 57 0 58 0;
#X connect 57 0 65 0;
#X connect 58 0 54 0;
#X connect 59 0 61 0;
#X connect 60 0 39 1;
#X connect 61 0 60 0;
#X connect 61 0 39 0;
#X connect 61 1 60 0;
#X connect 62 0 63 0;
#X connect 63 0 60 0;
#X connect 64 0 59 0;
#X connect 65 0 78 0;
#X connect 66 0 67 0;
#X connect 67 0 68 0;
#X connect 68 0 76 1;
#X connect 69 0 70 0;
#X connect 69 0 165 0;
#X connect 70 0 66 0;
#X connect 71 0 73 0;
#X connect 72 0 39 0;
#X connect 73 0 72 0;
#X connect 73 1 72 0;
#X connect 74 0 75 0;
#X connect 75 0 72 0;
#X connect 76 0 71 0;
#X connect 77 0 76 0;
#X connect 78 0 64 0;
#X connect 79 0 52 0;
#X connect 80 0 81 0;
#X connect 81 0 69 0;
#X connect 82 0 80 0;
#X connect 83 0 84 0;
#X connect 84 0 57 0;
#X connect 85 0 86 0;
#X connect 86 0 45 0;
#X connect 87 0 88 0;
#X connect 88 0 30 0;
#X connect 89 0 83 0;
#X connect 90 0 85 0;
#X connect 91 0 87 0;
#X connect 96 0 97 0;
#X connect 97 0 98 0;
#X connect 98 0 106 1;
#X connect 99 0 100 0;
#X connect 99 0 107 0;
#X connect 100 0 96 0;
#X connect 101 0 103 0;
#X connect 102 0 160 1;
#X connect 103 0 102 0;
#X connect 103 0 160 0;
#X connect 103 1 102 0;
#X connect 104 0 105 0;
#X connect 105 0 102 0;
#X connect 106 0 101 0;
#X connect 107 0 163 0;
#X connect 108 0 109 0;
#X connect 109 0 110 0;
#X connect 110 0 118 1;
#X connect 111 0 112 0;
#X connect 111 0 119 0;
#X connect 112 0 108 0;
#X connect 113 0 115 0;
#X connect 114 0 159 1;
#X connect 115 0 114 0;
#X connect 115 0 159 0;
#X connect 115 1 114 0;
#X connect 116 0 117 0;
#X connect 117 0 114 0;
#X connect 118 0 113 0;
#X connect 119 0 133 0;
#X connect 120 0 121 0;
#X connect 121 0 122 0;
#X connect 122 0 130 1;
#X connect 123 0 124 0;
#X connect 123 0 131 0;
#X connect 124 0 120 0;
#X connect 125 0 127 0;
#X connect 126 0 158 1;
#X connect 127 0 126 0;
#X connect 127 0 158 0;
#X connect 127 1 126 0;
#X connect 128 0 129 0;
#X connect 129 0 126 0;
#X connect 130 0 125 0;
#X connect 131 0 132 0;
#X connect 132 0 130 0;
#X connect 133 0 118 0;
#X connect 134 0 135 0;
#X connect 135 0 123 0;
#X connect 136 0 137 0;
#X connect 137 0 111 0;
#X connect 138 0 139 0;
#X connect 139 0 99 0;
#X connect 140 0 134 0;
#X connect 141 0 136 0;
#X connect 142 0 138 0;
#X connect 143 0 144 0;
#X connect 144 0 145 0;
#X connect 145 0 153 1;
#X connect 146 0 147 0;
#X connect 146 0 154 0;
#X connect 147 0 143 0;
#X connect 148 0 150 0;
#X connect 149 0 161 0;
#X connect 150 0 149 0;
#X connect 150 0 161 1;
#X connect 150 1 149 0;
#X connect 151 0 152 0;
#X connect 152 0 149 0;
#X connect 153 0 148 0;
#X connect 154 0 164 0;
#X connect 155 0 156 0;
#X connect 156 0 146 0;
#X connect 157 0 155 0;
#X connect 158 0 159 0;
#X connect 159 0 160 0;
#X connect 160 0 161 0;
#X connect 161 0 22 0;
#X connect 162 0 37 0;
#X connect 163 0 106 0;
#X connect 164 0 153 0;
#X connect 165 0 77 0;
#X connect 174 0 82 0;
#X connect 174 0 89 0;
#X connect 174 0 90 0;
#X connect 174 0 91 0;
#X connect 174 0 140 0;
#X connect 174 0 141 0;
#X connect 174 0 142 0;
#X connect 174 0 157 0;
