#N canvas 12 22 1427 856 12;
#X obj 11 12 comport 9600;
#X msg 11 -113 devices;
#X msg 41 -33 close;
#X floatatom 22 -86 5 0 0 0 - - -;
#X msg 22 -60 open \$1;
#X obj 11 94 s output1;
#X obj 32 121 s output2;
#X obj 75 177 s output4;
#X obj 54 149 s output3;
#X obj 11 298 r output1;
#X obj 21 321 r output2;
#X obj 31 344 r output3;
#X obj 41 367 r output4;
#X obj 14 392 hsl 128 15 0 255 0 0 empty empty empty -2 -8 0 10 -262144
-1 -1 5528 1;
#X obj 24 412 hsl 128 15 0 255 0 0 empty empty empty -2 -8 0 10 -262144
-1 -1 7969 1;
#X obj 34 432 hsl 128 15 0 255 0 0 empty empty empty -2 -8 0 10 -262144
-1 -1 3586 1;
#X obj 44 452 hsl 128 15 0 255 0 0 empty empty empty -2 -8 0 10 -262144
-1 -1 5877 1;
#X text 818 566 arduivis - model #6 - multipleFeedbacks;
#X text 784 590 sketch: arduivis_PD_model5_multiplefeedbacks.ino;
#X text 91 -34 close serial buffer;
#X text 91 -86 define board number;
#X text 91 -62 open defined board;
#X obj 181 11 tgl 47 0 empty empty empty 17 7 0 10 -262144 -1 -1 1
1;
#X obj 181 97 bng 15 250 50 0 empty empty empty 17 7 0 10 -262144 -1
-1;
#X obj 266 -113 loadbang;
#X obj 266 -49 line;
#X msg 266 -77 47 300;
#X obj 406 -51 line;
#X obj 546 -51 line;
#X obj 686 -51 line;
#X msg 406 -79 13 300;
#X msg 546 -79 190 300;
#X msg 686 -79 110 300;
#X text 326 -27 slider #1;
#X text 465 -27 slider #2;
#X text 605 -27 slider #3;
#X text 745 -27 slider #4;
#X text 186 23 poll;
#X floatatom 686 53 5 0 255 0 - - -;
#X obj 686 83 spell;
#X obj 686 145 prepend set;
#X msg 686 210 49 49 56;
#X obj 686 303 prepend;
#X obj 686 334 prepend set;
#X obj 686 176 t b a;
#X obj 686 241 t b a;
#X msg 686 400 49 49 56 32;
#X obj 686 114 thresh 0.9;
#X msg 686 272 32;
#X obj 686 365 t b a;
#X obj 689 -3 hsl 128 20 0 255 0 0 empty empty empty -2 -8 0 10 -262144
-1 -1 5878 1;
#X obj 686 22 list-round;
#X msg 266 669 49 49 49 32 49 54 48 32 55 50 32 49 49 56 32 49 49 49
32 49 54 48 32 55 50 32 49 49 56 10;
#X obj 266 640 prepend set;
#X obj 266 431 zl join;
#X obj 266 461 zl join;
#X obj 266 491 zl join;
#X msg 748 272 loadbang;
#X obj 748 303 bng 15 250 50 0 empty empty empty 17 7 0 10 -262144
-1 -1;
#X floatatom 546 53 5 0 255 0 - - -;
#X obj 546 83 spell;
#X obj 546 145 prepend set;
#X msg 546 210 55 50;
#X obj 546 303 prepend;
#X obj 546 334 prepend set;
#X obj 546 176 t b a;
#X obj 546 241 t b a;
#X msg 546 400 55 50 32;
#X obj 546 114 thresh 0.9;
#X msg 546 272 32;
#X obj 546 365 t b a;
#X obj 549 -3 hsl 128 20 0 255 0 0 empty empty empty -2 -8 0 10 -262144
-1 -1 3600 1;
#X obj 546 22 list-round;
#X msg 608 272 loadbang;
#X obj 608 303 bng 15 250 50 0 empty empty empty 17 7 0 10 -262144
-1 -1;
#X floatatom 406 53 5 0 255 0 - - -;
#X obj 406 83 spell;
#X obj 406 145 prepend set;
#X msg 406 210 49 54 48;
#X obj 406 303 prepend;
#X obj 406 334 prepend set;
#X obj 406 176 t b a;
#X obj 406 241 t b a;
#X msg 406 400 49 54 48 32;
#X obj 406 114 thresh 0.9;
#X msg 406 272 32;
#X obj 406 365 t b a;
#X obj 409 -3 hsl 128 20 0 255 0 0 empty empty empty -2 -8 0 10 -262144
-1 -1 7947 1;
#X obj 406 22 list-round;
#X msg 468 272 loadbang;
#X obj 468 303 bng 15 250 50 0 empty empty empty 17 7 0 10 -262144
-1 -1;
#X floatatom 266 53 5 0 255 0 - - -;
#X obj 266 83 spell;
#X obj 266 145 prepend set;
#X msg 266 210 49 49 49;
#X obj 266 303 prepend;
#X obj 266 334 prepend set;
#X obj 266 176 t b a;
#X obj 266 241 t b a;
#X msg 266 400 49 49 49 32;
#X obj 266 114 thresh 0.9;
#X msg 266 272 32;
#X obj 266 365 t b a;
#X obj 269 -3 hsl 128 20 0 255 0 0 empty empty empty -2 -8 0 10 -262144
-1 -1 5541 1;
#X obj 266 22 list-round;
#X msg 328 272 loadbang;
#X obj 328 303 bng 15 250 50 0 empty empty empty 17 7 0 10 -262144
-1 -1;
#X obj 826 -113 loadbang;
#X obj 826 -49 line;
#X msg 826 -77 47 300;
#X obj 966 -51 line;
#X obj 1106 -51 line;
#X obj 1246 -51 line;
#X msg 966 -79 13 300;
#X msg 1106 -79 190 300;
#X msg 1246 -79 110 300;
#X floatatom 1246 53 5 0 255 0 - - -;
#X obj 1246 83 spell;
#X obj 1246 145 prepend set;
#X msg 1246 210 49 49 56;
#X obj 1246 303 prepend;
#X obj 1246 334 prepend set;
#X obj 1246 176 t b a;
#X obj 1246 241 t b a;
#X msg 1246 400 49 49 56 10;
#X obj 1246 114 thresh 0.9;
#X obj 1246 365 t b a;
#X obj 1249 -3 hsl 128 20 0 255 0 0 empty empty empty -2 -8 0 10 -262144
-1 -1 5877 1;
#X obj 1246 22 list-round;
#X msg 1308 272 loadbang;
#X obj 1308 303 bng 15 250 50 0 empty empty empty 17 7 0 10 -262144
-1 -1;
#X floatatom 1106 53 5 0 255 0 - - -;
#X obj 1106 83 spell;
#X obj 1106 145 prepend set;
#X msg 1106 210 55 50;
#X obj 1106 303 prepend;
#X obj 1106 334 prepend set;
#X obj 1106 176 t b a;
#X obj 1106 241 t b a;
#X msg 1106 400 55 50 32;
#X obj 1106 114 thresh 0.9;
#X msg 1106 272 32;
#X obj 1106 365 t b a;
#X obj 1109 -3 hsl 128 20 0 255 0 0 empty empty empty -2 -8 0 10 -262144
-1 -1 3586 1;
#X obj 1106 22 list-round;
#X msg 1168 272 loadbang;
#X obj 1168 303 bng 15 250 50 0 empty empty empty 17 7 0 10 -262144
-1 -1;
#X floatatom 966 53 5 0 255 0 - - -;
#X obj 966 83 spell;
#X obj 966 145 prepend set;
#X msg 966 210 49 54 48;
#X obj 966 303 prepend;
#X obj 966 334 prepend set;
#X obj 966 176 t b a;
#X obj 966 241 t b a;
#X msg 966 400 49 54 48 32;
#X obj 966 114 thresh 0.9;
#X msg 966 272 32;
#X obj 966 365 t b a;
#X obj 969 -3 hsl 128 20 0 255 0 0 empty empty empty -2 -8 0 10 -262144
-1 -1 7969 1;
#X obj 966 22 list-round;
#X msg 1028 272 loadbang;
#X obj 1028 303 bng 15 250 50 0 empty empty empty 17 7 0 10 -262144
-1 -1;
#X floatatom 826 53 5 0 255 0 - - -;
#X obj 826 83 spell;
#X obj 826 145 prepend set;
#X msg 826 210 49 49 49;
#X obj 826 303 prepend;
#X obj 826 334 prepend set;
#X obj 826 176 t b a;
#X obj 826 241 t b a;
#X msg 826 400 49 49 49 32;
#X obj 826 114 thresh 0.9;
#X msg 826 272 32;
#X obj 826 365 t b a;
#X obj 829 -3 hsl 128 20 0 255 0 0 empty empty empty -2 -8 0 10 -262144
-1 -1 5528 1;
#X obj 826 22 list-round;
#X msg 888 272 loadbang;
#X obj 888 303 bng 15 250 50 0 empty empty empty 17 7 0 10 -262144
-1 -1;
#X msg 1246 272 10;
#X obj 266 521 zl join;
#X obj 266 551 zl join;
#X obj 266 581 zl join;
#X obj 266 611 zl join;
#X obj 11 67 unpack 0 0 0 0 0 0 0 0;
#X obj 97 205 s feedback1;
#X obj 118 232 s feedback2;
#X obj 140 260 s feedback3;
#X obj 162 288 s feedback4;
#X obj 14 572 hsl 128 15 0 255 0 0 empty empty empty -2 -8 0 10 -262144
-1 -1 5528 1;
#X obj 24 592 hsl 128 15 0 255 0 0 empty empty empty -2 -8 0 10 -262144
-1 -1 7969 1;
#X obj 34 612 hsl 128 15 0 255 0 0 empty empty empty -2 -8 0 10 -262144
-1 -1 3586 1;
#X obj 44 632 hsl 128 15 0 255 0 0 empty empty empty -2 -8 0 10 -262144
-1 -1 5877 1;
#X obj 11 480 r feedback1;
#X obj 21 503 r feedback2;
#X obj 31 526 r feedback3;
#X obj 41 549 r feedback4;
#X text 876 -27 feedback #1;
#X text 1015 -27 feedback #2;
#X text 1155 -27 feedback #3;
#X text 1295 -27 feedback #4;
#X obj 885 -49 r output1;
#X obj 1025 -51 r output2;
#X obj 1165 -51 r output3;
#X obj 1305 -51 r output4;
#X obj 11 39 repack 8;
#X obj 181 67 metro 113;
#X connect 0 0 205 0;
#X connect 1 0 0 0;
#X connect 2 0 0 0;
#X connect 3 0 4 0;
#X connect 4 0 0 0;
#X connect 9 0 13 0;
#X connect 10 0 14 0;
#X connect 11 0 15 0;
#X connect 12 0 16 0;
#X connect 22 0 206 0;
#X connect 23 0 52 0;
#X connect 24 0 26 0;
#X connect 24 0 30 0;
#X connect 24 0 31 0;
#X connect 24 0 32 0;
#X connect 25 0 103 0;
#X connect 26 0 25 0;
#X connect 27 0 87 0;
#X connect 28 0 71 0;
#X connect 29 0 50 0;
#X connect 30 0 27 0;
#X connect 31 0 28 0;
#X connect 32 0 29 0;
#X connect 38 0 39 0;
#X connect 39 0 47 0;
#X connect 40 0 44 0;
#X connect 41 0 45 0;
#X connect 42 0 43 0;
#X connect 43 0 49 0;
#X connect 44 0 41 0;
#X connect 44 1 41 0;
#X connect 45 0 48 0;
#X connect 45 1 42 1;
#X connect 46 0 56 1;
#X connect 47 0 40 0;
#X connect 48 0 42 0;
#X connect 49 0 46 0;
#X connect 49 0 56 0;
#X connect 49 1 46 0;
#X connect 50 0 51 0;
#X connect 51 0 38 0;
#X connect 52 0 0 0;
#X connect 53 0 52 0;
#X connect 54 0 55 0;
#X connect 55 0 56 0;
#X connect 56 0 180 0;
#X connect 57 0 58 0;
#X connect 58 0 49 0;
#X connect 59 0 60 0;
#X connect 60 0 68 0;
#X connect 61 0 65 0;
#X connect 62 0 66 0;
#X connect 63 0 64 0;
#X connect 64 0 70 0;
#X connect 65 0 62 0;
#X connect 65 1 62 0;
#X connect 66 0 69 0;
#X connect 66 1 63 1;
#X connect 67 0 55 1;
#X connect 68 0 61 0;
#X connect 69 0 63 0;
#X connect 70 0 67 0;
#X connect 70 0 55 0;
#X connect 70 1 67 0;
#X connect 71 0 72 0;
#X connect 72 0 59 0;
#X connect 73 0 74 0;
#X connect 74 0 70 0;
#X connect 75 0 76 0;
#X connect 76 0 84 0;
#X connect 77 0 81 0;
#X connect 78 0 82 0;
#X connect 79 0 80 0;
#X connect 80 0 86 0;
#X connect 81 0 78 0;
#X connect 81 1 78 0;
#X connect 82 0 85 0;
#X connect 82 1 79 1;
#X connect 83 0 54 1;
#X connect 84 0 77 0;
#X connect 85 0 79 0;
#X connect 86 0 83 0;
#X connect 86 0 54 0;
#X connect 86 1 83 0;
#X connect 87 0 88 0;
#X connect 88 0 75 0;
#X connect 89 0 90 0;
#X connect 90 0 86 0;
#X connect 91 0 92 0;
#X connect 92 0 100 0;
#X connect 93 0 97 0;
#X connect 94 0 98 0;
#X connect 95 0 96 0;
#X connect 96 0 102 0;
#X connect 97 0 94 0;
#X connect 97 1 94 0;
#X connect 98 0 101 0;
#X connect 98 1 95 1;
#X connect 99 0 54 0;
#X connect 100 0 93 0;
#X connect 101 0 95 0;
#X connect 102 0 99 0;
#X connect 102 1 99 0;
#X connect 103 0 104 0;
#X connect 104 0 91 0;
#X connect 105 0 106 0;
#X connect 106 0 102 0;
#X connect 107 0 109 0;
#X connect 107 0 113 0;
#X connect 107 0 114 0;
#X connect 107 0 115 0;
#X connect 108 0 175 0;
#X connect 109 0 108 0;
#X connect 110 0 159 0;
#X connect 111 0 143 0;
#X connect 112 0 127 0;
#X connect 113 0 110 0;
#X connect 114 0 111 0;
#X connect 115 0 112 0;
#X connect 116 0 117 0;
#X connect 117 0 125 0;
#X connect 118 0 122 0;
#X connect 119 0 123 0;
#X connect 120 0 121 0;
#X connect 121 0 126 0;
#X connect 122 0 119 0;
#X connect 122 1 119 0;
#X connect 123 0 179 0;
#X connect 123 1 120 1;
#X connect 124 0 183 1;
#X connect 125 0 118 0;
#X connect 126 0 124 0;
#X connect 126 0 183 0;
#X connect 126 1 124 0;
#X connect 127 0 128 0;
#X connect 128 0 116 0;
#X connect 129 0 130 0;
#X connect 130 0 126 0;
#X connect 131 0 132 0;
#X connect 132 0 140 0;
#X connect 133 0 137 0;
#X connect 134 0 138 0;
#X connect 135 0 136 0;
#X connect 136 0 142 0;
#X connect 137 0 134 0;
#X connect 137 1 134 0;
#X connect 138 0 141 0;
#X connect 138 1 135 1;
#X connect 139 0 182 1;
#X connect 140 0 133 0;
#X connect 141 0 135 0;
#X connect 142 0 139 0;
#X connect 142 0 182 0;
#X connect 142 1 139 0;
#X connect 143 0 144 0;
#X connect 144 0 131 0;
#X connect 145 0 146 0;
#X connect 146 0 142 0;
#X connect 147 0 148 0;
#X connect 148 0 156 0;
#X connect 149 0 153 0;
#X connect 150 0 154 0;
#X connect 151 0 152 0;
#X connect 152 0 158 0;
#X connect 153 0 150 0;
#X connect 153 1 150 0;
#X connect 154 0 157 0;
#X connect 154 1 151 1;
#X connect 155 0 181 1;
#X connect 156 0 149 0;
#X connect 157 0 151 0;
#X connect 158 0 155 0;
#X connect 158 0 181 0;
#X connect 158 1 155 0;
#X connect 159 0 160 0;
#X connect 160 0 147 0;
#X connect 161 0 162 0;
#X connect 162 0 158 0;
#X connect 163 0 164 0;
#X connect 164 0 172 0;
#X connect 165 0 169 0;
#X connect 166 0 170 0;
#X connect 167 0 168 0;
#X connect 168 0 174 0;
#X connect 169 0 166 0;
#X connect 169 1 166 0;
#X connect 170 0 173 0;
#X connect 170 1 167 1;
#X connect 171 0 180 1;
#X connect 172 0 165 0;
#X connect 173 0 167 0;
#X connect 174 0 171 0;
#X connect 174 0 180 0;
#X connect 174 1 171 0;
#X connect 175 0 176 0;
#X connect 176 0 163 0;
#X connect 177 0 178 0;
#X connect 178 0 174 0;
#X connect 179 0 120 0;
#X connect 180 0 181 0;
#X connect 181 0 182 0;
#X connect 182 0 183 0;
#X connect 183 0 53 0;
#X connect 184 0 5 0;
#X connect 184 1 6 0;
#X connect 184 2 8 0;
#X connect 184 3 7 0;
#X connect 184 4 185 0;
#X connect 184 5 186 0;
#X connect 184 6 187 0;
#X connect 184 7 188 0;
#X connect 193 0 189 0;
#X connect 194 0 190 0;
#X connect 195 0 191 0;
#X connect 196 0 192 0;
#X connect 201 0 175 0;
#X connect 202 0 159 0;
#X connect 203 0 143 0;
#X connect 204 0 127 0;
#X connect 205 0 184 0;
#X connect 206 0 23 0;
