#N canvas 0 22 785 855 10;
#X floatatom 208 -43 5 0 0 0 - - -;
#X obj 211 -86 hsl 128 20 0 255 0 0 empty empty empty -2 -8 0 10 -262144
-1 -1 0 1;
#X obj 208 -63 list-round;
#X floatatom 224 20 5 0 0 0 - - -;
#X obj 227 -23 hsl 128 20 0 255 0 0 empty empty empty -2 -8 0 10 -262144
-1 -1 0 1;
#X obj 224 0 list-round;
#X obj 209 228 spell;
#X obj 209 308 prepend set;
#X obj 209 328 t b a;
#X obj 209 288 iem_append 10;
#X floatatom 240 82 5 0 0 0 - - -;
#X obj 243 39 hsl 128 20 0 255 0 0 empty empty empty -2 -8 0 10 -262144
-1 -1 0 1;
#X obj 240 62 list-round;
#X floatatom 256 144 5 0 0 0 - - -;
#X obj 259 101 hsl 128 20 0 255 0 0 empty empty empty -2 -8 0 10 -262144
-1 -1 0 1;
#X obj 256 124 list-round;
#X obj 192 -159 tgl 50 0 empty empty empty 17 7 0 10 -262144 -1 -1
0 1;
#X obj 192 -86 bng 15 250 50 0 empty empty empty 17 7 0 10 -262144
-1 -1;
#X obj 209 376 comport 9600;
#X msg 18 12 devices;
#X msg 18 85 close;
#X floatatom 18 39 5 0 0 0 - - -;
#X msg 18 58 open \$1;
#X obj 209 396 sel 13 10;
#X obj 209 443 iem_anything;
#X obj 209 463 iem_alisttosym;
#X obj 209 483 fromsymbol;
#X text 73 12 find Arduino board;
#X text 74 85 close serial port;
#X text 74 47 open serial port;
#X text 32 -6 1;
#X text 245 -136 2;
#X floatatom 209 524 5 0 0 0 - - -;
#X floatatom 227 541 5 0 0 0 - - -;
#X floatatom 245 558 5 0 0 0 - - -;
#X floatatom 264 575 5 0 0 0 - - -;
#X obj 209 423 zl group 1000;
#X obj 209 248 thresh 0.047;
#X obj 209 268 speedlim 0.047;
#X text 244 -125 poll clock;
#X obj 192 -106 metro 50;
#X obj 209 504 unpack 0 0 0 0 0 0 0 0;
#X floatatom 282 524 5 0 0 0 - - -;
#X floatatom 301 541 5 0 0 0 - - -;
#X floatatom 319 558 5 0 0 0 - - -;
#X floatatom 338 575 5 0 0 0 - - -;
#X obj 209 569 s fb1;
#X obj 227 589 s fb2;
#X obj 245 609 s fb3;
#X obj 264 629 s fb4;
#X obj 372 -118 r fb1;
#X obj 412 -118 r fb2;
#X obj 450 -118 r fb3;
#X obj 489 -118 r fb4;
#X floatatom 372 -43 5 0 0 0 - - -;
#X obj 375 -86 hsl 128 20 0 255 0 0 empty empty empty -2 -8 0 10 -262144
-1 -1 0 1;
#X obj 372 -63 list-round;
#X floatatom 412 20 5 0 0 0 - - -;
#X obj 415 -23 hsl 128 20 0 255 0 0 empty empty empty -2 -8 0 10 -262144
-1 -1 0 1;
#X obj 412 0 list-round;
#X floatatom 450 82 5 0 0 0 - - -;
#X obj 453 39 hsl 128 20 0 255 0 0 empty empty empty -2 -8 0 10 -262144
-1 -1 0 1;
#X obj 450 62 list-round;
#X floatatom 489 144 5 0 0 0 - - -;
#X obj 492 101 hsl 128 20 0 255 0 0 empty empty empty -2 -8 0 10 -262144
-1 -1 0 1;
#X obj 489 124 list-round;
#X obj 192 168 pack 0 0 0 0 0 0 0 0 0;
#X obj 192 188 unpack 0 0 0 0 0 0 0 0 0;
#X obj 209 208 pack 0 0 0 0 0 0 0 0;
#X text 628 -18 slider data to Arduino;
#X text 628 3 round slider floats;
#X text 628 228 convert to ASCII;
#X text 628 248 combine into list;
#X text 628 350 poll slider data;
#X text 628 376 serial port;
#X text 628 396 route & trigger;
#X text 628 433 group into 1 message;
#X text 628 463 convert ASCII to int;
#X text 629 483 convert symbol;
#X text 628 187 unpack data;
#X text 628 168 pack data;
#X text 628 207 repack data;
#X text 628 268 slow down data;
#X text 628 289 append newline;
#X text 628 308 set message for polling;
#X text 629 503 unpack slider data;
#X text 293 -191 arduivis - model #6 - multipleFeedbacks;
#X text 266 -171 sketch: arduivis_PD_model6_multipleFeedbacks.ino;
#X text 397 -141 feedback sliders;
#X text 564 585 Christopher Konopka;
#X text 564 598 cskonopka.github.io/arduivis/;
#X text 564 611 christopherkonopka.com;
#X msg 209 351 57 48 32 48 32 49 48 32 53 56 32 57 48 32 48 32 49 48
10;
#X connect 0 0 66 1;
#X connect 1 0 2 0;
#X connect 2 0 0 0;
#X connect 3 0 66 2;
#X connect 4 0 5 0;
#X connect 5 0 3 0;
#X connect 6 0 37 0;
#X connect 7 0 8 0;
#X connect 8 0 92 0;
#X connect 8 1 92 0;
#X connect 9 0 7 0;
#X connect 10 0 66 3;
#X connect 11 0 12 0;
#X connect 12 0 10 0;
#X connect 13 0 66 4;
#X connect 14 0 15 0;
#X connect 15 0 13 0;
#X connect 16 0 40 0;
#X connect 17 0 66 0;
#X connect 17 0 92 0;
#X connect 18 0 23 0;
#X connect 19 0 18 0;
#X connect 20 0 18 0;
#X connect 21 0 22 0;
#X connect 22 0 18 0;
#X connect 23 0 36 0;
#X connect 23 2 36 0;
#X connect 24 0 25 0;
#X connect 25 0 26 0;
#X connect 26 0 41 0;
#X connect 32 0 46 0;
#X connect 33 0 47 0;
#X connect 34 0 48 0;
#X connect 35 0 49 0;
#X connect 36 0 24 0;
#X connect 37 0 38 0;
#X connect 38 0 9 0;
#X connect 40 0 17 0;
#X connect 41 0 32 0;
#X connect 41 1 33 0;
#X connect 41 2 34 0;
#X connect 41 3 35 0;
#X connect 41 4 42 0;
#X connect 41 5 43 0;
#X connect 41 6 44 0;
#X connect 41 7 45 0;
#X connect 50 0 55 0;
#X connect 51 0 58 0;
#X connect 52 0 61 0;
#X connect 53 0 64 0;
#X connect 54 0 66 5;
#X connect 55 0 56 0;
#X connect 56 0 54 0;
#X connect 57 0 66 6;
#X connect 58 0 59 0;
#X connect 59 0 57 0;
#X connect 60 0 66 7;
#X connect 61 0 62 0;
#X connect 62 0 60 0;
#X connect 63 0 66 7;
#X connect 64 0 65 0;
#X connect 65 0 63 0;
#X connect 66 0 67 0;
#X connect 67 1 68 0;
#X connect 67 2 68 1;
#X connect 67 3 68 2;
#X connect 67 4 68 3;
#X connect 67 5 68 4;
#X connect 67 6 68 5;
#X connect 67 7 68 6;
#X connect 67 8 68 7;
#X connect 68 0 6 0;
#X connect 92 0 18 0;
