#N canvas 203 186 639 504 10;
#X floatatom 170 101 5 0 255 0 - - -;
#X obj 170 131 spell;
#X obj 170 193 prepend set;
#X msg 170 258 48;
#X obj 170 351 prepend;
#X obj 170 382 prepend set;
#X obj 170 224 t b a;
#X obj 170 289 t b a;
#X msg 170 448 48 32;
#X obj 170 162 thresh 0.9;
#X msg 170 320 32;
#X obj 170 413 t b a;
#X obj 170 70 list-round;
#X msg 252 320 loadbang;
#X obj 252 351 bng 15 250 50 0 empty empty empty 17 7 0 10 -262144
-1 -1;
#X obj 170 46 inlet;
#X obj 170 475 outlet;
#X connect 0 0 1 0;
#X connect 1 0 9 0;
#X connect 2 0 6 0;
#X connect 3 0 7 0;
#X connect 4 0 5 0;
#X connect 5 0 11 0;
#X connect 6 0 3 0;
#X connect 6 1 3 0;
#X connect 7 0 10 0;
#X connect 7 1 4 1;
#X connect 8 0 16 0;
#X connect 9 0 2 0;
#X connect 10 0 4 0;
#X connect 11 0 8 0;
#X connect 11 1 8 0;
#X connect 12 0 0 0;
#X connect 13 0 14 0;
#X connect 14 0 11 0;
#X connect 15 0 12 0;
