#N canvas 12 22 1407 533 12;
#X obj 21 32 comport 9600;
#X msg 21 -93 devices;
#X msg 51 -13 close;
#X floatatom 32 -66 5 0 0 0 - - -;
#X msg 32 -40 open \$1;
#X obj 21 114 s output1;
#X obj 42 141 s output2;
#X obj 85 197 s output4;
#X obj 64 169 s output3;
#X obj 769 181 r output1;
#X obj 779 204 r output2;
#X obj 789 227 r output3;
#X obj 799 250 r output4;
#X obj 772 275 hsl 128 15 0 255 0 0 empty empty empty -2 -8 0 10 -262144
-1 -1 2889 1;
#X obj 782 295 hsl 128 15 0 255 0 0 empty empty empty -2 -8 0 10 -262144
-1 -1 4482 1;
#X obj 792 315 hsl 128 15 0 255 0 0 empty empty empty -2 -8 0 10 -262144
-1 -1 7022 1;
#X obj 802 335 hsl 128 15 0 255 0 0 empty empty empty -2 -8 0 10 -262144
-1 -1 3387 1;
#X text 480 369 arduivis - model #6 - multipleFeedbacks;
#X text 446 393 sketch: arduivis_PD_model5_multiplefeedbacks.ino;
#X text 101 -14 close serial buffer;
#X text 101 -66 define board number;
#X text 101 -42 open defined board;
#X obj 276 -93 loadbang;
#X obj 276 -29 line;
#X msg 276 -57 47 300;
#X obj 416 -31 line;
#X obj 556 -31 line;
#X obj 696 -31 line;
#X msg 416 -59 13 300;
#X msg 556 -59 190 300;
#X msg 696 -59 110 300;
#X text 336 -7 slider #1;
#X text 475 -7 slider #2;
#X text 615 -7 slider #3;
#X text 755 -7 slider #4;
#X obj 699 17 hsl 128 20 0 255 0 0 empty empty empty -2 -8 0 10 -262144
-1 -1 3300 1;
#X obj 276 252 zl join;
#X obj 559 17 hsl 128 20 0 255 0 0 empty empty empty -2 -8 0 10 -262144
-1 -1 7000 1;
#X obj 419 17 hsl 128 20 0 255 0 0 empty empty empty -2 -8 0 10 -262144
-1 -1 4500 1;
#X obj 279 17 hsl 128 20 0 255 0 0 empty empty empty -2 -8 0 10 -262144
-1 -1 2900 1;
#X obj 836 -93 loadbang;
#X obj 836 -29 line;
#X msg 836 -57 47 300;
#X obj 976 -31 line;
#X obj 1116 -31 line;
#X obj 1256 -31 line;
#X msg 976 -59 13 300;
#X msg 1116 -59 190 300;
#X msg 1256 -59 110 300;
#X obj 1259 17 hsl 128 20 0 255 0 0 empty empty empty -2 -8 0 10 -262144
-1 -1 3387 1;
#X obj 1119 17 hsl 128 20 0 255 0 0 empty empty empty -2 -8 0 10 -262144
-1 -1 7022 1;
#X obj 979 17 hsl 128 20 0 255 0 0 empty empty empty -2 -8 0 10 -262144
-1 -1 4482 1;
#X obj 839 17 hsl 128 20 0 255 0 0 empty empty empty -2 -8 0 10 -262144
-1 -1 2889 1;
#X obj 21 87 unpack 0 0 0 0 0 0 0 0;
#X obj 107 225 s feedback1;
#X obj 128 252 s feedback2;
#X obj 150 280 s feedback3;
#X obj 172 308 s feedback4;
#X obj 941 271 hsl 128 15 0 255 0 0 empty empty empty -2 -8 0 10 -262144
-1 -1 2889 1;
#X obj 951 291 hsl 128 15 0 255 0 0 empty empty empty -2 -8 0 10 -262144
-1 -1 4482 1;
#X obj 961 311 hsl 128 15 0 255 0 0 empty empty empty -2 -8 0 10 -262144
-1 -1 7022 1;
#X obj 971 331 hsl 128 15 0 255 0 0 empty empty empty -2 -8 0 10 -262144
-1 -1 3387 1;
#X obj 938 179 r feedback1;
#X obj 948 202 r feedback2;
#X obj 958 225 r feedback3;
#X obj 968 248 r feedback4;
#X text 886 -7 feedback #1;
#X text 1025 -7 feedback #2;
#X text 1165 -7 feedback #3;
#X text 1305 -7 feedback #4;
#X obj 895 -29 r output1;
#X obj 1035 -31 r output2;
#X obj 1175 -31 r output3;
#X obj 1315 -31 r output4;
#X obj 21 59 repack 8;
#X obj 276 102 zl join;
#X obj 416 66 t;
#X obj 276 127 zl join;
#X obj 556 66 t;
#X obj 696 66 t;
#X obj 276 152 zl join;
#X msg 276 302 53 56 32 57 48 32 49 52 49 32 54 56 32 53 56 32 57 48
32 49 52 49 32 54 56 32;
#X obj 276 277 prepend set;
#X obj 368 201 tgl 47 0 empty empty empty 17 7 0 10 -262144 -1 -1 1
1;
#X obj 368 277 bng 15 250 50 0 empty empty empty 17 7 0 10 -262144
-1 -1;
#X obj 368 251 metro 51;
#X obj 276 40 arduivis_parse;
#X obj 416 40 arduivis_parse;
#X obj 556 40 arduivis_parse;
#X obj 696 40 arduivis_parse;
#X obj 276 177 zl join;
#X obj 276 202 zl join;
#X obj 276 227 zl join;
#X obj 836 66 t;
#X obj 976 66 t;
#X obj 836 40 arduivis_parse;
#X obj 976 40 arduivis_parse;
#X obj 1116 66 t;
#X obj 1256 66 t;
#X obj 1116 40 arduivis_parse;
#X obj 1256 40 arduivis_parse;
#X msg 111 363 58 90 141 68 58 90 141 68;
#X obj 111 338 prepend set;
#X connect 0 0 74 0;
#X connect 1 0 0 0;
#X connect 2 0 0 0;
#X connect 3 0 4 0;
#X connect 4 0 0 0;
#X connect 9 0 13 0;
#X connect 10 0 14 0;
#X connect 11 0 15 0;
#X connect 12 0 16 0;
#X connect 22 0 24 0;
#X connect 22 0 28 0;
#X connect 22 0 29 0;
#X connect 22 0 30 0;
#X connect 23 0 39 0;
#X connect 24 0 23 0;
#X connect 25 0 38 0;
#X connect 26 0 37 0;
#X connect 27 0 35 0;
#X connect 28 0 25 0;
#X connect 29 0 26 0;
#X connect 30 0 27 0;
#X connect 35 0 89 0;
#X connect 36 0 82 0;
#X connect 37 0 88 0;
#X connect 38 0 87 0;
#X connect 39 0 86 0;
#X connect 40 0 42 0;
#X connect 40 0 46 0;
#X connect 40 0 47 0;
#X connect 40 0 48 0;
#X connect 41 0 52 0;
#X connect 42 0 41 0;
#X connect 43 0 51 0;
#X connect 44 0 50 0;
#X connect 45 0 49 0;
#X connect 46 0 43 0;
#X connect 47 0 44 0;
#X connect 48 0 45 0;
#X connect 49 0 100 0;
#X connect 50 0 99 0;
#X connect 51 0 96 0;
#X connect 52 0 95 0;
#X connect 53 0 5 0;
#X connect 53 1 6 0;
#X connect 53 2 8 0;
#X connect 53 3 7 0;
#X connect 53 4 54 0;
#X connect 53 5 55 0;
#X connect 53 6 56 0;
#X connect 53 7 57 0;
#X connect 62 0 58 0;
#X connect 63 0 59 0;
#X connect 64 0 60 0;
#X connect 65 0 61 0;
#X connect 70 0 52 0;
#X connect 71 0 51 0;
#X connect 72 0 50 0;
#X connect 73 0 49 0;
#X connect 74 0 53 0;
#X connect 74 0 102 0;
#X connect 75 0 77 0;
#X connect 76 0 75 0;
#X connect 77 0 80 0;
#X connect 78 0 77 0;
#X connect 79 0 80 0;
#X connect 80 0 90 0;
#X connect 81 0 0 0;
#X connect 82 0 81 0;
#X connect 83 0 85 0;
#X connect 84 0 81 0;
#X connect 85 0 84 0;
#X connect 86 0 75 0;
#X connect 87 0 75 1;
#X connect 87 0 76 0;
#X connect 88 0 77 1;
#X connect 88 0 78 0;
#X connect 89 0 79 0;
#X connect 89 0 80 1;
#X connect 90 0 91 0;
#X connect 91 0 92 0;
#X connect 92 0 36 0;
#X connect 93 0 90 0;
#X connect 94 0 91 0;
#X connect 95 0 93 0;
#X connect 95 0 90 1;
#X connect 96 0 94 0;
#X connect 96 0 91 1;
#X connect 97 0 92 0;
#X connect 98 0 36 0;
#X connect 99 0 97 0;
#X connect 99 0 92 1;
#X connect 100 0 98 0;
#X connect 100 0 36 1;
#X connect 102 0 101 0;
