#N canvas 12 22 1082 758 16;
#X obj 12 483 comport 9600;
#X msg 12 -54 devices;
#X msg 42 26 close;
#X floatatom 23 -27 5 0 0 0 - - -;
#X msg 23 -1 open \$1;
#X text 110 -46 find Arduino board;
#X text 110 34 close serial buffer;
#X text 110 -18 define board number;
#X text 110 6 open defined board;
#X msg 170 437 57 53 32 53 54 32 49 54 49 32 53 48 10;
#X obj 81 115 tgl 47 0 empty empty empty 17 7 0 10 -262144 -1 -1 0
1;
#X obj 81 201 bng 15 250 50 0 empty empty empty 17 7 0 10 -262144 -1
-1;
#X obj 12 510 repack 4;
#X obj 12 538 unpack 0 0 0 0;
#X obj 12 565 s output1;
#X obj 57 592 s output2;
#X obj 149 648 s output4;
#X obj 103 620 s output3;
#X obj 258 483 r output1;
#X obj 268 513 r output2;
#X obj 278 543 r output3;
#X obj 288 572 r output4;
#X obj 261 607 hsl 128 15 0 255 0 0 empty empty empty -2 -8 0 10 -262144
-1 -1 0 1;
#X obj 271 627 hsl 128 15 0 255 0 0 empty empty empty -2 -8 0 10 -262144
-1 -1 0 1;
#X obj 281 647 hsl 128 15 0 255 0 0 empty empty empty -2 -8 0 10 -262144
-1 -1 0 1;
#X obj 291 667 hsl 128 15 0 255 0 0 empty empty empty -2 -8 0 10 -262144
-1 -1 0 1;
#X floatatom 937 118 5 0 255 0 - - -;
#X obj 937 144 spell;
#X obj 937 171 thresh 0.9;
#X obj 940 66 hsl 128 20 0 255 0 0 empty empty empty -2 -8 0 10 -262144
-1 -1 2278 1;
#X obj 937 91 list-round;
#X obj 830 225 prepend set;
#X msg 830 287 53 48 10;
#X obj 830 257 t b a;
#X msg 950 198 loadbang;
#X obj 950 225 bng 15 250 50 0 empty empty empty 17 7 0 10 -262144
-1 -1;
#X obj 830 198 iem_prepend;
#X obj 830 146 bng 15 250 50 0 empty empty empty 17 7 0 10 -262144
-1 -1;
#X msg 830 171 10;
#X obj 170 408 prepend set;
#X obj 170 319 zl join;
#X obj 170 349 zl join;
#X obj 170 379 zl join;
#X floatatom 717 118 5 0 255 0 - - -;
#X obj 717 144 spell;
#X obj 717 171 thresh 0.9;
#X obj 720 66 hsl 128 20 0 255 0 0 empty empty empty -2 -8 0 10 -262144
-1 -1 7900 1;
#X obj 717 91 list-round;
#X obj 610 225 prepend set;
#X msg 610 287 49 54 49 32;
#X obj 610 257 t b a;
#X msg 730 198 loadbang;
#X obj 730 225 bng 15 250 50 0 empty empty empty 17 7 0 10 -262144
-1 -1;
#X obj 610 198 iem_prepend;
#X obj 610 146 bng 15 250 50 0 empty empty empty 17 7 0 10 -262144
-1 -1;
#X floatatom 497 118 5 0 255 0 - - -;
#X obj 497 144 spell;
#X obj 497 171 thresh 0.9;
#X obj 500 66 hsl 128 20 0 255 0 0 empty empty empty -2 -8 0 10 -262144
-1 -1 2700 0;
#X obj 497 91 list-round;
#X obj 390 225 prepend set;
#X msg 390 287 53 54 32;
#X obj 390 257 t b a;
#X msg 510 198 loadbang;
#X obj 510 225 bng 15 250 50 0 empty empty empty 17 7 0 10 -262144
-1 -1;
#X obj 390 198 iem_prepend;
#X obj 390 146 bng 15 250 50 0 empty empty empty 17 7 0 10 -262144
-1 -1;
#X floatatom 277 118 5 0 255 0 - - -;
#X obj 277 144 spell;
#X obj 277 171 thresh 0.9;
#X obj 280 66 hsl 128 20 0 255 0 0 empty empty empty -2 -8 0 10 -262144
-1 -1 4641 1;
#X obj 277 91 list-round;
#X obj 170 225 prepend set;
#X msg 170 287 57 53 32;
#X obj 170 257 t b a;
#X msg 290 198 loadbang;
#X obj 290 225 bng 15 250 50 0 empty empty empty 17 7 0 10 -262144
-1 -1;
#X obj 170 198 iem_prepend;
#X obj 170 145 bng 15 250 50 0 empty empty empty 17 7 0 10 -262144
-1 -1;
#X msg 170 171 32;
#X msg 390 171 32;
#X msg 610 171 32;
#X obj 81 171 metro 47;
#X obj 277 -53 loadbang;
#X obj 277 11 line;
#X floatatom 277 39 5 0 0 0 - - -;
#X msg 277 -17 47 300;
#X obj 497 9 line;
#X floatatom 497 37 5 0 0 0 - - -;
#X obj 717 9 line;
#X floatatom 717 37 5 0 0 0 - - -;
#X obj 937 9 line;
#X floatatom 937 37 5 0 0 0 - - -;
#X msg 497 -19 13 300;
#X msg 717 -19 190 300;
#X msg 937 -19 110 300;
#X connect 0 0 12 0;
#X connect 1 0 0 0;
#X connect 2 0 0 0;
#X connect 3 0 4 0;
#X connect 4 0 0 0;
#X connect 9 0 0 0;
#X connect 10 0 82 0;
#X connect 11 0 9 0;
#X connect 12 0 13 0;
#X connect 13 0 14 0;
#X connect 13 1 15 0;
#X connect 13 2 17 0;
#X connect 13 3 16 0;
#X connect 18 0 22 0;
#X connect 19 0 23 0;
#X connect 20 0 24 0;
#X connect 21 0 25 0;
#X connect 26 0 27 0;
#X connect 27 0 28 0;
#X connect 28 0 36 1;
#X connect 29 0 30 0;
#X connect 29 0 37 0;
#X connect 30 0 26 0;
#X connect 31 0 33 0;
#X connect 32 0 42 1;
#X connect 33 0 32 0;
#X connect 33 0 42 0;
#X connect 33 1 32 0;
#X connect 34 0 35 0;
#X connect 35 0 32 0;
#X connect 36 0 31 0;
#X connect 37 0 38 0;
#X connect 38 0 36 0;
#X connect 39 0 9 0;
#X connect 40 0 41 0;
#X connect 41 0 42 0;
#X connect 42 0 39 0;
#X connect 43 0 44 0;
#X connect 44 0 45 0;
#X connect 45 0 53 1;
#X connect 46 0 47 0;
#X connect 46 0 54 0;
#X connect 47 0 43 0;
#X connect 48 0 50 0;
#X connect 49 0 41 1;
#X connect 50 0 49 0;
#X connect 50 0 41 0;
#X connect 50 1 49 0;
#X connect 51 0 52 0;
#X connect 52 0 49 0;
#X connect 53 0 48 0;
#X connect 54 0 81 0;
#X connect 55 0 56 0;
#X connect 56 0 57 0;
#X connect 57 0 65 1;
#X connect 58 0 59 0;
#X connect 58 0 66 0;
#X connect 59 0 55 0;
#X connect 60 0 62 0;
#X connect 61 0 40 1;
#X connect 62 0 61 0;
#X connect 62 0 40 0;
#X connect 62 1 61 0;
#X connect 63 0 64 0;
#X connect 64 0 61 0;
#X connect 65 0 60 0;
#X connect 66 0 80 0;
#X connect 67 0 68 0;
#X connect 68 0 69 0;
#X connect 69 0 77 1;
#X connect 70 0 71 0;
#X connect 70 0 78 0;
#X connect 71 0 67 0;
#X connect 72 0 74 0;
#X connect 73 0 40 0;
#X connect 74 0 73 0;
#X connect 74 1 73 0;
#X connect 75 0 76 0;
#X connect 76 0 73 0;
#X connect 77 0 72 0;
#X connect 78 0 79 0;
#X connect 79 0 77 0;
#X connect 80 0 65 0;
#X connect 81 0 53 0;
#X connect 82 0 11 0;
#X connect 83 0 86 0;
#X connect 83 0 93 0;
#X connect 83 0 94 0;
#X connect 83 0 95 0;
#X connect 84 0 85 0;
#X connect 85 0 70 0;
#X connect 86 0 84 0;
#X connect 87 0 88 0;
#X connect 88 0 58 0;
#X connect 89 0 90 0;
#X connect 90 0 46 0;
#X connect 91 0 92 0;
#X connect 92 0 29 0;
#X connect 93 0 87 0;
#X connect 94 0 89 0;
#X connect 95 0 91 0;
