#N canvas 12 22 1427 856 12;
#X obj 21 22 comport 9600;
#X msg 21 -103 devices;
#X msg 51 -23 close;
#X floatatom 32 -76 5 0 0 0 - - -;
#X msg 32 -50 open \$1;
#X obj 21 104 s output1;
#X obj 42 131 s output2;
#X obj 85 187 s output4;
#X obj 64 159 s output3;
#X obj 21 308 r output1;
#X obj 31 331 r output2;
#X obj 41 354 r output3;
#X obj 51 377 r output4;
#X obj 24 402 hsl 128 15 0 255 0 0 empty empty empty -2 -8 0 10 -262144
-1 -1 1444 1;
#X obj 34 422 hsl 128 15 0 255 0 0 empty empty empty -2 -8 0 10 -262144
-1 -1 4632 1;
#X obj 44 442 hsl 128 15 0 255 0 0 empty empty empty -2 -8 0 10 -262144
-1 -1 8666 1;
#X obj 54 462 hsl 128 15 0 255 0 0 empty empty empty -2 -8 0 10 -262144
-1 -1 11903 1;
#X text 828 576 arduivis - model #6 - multipleFeedbacks;
#X text 794 600 sketch: arduivis_PD_model5_multiplefeedbacks.ino;
#X text 101 -24 close serial buffer;
#X text 101 -76 define board number;
#X text 101 -52 open defined board;
#X obj 191 21 tgl 47 0 empty empty empty 17 7 0 10 -262144 -1 -1 1
1;
#X obj 191 107 bng 15 250 50 0 empty empty empty 17 7 0 10 -262144
-1 -1;
#X obj 276 -103 loadbang;
#X obj 276 -39 line;
#X msg 276 -67 47 300;
#X obj 416 -41 line;
#X obj 556 -41 line;
#X obj 696 -41 line;
#X msg 416 -69 13 300;
#X msg 556 -69 190 300;
#X msg 696 -69 110 300;
#X text 336 -17 slider #1;
#X text 475 -17 slider #2;
#X text 615 -17 slider #3;
#X text 755 -17 slider #4;
#X text 196 33 poll;
#X floatatom 696 63 5 0 255 0 - - -;
#X obj 696 93 spell;
#X obj 696 155 prepend set;
#X msg 696 220 50 51 57;
#X obj 696 313 prepend;
#X obj 696 344 prepend set;
#X obj 696 186 t b a;
#X obj 696 251 t b a;
#X msg 696 410 50 51 57 32;
#X obj 696 124 thresh 0.9;
#X msg 696 282 32;
#X obj 696 375 t b a;
#X obj 699 7 hsl 128 20 0 255 0 0 empty empty empty -2 -8 0 10 -262144
-1 -1 11900 1;
#X obj 696 32 list-round;
#X msg 276 679 50 57 32 57 51 32 49 55 52 32 50 51 57 32 50 57 32 57
51 32 49 55 52 32 50 51 57 10;
#X obj 276 650 prepend set;
#X obj 276 441 zl join;
#X obj 276 471 zl join;
#X obj 276 501 zl join;
#X msg 758 282 loadbang;
#X obj 758 313 bng 15 250 50 0 empty empty empty 17 7 0 10 -262144
-1 -1;
#X floatatom 556 63 5 0 255 0 - - -;
#X obj 556 93 spell;
#X obj 556 155 prepend set;
#X msg 556 220 49 55 52;
#X obj 556 313 prepend;
#X obj 556 344 prepend set;
#X obj 556 186 t b a;
#X obj 556 251 t b a;
#X msg 556 410 49 55 52 32;
#X obj 556 124 thresh 0.9;
#X msg 556 282 32;
#X obj 556 375 t b a;
#X obj 559 7 hsl 128 20 0 255 0 0 empty empty empty -2 -8 0 10 -262144
-1 -1 8663 1;
#X obj 556 32 list-round;
#X msg 618 282 loadbang;
#X obj 618 313 bng 15 250 50 0 empty empty empty 17 7 0 10 -262144
-1 -1;
#X floatatom 416 63 5 0 255 0 - - -;
#X obj 416 93 spell;
#X obj 416 155 prepend set;
#X msg 416 220 57 51;
#X obj 416 313 prepend;
#X obj 416 344 prepend set;
#X obj 416 186 t b a;
#X obj 416 251 t b a;
#X msg 416 410 57 51 32;
#X obj 416 124 thresh 0.9;
#X msg 416 282 32;
#X obj 416 375 t b a;
#X obj 419 7 hsl 128 20 0 255 0 0 empty empty empty -2 -8 0 10 -262144
-1 -1 4647 1;
#X obj 416 32 list-round;
#X msg 478 282 loadbang;
#X obj 478 313 bng 15 250 50 0 empty empty empty 17 7 0 10 -262144
-1 -1;
#X floatatom 276 63 5 0 255 0 - - -;
#X obj 276 93 spell;
#X obj 276 155 prepend set;
#X msg 276 220 50 57;
#X obj 276 313 prepend;
#X obj 276 344 prepend set;
#X obj 276 186 t b a;
#X obj 276 251 t b a;
#X msg 276 410 50 57 32;
#X obj 276 124 thresh 0.9;
#X msg 276 282 32;
#X obj 276 375 t b a;
#X obj 279 7 hsl 128 20 0 255 0 0 empty empty empty -2 -8 0 10 -262144
-1 -1 1441 1;
#X obj 276 32 list-round;
#X msg 338 282 loadbang;
#X obj 338 313 bng 15 250 50 0 empty empty empty 17 7 0 10 -262144
-1 -1;
#X obj 836 -103 loadbang;
#X obj 836 -39 line;
#X msg 836 -67 47 300;
#X obj 976 -41 line;
#X obj 1116 -41 line;
#X obj 1256 -41 line;
#X msg 976 -69 13 300;
#X msg 1116 -69 190 300;
#X msg 1256 -69 110 300;
#X floatatom 1256 63 5 0 255 0 - - -;
#X obj 1256 93 spell;
#X obj 1256 155 prepend set;
#X msg 1256 220 50 51 57;
#X obj 1256 313 prepend;
#X obj 1256 344 prepend set;
#X obj 1256 186 t b a;
#X obj 1256 251 t b a;
#X msg 1256 410 50 51 57 10;
#X obj 1256 124 thresh 0.9;
#X obj 1256 375 t b a;
#X obj 1259 7 hsl 128 20 0 255 0 0 empty empty empty -2 -8 0 10 -262144
-1 -1 11903 1;
#X obj 1256 32 list-round;
#X msg 1318 282 loadbang;
#X obj 1318 313 bng 15 250 50 0 empty empty empty 17 7 0 10 -262144
-1 -1;
#X floatatom 1116 63 5 0 255 0 - - -;
#X obj 1116 93 spell;
#X obj 1116 155 prepend set;
#X msg 1116 220 49 55 52;
#X obj 1116 313 prepend;
#X obj 1116 344 prepend set;
#X obj 1116 186 t b a;
#X obj 1116 251 t b a;
#X msg 1116 410 49 55 52 32;
#X obj 1116 124 thresh 0.9;
#X msg 1116 282 32;
#X obj 1116 375 t b a;
#X obj 1119 7 hsl 128 20 0 255 0 0 empty empty empty -2 -8 0 10 -262144
-1 -1 8666 1;
#X obj 1116 32 list-round;
#X msg 1178 282 loadbang;
#X obj 1178 313 bng 15 250 50 0 empty empty empty 17 7 0 10 -262144
-1 -1;
#X floatatom 976 63 5 0 255 0 - - -;
#X obj 976 93 spell;
#X obj 976 155 prepend set;
#X msg 976 220 57 51;
#X obj 976 313 prepend;
#X obj 976 344 prepend set;
#X obj 976 186 t b a;
#X obj 976 251 t b a;
#X msg 976 410 57 51 32;
#X obj 976 124 thresh 0.9;
#X msg 976 282 32;
#X obj 976 375 t b a;
#X obj 979 7 hsl 128 20 0 255 0 0 empty empty empty -2 -8 0 10 -262144
-1 -1 4632 1;
#X obj 976 32 list-round;
#X msg 1038 282 loadbang;
#X obj 1038 313 bng 15 250 50 0 empty empty empty 17 7 0 10 -262144
-1 -1;
#X floatatom 836 63 5 0 255 0 - - -;
#X obj 836 93 spell;
#X obj 836 155 prepend set;
#X msg 836 220 50 57;
#X obj 836 313 prepend;
#X obj 836 344 prepend set;
#X obj 836 186 t b a;
#X obj 836 251 t b a;
#X msg 836 410 50 57 32;
#X obj 836 124 thresh 0.9;
#X msg 836 282 32;
#X obj 836 375 t b a;
#X obj 839 7 hsl 128 20 0 255 0 0 empty empty empty -2 -8 0 10 -262144
-1 -1 1444 1;
#X obj 836 32 list-round;
#X msg 898 282 loadbang;
#X obj 898 313 bng 15 250 50 0 empty empty empty 17 7 0 10 -262144
-1 -1;
#X msg 1256 282 10;
#X obj 276 531 zl join;
#X obj 276 561 zl join;
#X obj 276 591 zl join;
#X obj 276 621 zl join;
#X obj 21 77 unpack 0 0 0 0 0 0 0 0;
#X obj 107 215 s feedback1;
#X obj 128 242 s feedback2;
#X obj 150 270 s feedback3;
#X obj 172 298 s feedback4;
#X obj 24 582 hsl 128 15 0 255 0 0 empty empty empty -2 -8 0 10 -262144
-1 -1 1444 1;
#X obj 34 602 hsl 128 15 0 255 0 0 empty empty empty -2 -8 0 10 -262144
-1 -1 4632 1;
#X obj 44 622 hsl 128 15 0 255 0 0 empty empty empty -2 -8 0 10 -262144
-1 -1 8666 1;
#X obj 54 642 hsl 128 15 0 255 0 0 empty empty empty -2 -8 0 10 -262144
-1 -1 11903 1;
#X obj 21 490 r feedback1;
#X obj 31 513 r feedback2;
#X obj 41 536 r feedback3;
#X obj 51 559 r feedback4;
#X text 886 -17 feedback #1;
#X text 1025 -17 feedback #2;
#X text 1165 -17 feedback #3;
#X text 1305 -17 feedback #4;
#X obj 895 -39 r output1;
#X obj 1035 -41 r output2;
#X obj 1175 -41 r output3;
#X obj 1315 -41 r output4;
#X obj 21 49 repack 8;
#X obj 191 77 metro 113;
#X connect 0 0 205 0;
#X connect 1 0 0 0;
#X connect 2 0 0 0;
#X connect 3 0 4 0;
#X connect 4 0 0 0;
#X connect 9 0 13 0;
#X connect 10 0 14 0;
#X connect 11 0 15 0;
#X connect 12 0 16 0;
#X connect 22 0 206 0;
#X connect 23 0 52 0;
#X connect 24 0 26 0;
#X connect 24 0 30 0;
#X connect 24 0 31 0;
#X connect 24 0 32 0;
#X connect 25 0 103 0;
#X connect 26 0 25 0;
#X connect 27 0 87 0;
#X connect 28 0 71 0;
#X connect 29 0 50 0;
#X connect 30 0 27 0;
#X connect 31 0 28 0;
#X connect 32 0 29 0;
#X connect 38 0 39 0;
#X connect 39 0 47 0;
#X connect 40 0 44 0;
#X connect 41 0 45 0;
#X connect 42 0 43 0;
#X connect 43 0 49 0;
#X connect 44 0 41 0;
#X connect 44 1 41 0;
#X connect 45 0 48 0;
#X connect 45 1 42 1;
#X connect 46 0 56 1;
#X connect 47 0 40 0;
#X connect 48 0 42 0;
#X connect 49 0 46 0;
#X connect 49 0 56 0;
#X connect 49 1 46 0;
#X connect 50 0 51 0;
#X connect 51 0 38 0;
#X connect 52 0 0 0;
#X connect 53 0 52 0;
#X connect 54 0 55 0;
#X connect 55 0 56 0;
#X connect 56 0 180 0;
#X connect 57 0 58 0;
#X connect 58 0 49 0;
#X connect 59 0 60 0;
#X connect 60 0 68 0;
#X connect 61 0 65 0;
#X connect 62 0 66 0;
#X connect 63 0 64 0;
#X connect 64 0 70 0;
#X connect 65 0 62 0;
#X connect 65 1 62 0;
#X connect 66 0 69 0;
#X connect 66 1 63 1;
#X connect 67 0 55 1;
#X connect 68 0 61 0;
#X connect 69 0 63 0;
#X connect 70 0 67 0;
#X connect 70 0 55 0;
#X connect 70 1 67 0;
#X connect 71 0 72 0;
#X connect 72 0 59 0;
#X connect 73 0 74 0;
#X connect 74 0 70 0;
#X connect 75 0 76 0;
#X connect 76 0 84 0;
#X connect 77 0 81 0;
#X connect 78 0 82 0;
#X connect 79 0 80 0;
#X connect 80 0 86 0;
#X connect 81 0 78 0;
#X connect 81 1 78 0;
#X connect 82 0 85 0;
#X connect 82 1 79 1;
#X connect 83 0 54 1;
#X connect 84 0 77 0;
#X connect 85 0 79 0;
#X connect 86 0 83 0;
#X connect 86 0 54 0;
#X connect 86 1 83 0;
#X connect 87 0 88 0;
#X connect 88 0 75 0;
#X connect 89 0 90 0;
#X connect 90 0 86 0;
#X connect 91 0 92 0;
#X connect 92 0 100 0;
#X connect 93 0 97 0;
#X connect 94 0 98 0;
#X connect 95 0 96 0;
#X connect 96 0 102 0;
#X connect 97 0 94 0;
#X connect 97 1 94 0;
#X connect 98 0 101 0;
#X connect 98 1 95 1;
#X connect 99 0 54 0;
#X connect 100 0 93 0;
#X connect 101 0 95 0;
#X connect 102 0 99 0;
#X connect 102 1 99 0;
#X connect 103 0 104 0;
#X connect 104 0 91 0;
#X connect 105 0 106 0;
#X connect 106 0 102 0;
#X connect 107 0 109 0;
#X connect 107 0 113 0;
#X connect 107 0 114 0;
#X connect 107 0 115 0;
#X connect 108 0 175 0;
#X connect 109 0 108 0;
#X connect 110 0 159 0;
#X connect 111 0 143 0;
#X connect 112 0 127 0;
#X connect 113 0 110 0;
#X connect 114 0 111 0;
#X connect 115 0 112 0;
#X connect 116 0 117 0;
#X connect 117 0 125 0;
#X connect 118 0 122 0;
#X connect 119 0 123 0;
#X connect 120 0 121 0;
#X connect 121 0 126 0;
#X connect 122 0 119 0;
#X connect 122 1 119 0;
#X connect 123 0 179 0;
#X connect 123 1 120 1;
#X connect 124 0 183 1;
#X connect 125 0 118 0;
#X connect 126 0 124 0;
#X connect 126 0 183 0;
#X connect 126 1 124 0;
#X connect 127 0 128 0;
#X connect 128 0 116 0;
#X connect 129 0 130 0;
#X connect 130 0 126 0;
#X connect 131 0 132 0;
#X connect 132 0 140 0;
#X connect 133 0 137 0;
#X connect 134 0 138 0;
#X connect 135 0 136 0;
#X connect 136 0 142 0;
#X connect 137 0 134 0;
#X connect 137 1 134 0;
#X connect 138 0 141 0;
#X connect 138 1 135 1;
#X connect 139 0 182 1;
#X connect 140 0 133 0;
#X connect 141 0 135 0;
#X connect 142 0 139 0;
#X connect 142 0 182 0;
#X connect 142 1 139 0;
#X connect 143 0 144 0;
#X connect 144 0 131 0;
#X connect 145 0 146 0;
#X connect 146 0 142 0;
#X connect 147 0 148 0;
#X connect 148 0 156 0;
#X connect 149 0 153 0;
#X connect 150 0 154 0;
#X connect 151 0 152 0;
#X connect 152 0 158 0;
#X connect 153 0 150 0;
#X connect 153 1 150 0;
#X connect 154 0 157 0;
#X connect 154 1 151 1;
#X connect 155 0 181 1;
#X connect 156 0 149 0;
#X connect 157 0 151 0;
#X connect 158 0 155 0;
#X connect 158 0 181 0;
#X connect 158 1 155 0;
#X connect 159 0 160 0;
#X connect 160 0 147 0;
#X connect 161 0 162 0;
#X connect 162 0 158 0;
#X connect 163 0 164 0;
#X connect 164 0 172 0;
#X connect 165 0 169 0;
#X connect 166 0 170 0;
#X connect 167 0 168 0;
#X connect 168 0 174 0;
#X connect 169 0 166 0;
#X connect 169 1 166 0;
#X connect 170 0 173 0;
#X connect 170 1 167 1;
#X connect 171 0 180 1;
#X connect 172 0 165 0;
#X connect 173 0 167 0;
#X connect 174 0 171 0;
#X connect 174 0 180 0;
#X connect 174 1 171 0;
#X connect 175 0 176 0;
#X connect 176 0 163 0;
#X connect 177 0 178 0;
#X connect 178 0 174 0;
#X connect 179 0 120 0;
#X connect 180 0 181 0;
#X connect 181 0 182 0;
#X connect 182 0 183 0;
#X connect 183 0 53 0;
#X connect 184 0 5 0;
#X connect 184 1 6 0;
#X connect 184 2 8 0;
#X connect 184 3 7 0;
#X connect 184 4 185 0;
#X connect 184 5 186 0;
#X connect 184 6 187 0;
#X connect 184 7 188 0;
#X connect 193 0 189 0;
#X connect 194 0 190 0;
#X connect 195 0 191 0;
#X connect 196 0 192 0;
#X connect 201 0 175 0;
#X connect 202 0 159 0;
#X connect 203 0 143 0;
#X connect 204 0 127 0;
#X connect 205 0 184 0;
#X connect 206 0 23 0;
