#N canvas 12 22 1403 856 16;
#X obj 11 192 comport 9600;
#X msg 11 -16 devices;
#X msg 41 64 close;
#X floatatom 22 11 5 0 0 0 - - -;
#X msg 22 37 open \$1;
#X obj 11 274 s output1;
#X obj 42 301 s output2;
#X obj 104 357 s output4;
#X obj 73 329 s output3;
#X obj 36 504 r output1;
#X obj 46 534 r output2;
#X obj 56 564 r output3;
#X obj 66 593 r output4;
#X obj 39 628 hsl 128 15 0 255 0 0 empty empty empty -2 -8 0 10 -262144
-1 -1 2042 1;
#X obj 49 648 hsl 128 15 0 255 0 0 empty empty empty -2 -8 0 10 -262144
-1 -1 4931 1;
#X obj 59 668 hsl 128 15 0 255 0 0 empty empty empty -2 -8 0 10 -262144
-1 -1 4831 1;
#X obj 69 688 hsl 128 15 0 255 0 0 empty empty empty -2 -8 0 10 -262144
-1 -1 2640 1;
#X text 39 -89 arduivis - model #6 - multipleFeedbacks;
#X text 5 -65 sketch: arduivis_PD_model5_multiplefeedbacks.ino;
#X text 116 35 close serial buffer;
#X text 116 -17 define board number;
#X text 116 7 open defined board;
#X obj 315 -12 tgl 47 0 empty empty empty 17 7 0 10 -262144 -1 -1 0
1;
#X obj 315 74 bng 15 250 50 0 empty empty empty 17 7 0 10 -262144 -1
-1;
#X obj 407 -123 loadbang;
#X obj 407 -59 line;
#X floatatom 407 -31 5 0 0 0 - - -;
#X msg 407 -87 47 300;
#X obj 586 -61 line;
#X floatatom 586 -33 5 0 0 0 - - -;
#X obj 766 -61 line;
#X floatatom 766 -33 5 0 0 0 - - -;
#X obj 946 -61 line;
#X floatatom 946 -33 5 0 0 0 - - -;
#X msg 586 -89 13 300;
#X msg 766 -89 190 300;
#X msg 946 -89 110 300;
#X text 466 -30 slider #1;
#X text 645 -30 slider #2;
#X text 825 -30 slider #3;
#X text 1005 -30 slider #4;
#X text 320 0 poll;
#X floatatom 946 53 5 0 255 0 - - -;
#X obj 946 83 spell;
#X obj 946 145 prepend set;
#X msg 946 210 57 55;
#X obj 946 303 prepend;
#X obj 946 334 prepend set;
#X obj 946 176 t b a;
#X obj 946 241 t b a;
#X msg 946 400 57 55 32;
#X obj 946 114 thresh 0.9;
#X msg 946 272 32;
#X obj 946 365 t b a;
#X obj 949 -3 hsl 128 20 0 255 0 0 empty empty empty -2 -8 0 10 -262144
-1 -1 4800 1;
#X obj 946 22 list-round;
#X msg 406 669 57 48 32 52 49 32 57 57 32 57 55 32 52 49 32 57 57 32
57 55 32 53 51 10;
#X obj 406 640 prepend set;
#X obj 406 431 zl join;
#X obj 406 461 zl join;
#X obj 406 491 zl join;
#X msg 1028 272 loadbang;
#X obj 1028 303 bng 15 250 50 0 empty empty empty 17 7 0 10 -262144
-1 -1;
#X floatatom 766 53 5 0 255 0 - - -;
#X obj 766 83 spell;
#X obj 766 145 prepend set;
#X msg 766 210 57 57;
#X obj 766 303 prepend;
#X obj 766 334 prepend set;
#X obj 766 176 t b a;
#X obj 766 241 t b a;
#X msg 766 400 57 57 32;
#X obj 766 114 thresh 0.9;
#X msg 766 272 32;
#X obj 766 365 t b a;
#X obj 769 -3 hsl 128 20 0 255 0 0 empty empty empty -2 -8 0 10 -262144
-1 -1 6300 1;
#X obj 766 22 list-round;
#X msg 848 272 loadbang;
#X obj 848 303 bng 15 250 50 0 empty empty empty 17 7 0 10 -262144
-1 -1;
#X floatatom 586 53 5 0 255 0 - - -;
#X obj 586 83 spell;
#X obj 586 145 prepend set;
#X msg 586 210 52 49;
#X obj 586 303 prepend;
#X obj 586 334 prepend set;
#X obj 586 176 t b a;
#X obj 586 241 t b a;
#X msg 586 400 52 49 32;
#X obj 586 114 thresh 0.9;
#X msg 586 272 32;
#X obj 586 365 t b a;
#X obj 589 -3 hsl 128 20 0 255 0 0 empty empty empty -2 -8 0 10 -262144
-1 -1 2647 1;
#X obj 586 22 list-round;
#X msg 668 272 loadbang;
#X obj 668 303 bng 15 250 50 0 empty empty empty 17 7 0 10 -262144
-1 -1;
#X floatatom 406 53 5 0 255 0 - - -;
#X obj 406 83 spell;
#X obj 406 145 prepend set;
#X msg 406 210 57 48;
#X obj 406 303 prepend;
#X obj 406 334 prepend set;
#X obj 406 176 t b a;
#X obj 406 241 t b a;
#X msg 406 400 57 48 32;
#X obj 406 114 thresh 0.9;
#X msg 406 272 32;
#X obj 406 365 t b a;
#X obj 409 -3 hsl 128 20 0 255 0 0 empty empty empty -2 -8 0 10 -262144
-1 -1 3900 1;
#X obj 406 22 list-round;
#X msg 488 272 loadbang;
#X obj 488 303 bng 15 250 50 0 empty empty empty 17 7 0 10 -262144
-1 -1;
#X obj 1127 -123 loadbang;
#X obj 1127 -59 line;
#X floatatom 1127 -31 5 0 0 0 - - -;
#X msg 1127 -87 47 300;
#X obj 1306 -61 line;
#X floatatom 1306 -33 5 0 0 0 - - -;
#X obj 1486 -61 line;
#X floatatom 1486 -33 5 0 0 0 - - -;
#X obj 1666 -61 line;
#X floatatom 1666 -33 5 0 0 0 - - -;
#X msg 1306 -89 13 300;
#X msg 1486 -89 190 300;
#X msg 1666 -89 110 300;
#X floatatom 1666 53 5 0 255 0 - - -;
#X obj 1666 83 spell;
#X obj 1666 145 prepend set;
#X msg 1666 210 53 51;
#X obj 1666 303 prepend;
#X obj 1666 334 prepend set;
#X obj 1666 176 t b a;
#X obj 1666 241 t b a;
#X msg 1666 400 53 51 10;
#X obj 1666 114 thresh 0.9;
#X obj 1666 365 t b a;
#X obj 1669 -3 hsl 128 20 0 255 0 0 empty empty empty -2 -8 0 10 -262144
-1 -1 2640 1;
#X obj 1666 22 list-round;
#X msg 1748 272 loadbang;
#X obj 1748 303 bng 15 250 50 0 empty empty empty 17 7 0 10 -262144
-1 -1;
#X floatatom 1486 53 5 0 255 0 - - -;
#X obj 1486 83 spell;
#X obj 1486 145 prepend set;
#X msg 1486 210 57 55;
#X obj 1486 303 prepend;
#X obj 1486 334 prepend set;
#X obj 1486 176 t b a;
#X obj 1486 241 t b a;
#X msg 1486 400 57 55 32;
#X obj 1486 114 thresh 0.9;
#X msg 1486 272 32;
#X obj 1486 365 t b a;
#X obj 1489 -3 hsl 128 20 0 255 0 0 empty empty empty -2 -8 0 10 -262144
-1 -1 4831 1;
#X obj 1486 22 list-round;
#X msg 1568 272 loadbang;
#X obj 1568 303 bng 15 250 50 0 empty empty empty 17 7 0 10 -262144
-1 -1;
#X floatatom 1306 53 5 0 255 0 - - -;
#X obj 1306 83 spell;
#X obj 1306 145 prepend set;
#X msg 1306 210 57 57;
#X obj 1306 303 prepend;
#X obj 1306 334 prepend set;
#X obj 1306 176 t b a;
#X obj 1306 241 t b a;
#X msg 1306 400 57 57 32;
#X obj 1306 114 thresh 0.9;
#X msg 1306 272 32;
#X obj 1306 365 t b a;
#X obj 1309 -3 hsl 128 20 0 255 0 0 empty empty empty -2 -8 0 10 -262144
-1 -1 4931 1;
#X obj 1306 22 list-round;
#X msg 1388 272 loadbang;
#X obj 1388 303 bng 15 250 50 0 empty empty empty 17 7 0 10 -262144
-1 -1;
#X floatatom 1126 53 5 0 255 0 - - -;
#X obj 1126 83 spell;
#X obj 1126 145 prepend set;
#X msg 1126 210 52 49;
#X obj 1126 303 prepend;
#X obj 1126 334 prepend set;
#X obj 1126 176 t b a;
#X obj 1126 241 t b a;
#X msg 1126 400 52 49 32;
#X obj 1126 114 thresh 0.9;
#X msg 1126 272 32;
#X obj 1126 365 t b a;
#X obj 1129 -3 hsl 128 20 0 255 0 0 empty empty empty -2 -8 0 10 -262144
-1 -1 2042 1;
#X obj 1126 22 list-round;
#X msg 1208 272 loadbang;
#X obj 1208 303 bng 15 250 50 0 empty empty empty 17 7 0 10 -262144
-1 -1;
#X msg 1666 272 10;
#X obj 406 521 zl join;
#X obj 406 551 zl join;
#X obj 406 581 zl join;
#X obj 406 611 zl join;
#X obj 11 247 unpack 0 0 0 0 0 0 0 0;
#X obj 135 385 s feedback1;
#X obj 166 412 s feedback2;
#X obj 197 440 s feedback3;
#X obj 228 468 s feedback4;
#X obj 189 628 hsl 128 15 0 255 0 0 empty empty empty -2 -8 0 10 -262144
-1 -1 6275 1;
#X obj 199 648 hsl 128 15 0 255 0 0 empty empty empty -2 -8 0 10 -262144
-1 -1 10011 1;
#X obj 209 668 hsl 128 15 0 255 0 0 empty empty empty -2 -8 0 10 -262144
-1 -1 2640 1;
#X obj 219 688 hsl 128 15 0 255 0 0 empty empty empty -2 -8 0 10 -262144
-1 -1 4482 1;
#X obj 186 504 r feedback1;
#X obj 196 534 r feedback2;
#X obj 206 564 r feedback3;
#X obj 216 593 r feedback4;
#X text 1186 -30 feedback #1;
#X text 1365 -30 feedback #2;
#X text 1545 -30 feedback #3;
#X text 1725 -30 feedback #4;
#X obj 1185 -59 r output1;
#X obj 1365 -61 r output2;
#X obj 1545 -61 r output3;
#X obj 1725 -61 r output4;
#X obj 11 219 repack 8;
#X obj 315 44 metro 13;
#X floatatom 44 413 5 0 0 0 - - -;
#X connect 0 0 213 0;
#X connect 1 0 0 0;
#X connect 2 0 0 0;
#X connect 3 0 4 0;
#X connect 4 0 0 0;
#X connect 9 0 13 0;
#X connect 10 0 14 0;
#X connect 11 0 15 0;
#X connect 12 0 16 0;
#X connect 22 0 214 0;
#X connect 23 0 56 0;
#X connect 24 0 27 0;
#X connect 24 0 34 0;
#X connect 24 0 35 0;
#X connect 24 0 36 0;
#X connect 25 0 26 0;
#X connect 26 0 107 0;
#X connect 27 0 25 0;
#X connect 28 0 29 0;
#X connect 29 0 91 0;
#X connect 30 0 31 0;
#X connect 31 0 75 0;
#X connect 32 0 33 0;
#X connect 33 0 54 0;
#X connect 34 0 28 0;
#X connect 35 0 30 0;
#X connect 36 0 32 0;
#X connect 42 0 43 0;
#X connect 43 0 51 0;
#X connect 44 0 48 0;
#X connect 45 0 49 0;
#X connect 46 0 47 0;
#X connect 47 0 53 0;
#X connect 48 0 45 0;
#X connect 48 1 45 0;
#X connect 49 0 52 0;
#X connect 49 1 46 1;
#X connect 50 0 60 1;
#X connect 51 0 44 0;
#X connect 52 0 46 0;
#X connect 53 0 50 0;
#X connect 53 0 60 0;
#X connect 53 1 50 0;
#X connect 54 0 55 0;
#X connect 55 0 42 0;
#X connect 56 0 0 0;
#X connect 57 0 56 0;
#X connect 58 0 59 0;
#X connect 59 0 60 0;
#X connect 60 0 188 0;
#X connect 61 0 62 0;
#X connect 62 0 53 0;
#X connect 63 0 64 0;
#X connect 64 0 72 0;
#X connect 65 0 69 0;
#X connect 66 0 70 0;
#X connect 67 0 68 0;
#X connect 68 0 74 0;
#X connect 69 0 66 0;
#X connect 69 1 66 0;
#X connect 70 0 73 0;
#X connect 70 1 67 1;
#X connect 71 0 59 1;
#X connect 72 0 65 0;
#X connect 73 0 67 0;
#X connect 74 0 71 0;
#X connect 74 0 59 0;
#X connect 74 1 71 0;
#X connect 75 0 76 0;
#X connect 76 0 63 0;
#X connect 77 0 78 0;
#X connect 78 0 74 0;
#X connect 79 0 80 0;
#X connect 80 0 88 0;
#X connect 81 0 85 0;
#X connect 82 0 86 0;
#X connect 83 0 84 0;
#X connect 84 0 90 0;
#X connect 85 0 82 0;
#X connect 85 1 82 0;
#X connect 86 0 89 0;
#X connect 86 1 83 1;
#X connect 87 0 58 1;
#X connect 88 0 81 0;
#X connect 89 0 83 0;
#X connect 90 0 87 0;
#X connect 90 0 58 0;
#X connect 90 1 87 0;
#X connect 91 0 92 0;
#X connect 92 0 79 0;
#X connect 93 0 94 0;
#X connect 94 0 90 0;
#X connect 95 0 96 0;
#X connect 96 0 104 0;
#X connect 97 0 101 0;
#X connect 98 0 102 0;
#X connect 99 0 100 0;
#X connect 100 0 106 0;
#X connect 101 0 98 0;
#X connect 101 1 98 0;
#X connect 102 0 105 0;
#X connect 102 1 99 1;
#X connect 103 0 58 0;
#X connect 104 0 97 0;
#X connect 105 0 99 0;
#X connect 106 0 103 0;
#X connect 106 1 103 0;
#X connect 107 0 108 0;
#X connect 108 0 95 0;
#X connect 109 0 110 0;
#X connect 110 0 106 0;
#X connect 111 0 114 0;
#X connect 111 0 121 0;
#X connect 111 0 122 0;
#X connect 111 0 123 0;
#X connect 112 0 113 0;
#X connect 113 0 183 0;
#X connect 114 0 112 0;
#X connect 115 0 116 0;
#X connect 116 0 167 0;
#X connect 117 0 118 0;
#X connect 118 0 151 0;
#X connect 119 0 120 0;
#X connect 120 0 135 0;
#X connect 121 0 115 0;
#X connect 122 0 117 0;
#X connect 123 0 119 0;
#X connect 124 0 125 0;
#X connect 125 0 133 0;
#X connect 126 0 130 0;
#X connect 127 0 131 0;
#X connect 128 0 129 0;
#X connect 129 0 134 0;
#X connect 130 0 127 0;
#X connect 130 1 127 0;
#X connect 131 0 187 0;
#X connect 131 1 128 1;
#X connect 132 0 191 1;
#X connect 133 0 126 0;
#X connect 134 0 132 0;
#X connect 134 0 191 0;
#X connect 134 1 132 0;
#X connect 135 0 136 0;
#X connect 136 0 124 0;
#X connect 137 0 138 0;
#X connect 138 0 134 0;
#X connect 139 0 140 0;
#X connect 140 0 148 0;
#X connect 141 0 145 0;
#X connect 142 0 146 0;
#X connect 143 0 144 0;
#X connect 144 0 150 0;
#X connect 145 0 142 0;
#X connect 145 1 142 0;
#X connect 146 0 149 0;
#X connect 146 1 143 1;
#X connect 147 0 190 1;
#X connect 148 0 141 0;
#X connect 149 0 143 0;
#X connect 150 0 147 0;
#X connect 150 0 190 0;
#X connect 150 1 147 0;
#X connect 151 0 152 0;
#X connect 152 0 139 0;
#X connect 153 0 154 0;
#X connect 154 0 150 0;
#X connect 155 0 156 0;
#X connect 156 0 164 0;
#X connect 157 0 161 0;
#X connect 158 0 162 0;
#X connect 159 0 160 0;
#X connect 160 0 166 0;
#X connect 161 0 158 0;
#X connect 161 1 158 0;
#X connect 162 0 165 0;
#X connect 162 1 159 1;
#X connect 163 0 189 1;
#X connect 164 0 157 0;
#X connect 165 0 159 0;
#X connect 166 0 163 0;
#X connect 166 0 189 0;
#X connect 166 1 163 0;
#X connect 167 0 168 0;
#X connect 168 0 155 0;
#X connect 169 0 170 0;
#X connect 170 0 166 0;
#X connect 171 0 172 0;
#X connect 172 0 180 0;
#X connect 173 0 177 0;
#X connect 174 0 178 0;
#X connect 175 0 176 0;
#X connect 176 0 182 0;
#X connect 177 0 174 0;
#X connect 177 1 174 0;
#X connect 178 0 181 0;
#X connect 178 1 175 1;
#X connect 179 0 188 1;
#X connect 180 0 173 0;
#X connect 181 0 175 0;
#X connect 182 0 179 0;
#X connect 182 0 188 0;
#X connect 182 1 179 0;
#X connect 183 0 184 0;
#X connect 184 0 171 0;
#X connect 185 0 186 0;
#X connect 186 0 182 0;
#X connect 187 0 128 0;
#X connect 188 0 189 0;
#X connect 189 0 190 0;
#X connect 190 0 191 0;
#X connect 191 0 57 0;
#X connect 192 0 5 0;
#X connect 192 1 6 0;
#X connect 192 2 8 0;
#X connect 192 3 7 0;
#X connect 192 4 193 0;
#X connect 192 5 194 0;
#X connect 192 6 195 0;
#X connect 192 7 196 0;
#X connect 201 0 197 0;
#X connect 202 0 198 0;
#X connect 203 0 199 0;
#X connect 204 0 200 0;
#X connect 209 0 113 0;
#X connect 210 0 116 0;
#X connect 211 0 118 0;
#X connect 212 0 120 0;
#X connect 213 0 192 0;
#X connect 214 0 23 0;
