#N canvas 666 41 409 525 16;
#X msg 22 67 devices;
#X msg 52 147 close;
#X obj 22 179 comport 9600;
#X floatatom 33 94 5 0 0 0 - - -;
#X msg 33 120 open \$1;
#X text 180 65 find Arduino board;
#X text 180 145 close serial buffer;
#X text 180 93 define board number;
#X text 180 117 open defined board;
#X floatatom 22 259 5 0 0 0 - - -;
#X floatatom 67 286 5 0 0 0 - - -;
#X floatatom 113 312 5 0 0 0 - - -;
#X floatatom 159 339 5 0 0 0 - - -;
#X obj 22 375 vsl 15 128 0 255 0 0 empty empty empty 0 -9 0 10 -262144
-1 -1 0 1;
#X obj 67 375 vsl 15 128 0 255 0 0 empty empty empty 0 -9 0 10 -262144
-1 -1 0 1;
#X obj 113 375 vsl 15 128 0 255 0 0 empty empty empty 0 -9 0 10 -262144
-1 -1 0 1;
#X obj 159 375 vsl 15 128 0 255 0 0 empty empty empty 0 -9 0 10 -262144
-1 -1 0 1;
#X obj 22 232 unpack 0 0 0 0;
#X obj 22 206 repack 4;
#X text 49 7 arduivis - model #4 - multipleOutputs;
#X text 180 203 repack message to parse;
#X text 180 229 unpack message;
#X text 12 31 sketch: arduivis_PD_model4_multipleoutputs.ino;
#X connect 0 0 2 0;
#X connect 1 0 2 0;
#X connect 2 0 18 0;
#X connect 3 0 4 0;
#X connect 4 0 2 0;
#X connect 9 0 13 0;
#X connect 10 0 14 0;
#X connect 11 0 15 0;
#X connect 12 0 16 0;
#X connect 17 0 9 0;
#X connect 17 1 10 0;
#X connect 17 2 11 0;
#X connect 17 3 12 0;
#X connect 18 0 17 0;
