#N canvas 460 22 453 692 16;
#X floatatom 17 57 5 0 255 0 - - -;
#X obj 17 87 spell;
#X obj 17 149 prepend set;
#X msg 17 214 48;
#X obj 17 307 prepend;
#X obj 17 338 prepend set;
#X obj 17 180 t b a;
#X obj 17 245 t b a;
#X msg 17 404 48 32;
#X obj 17 118 thresh 0.9;
#X msg 17 276 32;
#X obj 17 369 t b a;
#X obj 20 1 hsl 128 20 0 255 0 0 empty empty empty -2 -8 0 10 -262144
-1 -1 0 1;
#X obj 17 26 list-round;
#X text 154 -3 data to Arduino;
#X text 153 54 round float to int;
#X text 153 274 add ASCII stop byte;
#X text 153 85 convert to ASCII;
#X text 153 115 combine fast numbers;
#X text 153 210 data from slider;
#X text 153 403 finished message;
#X obj -79 1 tgl 50 0 empty empty empty 17 7 0 10 -262144 -1 -1 0 1
;
#X obj -79 287 bng 15 250 50 0 empty empty empty 17 7 0 10 -262144
-1 -1;
#X obj -79 246 metro 50;
#X text -74 13 poll;
#X obj -68 214 s metro;
#X msg -117 -111 devices;
#X msg -87 -31 close;
#X floatatom -117 468 5 0 0 0 - - -;
#X obj -117 441 comport 9600;
#X floatatom -106 -84 5 0 0 0 - - -;
#X msg -106 -58 open \$1;
#X text -19 -113 find Arduino board;
#X text -19 -33 close serial buffer;
#X text -19 -85 define board number;
#X text -19 -61 open defined board;
#X text -15 -168 arduivis - model #3 - feedback;
#X obj -114 495 hsl 128 15 0 255 0 0 empty empty empty -2 -8 0 10 -262144
-1 -1 0 1;
#X text -62 468 raw data from Arduino;
#X text 35 490 data visualization;
#X text -53 -148 sketch: arduivis_PD_model3_feedback.ino;
#X connect 0 0 1 0;
#X connect 1 0 9 0;
#X connect 2 0 6 0;
#X connect 3 0 7 0;
#X connect 4 0 5 0;
#X connect 5 0 11 0;
#X connect 6 0 3 0;
#X connect 6 1 3 0;
#X connect 7 0 10 0;
#X connect 7 1 4 1;
#X connect 8 0 29 0;
#X connect 9 0 2 0;
#X connect 10 0 4 0;
#X connect 11 0 8 0;
#X connect 11 1 8 0;
#X connect 12 0 13 0;
#X connect 13 0 0 0;
#X connect 21 0 23 0;
#X connect 21 0 25 0;
#X connect 22 0 8 0;
#X connect 23 0 22 0;
#X connect 26 0 29 0;
#X connect 27 0 29 0;
#X connect 28 0 37 0;
#X connect 29 0 28 0;
#X connect 30 0 31 0;
#X connect 31 0 29 0;
