#N canvas 460 22 481 809 16;
#X floatatom 27 57 5 0 255 0 - - -;
#X obj 27 87 spell;
#X obj 27 149 prepend set;
#X msg 27 214 53 54;
#X obj 27 307 prepend;
#X obj 27 338 prepend set;
#X obj 27 180 t b a;
#X obj 27 245 t b a;
#X msg 27 404 53 54 32;
#X obj 27 118 thresh 0.9;
#X msg 27 276 32;
#X obj 27 369 t b a;
#X obj 30 1 hsl 128 20 0 255 0 0 empty empty empty -2 -8 0 10 -262144
-1 -1 2800 1;
#X obj 27 26 list-round;
#X obj -69 1 tgl 50 0 empty empty empty 17 7 0 10 -262144 -1 -1 0 1
;
#X obj -69 287 bng 15 250 50 0 empty empty empty 17 7 0 10 -262144
-1 -1;
#X obj -69 246 metro 50;
#X text -64 13 poll;
#X obj -58 214 s metro;
#X msg -107 -111 devices;
#X msg -77 -31 close;
#X floatatom -107 557 5 0 0 0 - - -;
#X obj -107 530 comport 9600;
#X floatatom -96 -84 5 0 0 0 - - -;
#X msg -96 -58 open \$1;
#X text -9 -113 find Arduino board;
#X text -9 -33 close serial buffer;
#X text -9 -85 define board number;
#X text -9 -61 open defined board;
#X text -5 -168 arduivis - model #3 - feedback;
#X obj -104 584 hsl 128 15 0 255 0 0 empty empty empty -2 -8 0 10 -262144
-1 -1 0 1;
#X text -52 557 raw data from Arduino;
#X text 45 579 data visualization;
#X text -43 -148 sketch: arduivis_PD_model3_feedback.ino;
#X obj -107 608 s output;
#X floatatom 177 57 5 0 255 0 - - -;
#X obj 177 87 spell;
#X obj 177 149 prepend set;
#X msg 177 214 53 56;
#X obj 177 307 prepend;
#X obj 177 338 prepend set;
#X obj 177 180 t b a;
#X obj 177 245 t b a;
#X msg 177 404 53 56 10;
#X obj 177 118 thresh 0.9;
#X obj 177 369 t b a;
#X obj 180 1 hsl 128 20 0 255 0 0 empty empty empty -2 -8 0 10 -262144
-1 -1 2900 1;
#X obj 177 26 list-round;
#X msg 177 276 10;
#X obj 27 438 zl join;
#X obj 123 411 bng 15 250 50 0 empty empty empty 17 7 0 10 -262144
-1 -1;
#X msg 27 495 53 54 32 53 56 10;
#X obj 27 466 prepend set;
#X obj 177 -28 r output;
#X connect 0 0 1 0;
#X connect 1 0 9 0;
#X connect 2 0 6 0;
#X connect 3 0 7 0;
#X connect 4 0 5 0;
#X connect 5 0 11 0;
#X connect 6 0 3 0;
#X connect 6 1 3 0;
#X connect 7 0 10 0;
#X connect 7 1 4 1;
#X connect 8 0 49 0;
#X connect 9 0 2 0;
#X connect 10 0 4 0;
#X connect 11 0 8 0;
#X connect 11 1 8 0;
#X connect 12 0 13 0;
#X connect 13 0 0 0;
#X connect 14 0 16 0;
#X connect 14 0 18 0;
#X connect 15 0 51 0;
#X connect 16 0 15 0;
#X connect 19 0 22 0;
#X connect 20 0 22 0;
#X connect 21 0 30 0;
#X connect 22 0 21 0;
#X connect 23 0 24 0;
#X connect 24 0 22 0;
#X connect 30 0 34 0;
#X connect 35 0 36 0;
#X connect 36 0 44 0;
#X connect 37 0 41 0;
#X connect 38 0 42 0;
#X connect 39 0 40 0;
#X connect 40 0 45 0;
#X connect 41 0 38 0;
#X connect 41 1 38 0;
#X connect 42 0 48 0;
#X connect 42 1 39 1;
#X connect 43 0 49 1;
#X connect 44 0 37 0;
#X connect 45 0 43 0;
#X connect 45 0 50 0;
#X connect 45 1 43 0;
#X connect 46 0 47 0;
#X connect 47 0 35 0;
#X connect 48 0 39 0;
#X connect 49 0 52 0;
#X connect 50 0 49 0;
#X connect 51 0 22 0;
#X connect 52 0 51 0;
#X connect 53 0 46 0;
