#N canvas 460 22 431 856 16;
#X floatatom -18 57 5 0 255 0 - - -;
#X obj -18 87 spell;
#X obj -18 149 prepend set;
#X msg -18 214 49 53 53;
#X obj -18 307 prepend;
#X obj -18 338 prepend set;
#X obj -18 180 t b a;
#X obj -18 245 t b a;
#X msg -18 404 49 53 53 32;
#X obj -18 118 thresh 0.9;
#X msg -18 276 32;
#X obj -18 369 t b a;
#X obj -15 1 hsl 128 20 0 255 0 0 empty empty empty -2 -8 0 10 -262144
-1 -1 7700 1;
#X obj -18 26 list-round;
#X obj -114 1 tgl 50 0 empty empty empty 17 7 0 10 -262144 -1 -1 1
1;
#X obj -114 287 bng 15 250 50 0 empty empty empty 17 7 0 10 -262144
-1 -1;
#X obj -114 246 metro 50;
#X text -109 13 poll;
#X obj -103 214 s metro;
#X msg -152 -111 devices;
#X msg -122 -31 close;
#X obj -152 530 comport 9600;
#X floatatom -141 -84 5 0 0 0 - - -;
#X msg -141 -58 open \$1;
#X text -54 -113 find Arduino board;
#X text -54 -33 close serial buffer;
#X text -54 -85 define board number;
#X text -54 -61 open defined board;
#X text -50 -168 arduivis - model #3 - feedback;
#X text 36 613 raw data from Arduino;
#X text 37 637 data visualization;
#X text -88 -148 sketch: arduivis_PD_model3_feedback.ino;
#X floatatom 132 57 5 0 255 0 - - -;
#X obj 132 87 spell;
#X obj 132 149 prepend set;
#X msg 132 214 49 53 53;
#X obj 132 307 prepend;
#X obj 132 338 prepend set;
#X obj 132 180 t b a;
#X obj 132 245 t b a;
#X msg 132 404 49 53 53 10;
#X obj 132 118 thresh 0.9;
#X obj 132 369 t b a;
#X obj 135 1 hsl 128 20 0 255 0 0 empty empty empty -2 -8 0 10 -262144
-1 -1 7719 1;
#X obj 132 26 list-round;
#X msg 132 276 10;
#X obj -18 438 zl join;
#X obj 78 411 bng 15 250 50 0 empty empty empty 17 7 0 10 -262144 -1
-1;
#X msg -18 495 49 53 53 32 49 53 53 10;
#X obj -18 466 prepend set;
#X obj 132 -28 r output;
#X floatatom -152 616 5 0 0 0 - - -;
#X floatatom -55 616 5 0 0 0 - - -;
#X obj -52 643 hsl 64 15 0 255 0 0 empty empty empty -2 -8 0 10 -262144
-1 -1 3829 1;
#X obj -149 643 hsl 64 15 0 255 0 0 empty empty empty -2 -8 0 10 -262144
-1 -1 3829 1;
#X obj -152 664 s output;
#X text 36 561 parse printed messages;
#X text 36 587 unpack messages;
#X text 36 530 serial buffer;
#X obj -152 559 repack 2;
#X obj -152 588 unpack 0 0;
#X connect 0 0 1 0;
#X connect 1 0 9 0;
#X connect 2 0 6 0;
#X connect 3 0 7 0;
#X connect 4 0 5 0;
#X connect 5 0 11 0;
#X connect 6 0 3 0;
#X connect 6 1 3 0;
#X connect 7 0 10 0;
#X connect 7 1 4 1;
#X connect 8 0 46 0;
#X connect 9 0 2 0;
#X connect 10 0 4 0;
#X connect 11 0 8 0;
#X connect 11 1 8 0;
#X connect 12 0 13 0;
#X connect 13 0 0 0;
#X connect 14 0 16 0;
#X connect 14 0 18 0;
#X connect 15 0 48 0;
#X connect 16 0 15 0;
#X connect 19 0 21 0;
#X connect 20 0 21 0;
#X connect 21 0 59 0;
#X connect 22 0 23 0;
#X connect 23 0 21 0;
#X connect 32 0 33 0;
#X connect 33 0 41 0;
#X connect 34 0 38 0;
#X connect 35 0 39 0;
#X connect 36 0 37 0;
#X connect 37 0 42 0;
#X connect 38 0 35 0;
#X connect 38 1 35 0;
#X connect 39 0 45 0;
#X connect 39 1 36 1;
#X connect 40 0 46 1;
#X connect 41 0 34 0;
#X connect 42 0 40 0;
#X connect 42 0 47 0;
#X connect 42 1 40 0;
#X connect 43 0 44 0;
#X connect 44 0 32 0;
#X connect 45 0 36 0;
#X connect 46 0 49 0;
#X connect 47 0 46 0;
#X connect 48 0 21 0;
#X connect 49 0 48 0;
#X connect 50 0 43 0;
#X connect 51 0 54 0;
#X connect 52 0 53 0;
#X connect 54 0 55 0;
#X connect 59 0 60 0;
#X connect 60 0 51 0;
#X connect 60 1 52 0;
