#N canvas 641 22 485 698 10;
#X obj 188 305 comport 9600;
#X msg 294 167 devices;
#X msg 294 240 close;
#X floatatom 294 194 5 0 0 0 - - -;
#X msg 294 213 open \$1;
#X text 349 167 find Arduino board;
#X text 350 240 close serial port;
#X text 350 202 open serial port;
#X text 312 149 1;
#X floatatom 182 -4 5 0 0 0 - - -;
#X obj 185 -47 hsl 128 20 0 255 0 0 empty empty empty -2 -8 0 10 -262144
-1 -1 7600 1;
#X obj 182 -24 list-round;
#X floatatom 211 78 5 0 0 0 - - -;
#X obj 214 35 hsl 128 20 0 255 0 0 empty empty empty -2 -8 0 10 -262144
-1 -1 7620 1;
#X obj 211 58 list-round;
#X obj 188 157 spell;
#X obj 188 237 prepend set;
#X obj 188 257 t b a;
#X obj 188 217 iem_append 10;
#X obj 154 -120 tgl 50 0 empty empty empty 17 7 0 10 -262144 -1 -1
1 1;
#X obj 154 -47 bng 15 250 50 0 empty empty empty 17 7 0 10 -262144
-1 -1;
#X text 157 -121 2;
#X obj 188 177 thresh 0.047;
#X obj 188 197 speedlim 0.047;
#X obj 154 -67 metro 50;
#X obj 154 97 pack 0 0 0;
#X obj 154 117 unpack 0 0 0;
#X obj 188 137 pack 0 0;
#X msg 188 280 49 53 51 32 49 53 51 10;
#X obj 188 325 sel 13 10;
#X obj 188 372 iem_anything;
#X obj 188 392 iem_alisttosym;
#X obj 188 412 fromsymbol;
#X floatatom 188 458 5 0 0 0 - - -;
#X floatatom 245 457 5 0 0 0 - - -;
#X obj 188 352 zl group 1000;
#X obj 188 433 unpack 0 0;
#X obj 188 482 s output-to-feedbackSlider;
#X obj 211 15 r output-to-feedbackSlider;
#X text 165 -110 poll clock;
#X text 254 -173 arduivis - model #3 - feedback;
#X text 227 -153 sketch: arduivis_PD_model3_feedback.ino;
#X text 17 11 slider data to Arduino;
#X text 17 32 round slider floats;
#X text 17 200 convert to ASCII;
#X text 17 220 combine into list;
#X text 17 322 poll slider data;
#X text 17 348 serial port;
#X text 17 368 route & trigger;
#X text 17 405 group into 1 message;
#X text 17 435 convert ASCII to int;
#X text 18 455 convert symbol;
#X text 17 159 unpack data;
#X text 17 140 pack data;
#X text 17 179 repack data;
#X text 17 240 slow down data;
#X text 17 261 append newline;
#X text 17 280 set message for polling;
#X text 18 475 unpack slider data;
#X connect 0 0 29 0;
#X connect 1 0 0 0;
#X connect 2 0 0 0;
#X connect 3 0 4 0;
#X connect 4 0 0 0;
#X connect 9 0 25 1;
#X connect 10 0 11 0;
#X connect 11 0 9 0;
#X connect 12 0 25 2;
#X connect 13 0 14 0;
#X connect 14 0 12 0;
#X connect 15 0 22 0;
#X connect 16 0 17 0;
#X connect 17 0 28 0;
#X connect 17 1 28 0;
#X connect 18 0 16 0;
#X connect 19 0 24 0;
#X connect 20 0 25 0;
#X connect 20 0 28 0;
#X connect 22 0 23 0;
#X connect 23 0 18 0;
#X connect 24 0 20 0;
#X connect 25 0 26 0;
#X connect 26 1 27 0;
#X connect 26 2 27 1;
#X connect 27 0 15 0;
#X connect 28 0 0 0;
#X connect 29 0 35 0;
#X connect 29 2 35 0;
#X connect 30 0 31 0;
#X connect 31 0 32 0;
#X connect 32 0 36 0;
#X connect 33 0 37 0;
#X connect 35 0 30 0;
#X connect 36 0 33 0;
#X connect 36 1 34 0;
#X connect 38 0 13 0;
