#N canvas 4 22 203 575 10;
#X msg 8 -165 devices;
#X msg 125 -165 open 7;
#X floatatom 27 115 5 0 255 0 - - -;
#X obj 27 135 spell;
#X obj 27 177 prepend set;
#X msg 27 222 49 54 51;
#X obj 27 285 prepend;
#X obj 27 306 prepend set;
#X obj 27 198 t b a;
#X obj 27 243 t b a;
#X msg 27 352 49 54 51 32;
#X obj 27 156 thresh 0.9;
#X msg 27 264 32;
#X obj 8 35 tgl 15 0 empty empty empty 17 7 0 10 -262144 -1 -1 1 1
;
#X obj 8 75 bng 15 250 50 0 empty empty empty 17 7 0 10 -262144 -1
-1;
#X obj 8 -17 comport 7 9600;
#X obj 27 327 t b a;
#X obj 8 54 metro 50;
#X obj 30 75 hsl 128 15 0 255 0 0 empty empty empty -2 -8 0 10 -262144
-1 -1 8100 1;
#X obj 27 94 list-round;
#X msg 125 -85 1;
#X obj 125 -125 delay 100;
#X obj 125 -104 bng 15 250 50 0 empty empty empty 17 7 0 10 -262144
-1 -1;
#X obj 125 -144 bng 15 250 50 0 empty empty empty 17 7 0 10 -262144
-1 -1;
#X obj 125 -64 s metro;
#X obj 63 -125 delay 100;
#X obj 63 -104 bng 15 250 50 0 empty empty empty 17 7 0 10 -262144
-1 -1;
#X obj 63 -144 bng 15 250 50 0 empty empty empty 17 7 0 10 -262144
-1 -1;
#X obj 63 -64 s metro;
#X msg 63 -165 close;
#X msg 63 -85 0;
#X obj 8 14 r metro;
#X obj 27 373 s ToArduino;
#X obj 63 -43 r ToArduino;
#X connect 0 0 15 0;
#X connect 1 0 15 0;
#X connect 1 0 23 0;
#X connect 2 0 3 0;
#X connect 3 0 11 0;
#X connect 4 0 8 0;
#X connect 5 0 9 0;
#X connect 6 0 7 0;
#X connect 7 0 16 0;
#X connect 8 0 5 0;
#X connect 8 1 5 0;
#X connect 9 0 12 0;
#X connect 9 1 6 1;
#X connect 10 0 32 0;
#X connect 11 0 4 0;
#X connect 12 0 6 0;
#X connect 13 0 17 0;
#X connect 14 0 10 0;
#X connect 16 0 10 0;
#X connect 16 1 10 0;
#X connect 17 0 14 0;
#X connect 18 0 19 0;
#X connect 19 0 2 0;
#X connect 20 0 24 0;
#X connect 21 0 22 0;
#X connect 22 0 20 0;
#X connect 23 0 21 0;
#X connect 25 0 26 0;
#X connect 26 0 30 0;
#X connect 27 0 25 0;
#X connect 29 0 27 0;
#X connect 29 0 15 0;
#X connect 30 0 28 0;
#X connect 31 0 13 0;
#X connect 33 0 15 0;
