#N canvas 4 22 359 412 10;
#X msg 8 -159 devices;
#X msg 125 -159 open 7;
#X floatatom 209 -58 5 0 255 0 - - -;
#X obj 209 -38 spell;
#X obj 209 4 prepend set;
#X msg 209 49 48;
#X obj 209 112 prepend;
#X obj 209 133 prepend set;
#X obj 209 25 t b a;
#X obj 209 70 t b a;
#X msg 209 179 48 32;
#X obj 209 -17 thresh 0.9;
#X msg 209 91 32;
#X obj 190 -138 tgl 15 0 empty empty empty 17 7 0 10 -262144 -1 -1
1 1;
#X obj 190 -98 bng 15 250 50 0 empty empty empty 17 7 0 10 -262144
-1 -1;
#X obj 8 209 comport 7 9600;
#X obj 209 154 t b a;
#X obj 190 -119 metro 50;
#X obj 212 -98 hsl 128 15 0 255 0 0 empty empty empty -2 -8 0 10 -262144
-1 -1 0 1;
#X obj 209 -79 list-round;
#X msg 125 -79 1;
#X obj 125 -119 delay 100;
#X obj 125 -98 bng 15 250 50 0 empty empty empty 17 7 0 10 -262144
-1 -1;
#X obj 125 -138 bng 15 250 50 0 empty empty empty 17 7 0 10 -262144
-1 -1;
#X obj 125 -58 s metro;
#X obj 63 -119 delay 100;
#X obj 63 -98 bng 15 250 50 0 empty empty empty 17 7 0 10 -262144 -1
-1;
#X obj 63 -138 bng 15 250 50 0 empty empty empty 17 7 0 10 -262144
-1 -1;
#X obj 63 -58 s metro;
#X msg 63 -159 close;
#X msg 63 -79 0;
#X obj 190 -159 r metro;
#X connect 0 0 15 0;
#X connect 1 0 15 0;
#X connect 1 0 23 0;
#X connect 2 0 3 0;
#X connect 3 0 11 0;
#X connect 4 0 8 0;
#X connect 5 0 9 0;
#X connect 6 0 7 0;
#X connect 7 0 16 0;
#X connect 8 0 5 0;
#X connect 8 1 5 0;
#X connect 9 0 12 0;
#X connect 9 1 6 1;
#X connect 10 0 15 0;
#X connect 11 0 4 0;
#X connect 12 0 6 0;
#X connect 13 0 17 0;
#X connect 14 0 10 0;
#X connect 16 0 10 0;
#X connect 16 1 10 0;
#X connect 17 0 14 0;
#X connect 18 0 19 0;
#X connect 19 0 2 0;
#X connect 20 0 24 0;
#X connect 21 0 22 0;
#X connect 22 0 20 0;
#X connect 23 0 21 0;
#X connect 25 0 26 0;
#X connect 26 0 30 0;
#X connect 27 0 25 0;
#X connect 29 0 27 0;
#X connect 29 0 15 0;
#X connect 30 0 28 0;
#X connect 31 0 13 0;
