{
	"patcher" : 	{
		"fileversion" : 1,
		"appversion" : 		{
			"major" : 7,
			"minor" : 2,
			"revision" : 3,
			"architecture" : "x86",
			"modernui" : 1
		}
,
		"rect" : [ 91.0, 79.0, 1287.0, 787.0 ],
		"bglocked" : 0,
		"openinpresentation" : 0,
		"default_fontsize" : 12.0,
		"default_fontface" : 0,
		"default_fontname" : "Arial",
		"gridonopen" : 1,
		"gridsize" : [ 15.0, 15.0 ],
		"gridsnaponopen" : 1,
		"objectsnaponopen" : 1,
		"statusbarvisible" : 2,
		"toolbarvisible" : 1,
		"lefttoolbarpinned" : 0,
		"toptoolbarpinned" : 0,
		"righttoolbarpinned" : 0,
		"bottomtoolbarpinned" : 0,
		"toolbars_unpinned_last_save" : 0,
		"tallnewobj" : 0,
		"boxanimatetime" : 200,
		"enablehscroll" : 1,
		"enablevscroll" : 1,
		"devicewidth" : 0.0,
		"description" : "",
		"digest" : "",
		"tags" : "",
		"style" : "",
		"subpatcher_template" : "",
		"boxes" : [ 			{
				"box" : 				{
					"fontname" : "Avenir Book",
					"fontsize" : 14.0,
					"id" : "obj-122",
					"maxclass" : "comment",
					"numinlets" : 1,
					"numoutlets" : 0,
					"patching_rect" : [ 137.5, 578.833313, 21.0, 26.0 ],
					"style" : "",
					"text" : "o",
					"textcolor" : [ 1.0, 1.0, 1.0, 1.0 ],
					"textjustification" : 1
				}

			}
, 			{
				"box" : 				{
					"fontname" : "Avenir Book",
					"fontsize" : 12.0,
					"id" : "obj-121",
					"maxclass" : "comment",
					"numinlets" : 1,
					"numoutlets" : 0,
					"patching_rect" : [ 83.0, 582.5, 19.0, 23.0 ],
					"style" : "",
					"text" : "i",
					"textcolor" : [ 1.0, 1.0, 1.0, 1.0 ],
					"textjustification" : 1
				}

			}
, 			{
				"box" : 				{
					"fontname" : "Avenir Book",
					"fontsize" : 14.0,
					"id" : "obj-447",
					"linecount" : 3,
					"maxclass" : "comment",
					"numinlets" : 1,
					"numoutlets" : 0,
					"patching_rect" : [ 192.5, 602.333313, 70.0, 64.0 ],
					"style" : "",
					"text" : "open\narduino\ncode",
					"textcolor" : [ 1.0, 1.0, 1.0, 1.0 ],
					"textjustification" : 1
				}

			}
, 			{
				"box" : 				{
					"fontname" : "Avenir Book",
					"fontsize" : 14.0,
					"id" : "obj-216",
					"linecount" : 3,
					"maxclass" : "comment",
					"numinlets" : 1,
					"numoutlets" : 0,
					"patching_rect" : [ 263.5, 602.333313, 70.0, 64.0 ],
					"style" : "",
					"text" : "write\narduino\ncode",
					"textcolor" : [ 1.0, 1.0, 1.0, 1.0 ],
					"textjustification" : 1
				}

			}
, 			{
				"box" : 				{
					"fontname" : "Avenir Book",
					"fontsize" : 14.0,
					"id" : "obj-215",
					"linecount" : 2,
					"maxclass" : "comment",
					"numinlets" : 1,
					"numoutlets" : 0,
					"patching_rect" : [ 15.0, 611.833313, 70.0, 45.0 ],
					"style" : "",
					"text" : "create\ntemplate",
					"textcolor" : [ 1.0, 1.0, 1.0, 1.0 ],
					"textjustification" : 1
				}

			}
, 			{
				"box" : 				{
					"fontname" : "Avenir Book",
					"fontsize" : 24.0,
					"id" : "obj-112",
					"maxclass" : "comment",
					"numinlets" : 1,
					"numoutlets" : 0,
					"patching_rect" : [ 282.5, 734.0, 123.0, 39.0 ],
					"style" : "",
					"text" : "arduivisJS",
					"textjustification" : 1
				}

			}
, 			{
				"box" : 				{
					"fontname" : "Avenir Book",
					"fontsize" : 14.0,
					"id" : "obj-111",
					"linecount" : 2,
					"maxclass" : "comment",
					"numinlets" : 1,
					"numoutlets" : 0,
					"patching_rect" : [ 335.5, 610.5, 70.0, 45.0 ],
					"style" : "",
					"text" : "remove\narduivis",
					"textcolor" : [ 1.0, 1.0, 1.0, 1.0 ],
					"textjustification" : 1
				}

			}
, 			{
				"box" : 				{
					"handoff" : "",
					"id" : "obj-108",
					"maxclass" : "ubutton",
					"numinlets" : 1,
					"numoutlets" : 4,
					"outlettype" : [ "bang", "bang", "", "int" ],
					"patching_rect" : [ 263.5, 586.0, 70.5, 96.666656 ]
				}

			}
, 			{
				"box" : 				{
					"angle" : 270.0,
					"border" : 2,
					"bordercolor" : [ 0.0, 0.0, 0.0, 1.0 ],
					"grad1" : [ 0.093121, 0.536852, 0.511438, 1.0 ],
					"grad2" : [ 0.093121, 0.536852, 0.511438, 1.0 ],
					"id" : "obj-109",
					"maxclass" : "panel",
					"mode" : 1,
					"numinlets" : 1,
					"numoutlets" : 0,
					"patching_rect" : [ 263.5, 586.0, 70.5, 96.666656 ],
					"proportion" : 0.39,
					"style" : ""
				}

			}
, 			{
				"box" : 				{
					"handoff" : "",
					"id" : "obj-106",
					"maxclass" : "ubutton",
					"numinlets" : 1,
					"numoutlets" : 4,
					"outlettype" : [ "bang", "bang", "", "int" ],
					"patching_rect" : [ 191.5, 586.0, 70.5, 96.666656 ]
				}

			}
, 			{
				"box" : 				{
					"angle" : 270.0,
					"border" : 2,
					"bordercolor" : [ 0.0, 0.0, 0.0, 1.0 ],
					"grad1" : [ 0.093121, 0.536852, 0.511438, 1.0 ],
					"grad2" : [ 0.093121, 0.536852, 0.511438, 1.0 ],
					"id" : "obj-107",
					"maxclass" : "panel",
					"mode" : 1,
					"numinlets" : 1,
					"numoutlets" : 0,
					"patching_rect" : [ 191.5, 586.0, 70.5, 96.666656 ],
					"proportion" : 0.39,
					"style" : ""
				}

			}
, 			{
				"box" : 				{
					"handoff" : "",
					"id" : "obj-104",
					"maxclass" : "ubutton",
					"numinlets" : 1,
					"numoutlets" : 4,
					"outlettype" : [ "bang", "bang", "", "int" ],
					"patching_rect" : [ 335.5, 586.0, 70.5, 96.666656 ]
				}

			}
, 			{
				"box" : 				{
					"angle" : 270.0,
					"border" : 2,
					"bordercolor" : [ 0.0, 0.0, 0.0, 1.0 ],
					"grad1" : [ 0.093121, 0.536852, 0.511438, 1.0 ],
					"grad2" : [ 0.093121, 0.536852, 0.511438, 1.0 ],
					"id" : "obj-105",
					"maxclass" : "panel",
					"mode" : 1,
					"numinlets" : 1,
					"numoutlets" : 0,
					"patching_rect" : [ 335.5, 586.0, 70.5, 96.666656 ],
					"proportion" : 0.39,
					"style" : ""
				}

			}
, 			{
				"box" : 				{
					"handoff" : "",
					"id" : "obj-56",
					"maxclass" : "ubutton",
					"numinlets" : 1,
					"numoutlets" : 4,
					"outlettype" : [ "bang", "bang", "", "int" ],
					"patching_rect" : [ 15.0, 586.0, 70.5, 96.666656 ]
				}

			}
, 			{
				"box" : 				{
					"bgcolor" : [ 0.03511, 0.236951, 0.274191, 1.0 ],
					"bgcolor2" : [ 0.031373, 0.541176, 0.498039, 1.0 ],
					"bgfillcolor_angle" : 100.019699,
					"bgfillcolor_autogradient" : 0.0,
					"bgfillcolor_color" : [ 0.290196, 0.309804, 0.301961, 1.0 ],
					"bgfillcolor_color1" : [ 0.03511, 0.236951, 0.274191, 1.0 ],
					"bgfillcolor_color2" : [ 0.031373, 0.541176, 0.498039, 1.0 ],
					"bgfillcolor_proportion" : 0.2,
					"bgfillcolor_pt1" : [ 0.163366, 0.365217 ],
					"bgfillcolor_pt2" : [ 0.118812, 0.113043 ],
					"bgfillcolor_type" : "gradient",
					"fontname" : "Avenir Book",
					"gradient" : 1,
					"id" : "obj-49",
					"maxclass" : "message",
					"numinlets" : 2,
					"numoutlets" : 1,
					"outlettype" : [ "" ],
					"patching_rect" : [ 263.5, 685.0, 70.5, 25.0 ],
					"style" : "",
					"text" : "write",
					"textjustification" : 1
				}

			}
, 			{
				"box" : 				{
					"bgcolor" : [ 0.03511, 0.236951, 0.274191, 1.0 ],
					"bgcolor2" : [ 0.031373, 0.541176, 0.498039, 1.0 ],
					"bgfillcolor_angle" : 100.019699,
					"bgfillcolor_autogradient" : 0.0,
					"bgfillcolor_color" : [ 0.290196, 0.309804, 0.301961, 1.0 ],
					"bgfillcolor_color1" : [ 0.03511, 0.236951, 0.274191, 1.0 ],
					"bgfillcolor_color2" : [ 0.031373, 0.541176, 0.498039, 1.0 ],
					"bgfillcolor_proportion" : 0.2,
					"bgfillcolor_pt1" : [ 0.163366, 0.365217 ],
					"bgfillcolor_pt2" : [ 0.118812, 0.113043 ],
					"bgfillcolor_type" : "gradient",
					"fontname" : "Avenir Book",
					"gradient" : 1,
					"id" : "obj-47",
					"maxclass" : "message",
					"numinlets" : 2,
					"numoutlets" : 1,
					"outlettype" : [ "" ],
					"patching_rect" : [ 191.5, 685.0, 70.5, 25.0 ],
					"style" : "",
					"text" : "open",
					"textjustification" : 1
				}

			}
, 			{
				"box" : 				{
					"bgcolor" : [ 0.03511, 0.236951, 0.274191, 1.0 ],
					"bgcolor2" : [ 0.031373, 0.541176, 0.498039, 1.0 ],
					"bgfillcolor_angle" : 100.745193,
					"bgfillcolor_autogradient" : 0.0,
					"bgfillcolor_color" : [ 0.290196, 0.309804, 0.301961, 1.0 ],
					"bgfillcolor_color1" : [ 0.03511, 0.236951, 0.274191, 1.0 ],
					"bgfillcolor_color2" : [ 0.031373, 0.541176, 0.498039, 1.0 ],
					"bgfillcolor_proportion" : 0.373828,
					"bgfillcolor_pt1" : [ 0.178218, 0.304348 ],
					"bgfillcolor_pt2" : [ 0.138614, 0.095652 ],
					"bgfillcolor_type" : "gradient",
					"fontname" : "Avenir Book",
					"gradient" : 1,
					"id" : "obj-850",
					"maxclass" : "message",
					"numinlets" : 2,
					"numoutlets" : 1,
					"outlettype" : [ "" ],
					"patching_rect" : [ 15.0, 685.0, 91.0, 25.0 ],
					"style" : "",
					"text" : "arduivis 1 3",
					"textjustification" : 1
				}

			}
, 			{
				"box" : 				{
					"bgcolor" : [ 0.03511, 0.236951, 0.274191, 1.0 ],
					"fontname" : "Avenir Book",
					"fontsize" : 24.0,
					"htricolor" : [ 0.0, 0.0, 0.0, 1.0 ],
					"id" : "obj-458",
					"maxclass" : "number",
					"numinlets" : 1,
					"numoutlets" : 2,
					"outlettype" : [ "", "bang" ],
					"parameter_enable" : 0,
					"patching_rect" : [ 141.5, 586.0, 48.0, 41.0 ],
					"style" : "",
					"textcolor" : [ 1.0, 1.0, 1.0, 1.0 ],
					"tricolor" : [ 0.093121, 0.536852, 0.511438, 1.0 ]
				}

			}
, 			{
				"box" : 				{
					"bgcolor" : [ 0.03511, 0.236951, 0.274191, 1.0 ],
					"fontname" : "Avenir Book",
					"fontsize" : 24.0,
					"htricolor" : [ 0.0, 0.0, 0.0, 1.0 ],
					"id" : "obj-457",
					"maxclass" : "number",
					"numinlets" : 1,
					"numoutlets" : 2,
					"outlettype" : [ "", "bang" ],
					"parameter_enable" : 0,
					"patching_rect" : [ 87.5, 586.0, 48.0, 41.0 ],
					"style" : "",
					"textcolor" : [ 1.0, 1.0, 1.0, 1.0 ],
					"tricolor" : [ 0.093121, 0.536852, 0.511438, 1.0 ]
				}

			}
, 			{
				"box" : 				{
					"bgcolor" : [ 0.03511, 0.236951, 0.274191, 1.0 ],
					"color" : [ 0.031373, 0.541176, 0.498039, 1.0 ],
					"fontname" : "Avenir Book",
					"id" : "obj-455",
					"maxclass" : "newobj",
					"numinlets" : 2,
					"numoutlets" : 1,
					"outlettype" : [ "" ],
					"patching_rect" : [ 87.5, 630.5, 73.0, 25.0 ],
					"style" : "",
					"text" : "pak 0 0",
					"textjustification" : 1
				}

			}
, 			{
				"box" : 				{
					"bgcolor" : [ 0.03511, 0.236951, 0.274191, 1.0 ],
					"color" : [ 0.031373, 0.541176, 0.498039, 1.0 ],
					"fontname" : "Avenir Book",
					"id" : "obj-454",
					"maxclass" : "newobj",
					"numinlets" : 1,
					"numoutlets" : 1,
					"outlettype" : [ "" ],
					"patching_rect" : [ 87.5, 657.666626, 101.0, 25.0 ],
					"style" : "",
					"text" : "prepend arduivis",
					"textjustification" : 1
				}

			}
, 			{
				"box" : 				{
					"bgcolor" : [ 0.03511, 0.236951, 0.274191, 1.0 ],
					"color" : [ 0.031373, 0.541176, 0.498039, 1.0 ],
					"fontname" : "Avenir Book",
					"id" : "obj-64",
					"maxclass" : "newobj",
					"numinlets" : 1,
					"numoutlets" : 3,
					"outlettype" : [ "", "bang", "int" ],
					"patching_rect" : [ 15.0, 748.0, 42.0, 25.0 ],
					"style" : "",
					"text" : "text",
					"textjustification" : 1
				}

			}
, 			{
				"box" : 				{
					"bgcolor" : [ 0.03511, 0.236951, 0.274191, 1.0 ],
					"bgcolor2" : [ 0.031373, 0.541176, 0.498039, 1.0 ],
					"bgfillcolor_angle" : 100.019699,
					"bgfillcolor_autogradient" : 0.0,
					"bgfillcolor_color" : [ 0.290196, 0.309804, 0.301961, 1.0 ],
					"bgfillcolor_color1" : [ 0.03511, 0.236951, 0.274191, 1.0 ],
					"bgfillcolor_color2" : [ 0.031373, 0.541176, 0.498039, 1.0 ],
					"bgfillcolor_proportion" : 0.2,
					"bgfillcolor_pt1" : [ 0.163366, 0.365217 ],
					"bgfillcolor_pt2" : [ 0.118812, 0.113043 ],
					"bgfillcolor_type" : "gradient",
					"fontname" : "Avenir Book",
					"gradient" : 1,
					"id" : "obj-31",
					"maxclass" : "message",
					"numinlets" : 2,
					"numoutlets" : 1,
					"outlettype" : [ "" ],
					"patching_rect" : [ 335.5, 685.0, 70.0, 25.0 ],
					"style" : "",
					"text" : "clear",
					"textjustification" : 1
				}

			}
, 			{
				"box" : 				{
					"bgcolor" : [ 0.03511, 0.236951, 0.274191, 1.0 ],
					"color" : [ 0.031373, 0.541176, 0.498039, 1.0 ],
					"fontface" : 0,
					"fontname" : "Avenir Book",
					"fontsize" : 11.595187,
					"id" : "obj-35",
					"maxclass" : "newobj",
					"numinlets" : 1,
					"numoutlets" : 2,
					"outlettype" : [ "", "" ],
					"patching_rect" : [ 15.0, 717.0, 85.0, 24.0 ],
					"saved_object_attributes" : 					{
						"filename" : "arduivisJS.js",
						"parameter_enable" : 0
					}
,
					"style" : "",
					"text" : "js arduivisJS.js",
					"textjustification" : 1
				}

			}
, 			{
				"box" : 				{
					"angle" : 270.0,
					"border" : 2,
					"bordercolor" : [ 0.0, 0.0, 0.0, 1.0 ],
					"grad1" : [ 0.093121, 0.536852, 0.511438, 1.0 ],
					"grad2" : [ 0.093121, 0.536852, 0.511438, 1.0 ],
					"id" : "obj-598",
					"maxclass" : "panel",
					"mode" : 1,
					"numinlets" : 1,
					"numoutlets" : 0,
					"patching_rect" : [ 15.0, 586.0, 70.5, 96.666656 ],
					"proportion" : 0.39,
					"style" : ""
				}

			}
, 			{
				"box" : 				{
					"angle" : 270.0,
					"background" : 1,
					"border" : 2,
					"bordercolor" : [ 0.0, 0.0, 0.0, 1.0 ],
					"grad1" : [ 1.0, 1.0, 1.0, 1.0 ],
					"grad2" : [ 1.0, 1.0, 1.0, 1.0 ],
					"id" : "obj-116",
					"maxclass" : "panel",
					"mode" : 1,
					"numinlets" : 1,
					"numoutlets" : 0,
					"patching_rect" : [ 10.333374, 581.5, 400.5, 197.0 ],
					"proportion" : 0.39,
					"style" : ""
				}

			}
 ],
		"lines" : [ 			{
				"patchline" : 				{
					"destination" : [ "obj-31", 0 ],
					"disabled" : 0,
					"hidden" : 0,
					"source" : [ "obj-104", 0 ]
				}

			}
, 			{
				"patchline" : 				{
					"destination" : [ "obj-47", 0 ],
					"disabled" : 0,
					"hidden" : 0,
					"source" : [ "obj-106", 0 ]
				}

			}
, 			{
				"patchline" : 				{
					"destination" : [ "obj-49", 0 ],
					"disabled" : 0,
					"hidden" : 0,
					"source" : [ "obj-108", 0 ]
				}

			}
, 			{
				"patchline" : 				{
					"destination" : [ "obj-35", 0 ],
					"disabled" : 0,
					"hidden" : 0,
					"midpoints" : [ 345.0, 713.666687, 24.5, 713.666687 ],
					"source" : [ "obj-31", 0 ]
				}

			}
, 			{
				"patchline" : 				{
					"destination" : [ "obj-64", 0 ],
					"disabled" : 0,
					"hidden" : 0,
					"midpoints" : [ 90.5, 744.166687, 24.5, 744.166687 ],
					"source" : [ "obj-35", 1 ]
				}

			}
, 			{
				"patchline" : 				{
					"destination" : [ "obj-64", 0 ],
					"disabled" : 0,
					"hidden" : 0,
					"source" : [ "obj-35", 0 ]
				}

			}
, 			{
				"patchline" : 				{
					"destination" : [ "obj-850", 1 ],
					"disabled" : 0,
					"hidden" : 0,
					"source" : [ "obj-454", 0 ]
				}

			}
, 			{
				"patchline" : 				{
					"destination" : [ "obj-454", 0 ],
					"disabled" : 0,
					"hidden" : 0,
					"source" : [ "obj-455", 0 ]
				}

			}
, 			{
				"patchline" : 				{
					"destination" : [ "obj-455", 0 ],
					"disabled" : 0,
					"hidden" : 0,
					"source" : [ "obj-457", 0 ]
				}

			}
, 			{
				"patchline" : 				{
					"destination" : [ "obj-455", 1 ],
					"disabled" : 0,
					"hidden" : 0,
					"source" : [ "obj-458", 0 ]
				}

			}
, 			{
				"patchline" : 				{
					"destination" : [ "obj-64", 0 ],
					"disabled" : 0,
					"hidden" : 0,
					"midpoints" : [ 201.0, 744.166687, 24.5, 744.166687 ],
					"source" : [ "obj-47", 0 ]
				}

			}
, 			{
				"patchline" : 				{
					"destination" : [ "obj-64", 0 ],
					"disabled" : 0,
					"hidden" : 0,
					"midpoints" : [ 273.0, 744.0, 24.5, 744.0 ],
					"source" : [ "obj-49", 0 ]
				}

			}
, 			{
				"patchline" : 				{
					"destination" : [ "obj-850", 0 ],
					"disabled" : 0,
					"hidden" : 0,
					"source" : [ "obj-56", 0 ]
				}

			}
, 			{
				"patchline" : 				{
					"destination" : [ "obj-35", 0 ],
					"disabled" : 0,
					"hidden" : 0,
					"source" : [ "obj-850", 0 ]
				}

			}
 ],
		"dependency_cache" : [ 			{
				"name" : "arduivisJS.js",
				"bootpath" : "~/Documents/_airReam/arduivis/arduivisJS",
				"type" : "TEXT",
				"implicit" : 1
			}
 ],
		"autosave" : 0
	}

}
