#N canvas 671 295 307 516 24;
#X floatatom 23 48 5 0 255 0 - - -;
#X obj 23 78 spell;
#X obj 23 141 prepend set;
#X msg 23 207 49 48 52;
#X obj 23 302 prepend;
#X obj 23 334 prepend set;
#X obj 23 172 t b a;
#X obj 23 239 t b a;
#X msg 23 403 49 48 52 10;
#X obj 23 365 t b a;
#X obj 23 12 inlet;
#X obj 23 110 thresh 0.5;
#X msg 23 271 9;
#X obj 23 441 outlet;
#X obj 163 78 prepend set;
#X text 83 48 comment;
#X floatatom 163 48 5 0 255 0 - - -;
#X obj 163 12 inlet;
#X obj 173 439 outlet;
#X connect 0 0 1 0;
#X connect 1 0 11 0;
#X connect 2 0 6 0;
#X connect 3 0 7 0;
#X connect 4 0 5 0;
#X connect 5 0 9 0;
#X connect 6 0 3 0;
#X connect 6 1 3 0;
#X connect 7 0 12 0;
#X connect 7 1 4 1;
#X connect 8 0 13 0;
#X connect 9 0 8 0;
#X connect 9 0 18 0;
#X connect 9 1 8 0;
#X connect 10 0 0 0;
#X connect 11 0 2 0;
#X connect 12 0 4 0;
#X connect 14 0 12 0;
#X connect 16 0 14 0;
#X connect 17 0 16 0;
