#N canvas 0 22 1920 1036 24;
#X floatatom 385 264 5 0 255 0 - - -;
#X obj 385 293 spell;
#X obj 385 356 prepend set;
#X msg 385 422 50 50 55;
#X obj 385 517 prepend;
#X obj 385 549 prepend set;
#X obj 385 387 t b a;
#X obj 385 453 t b a;
#X msg 384 618 50 50 55 10;
#X obj 385 580 t b a;
#X obj 133 362 bng 15 250 50 0 empty empty empty 17 7 0 10 -262144
-1 -1;
#X obj 385 226 inlet;
#X obj 385 325 thresh 0.5;
#X msg 1 451 devices;
#X msg 96 451 open 7;
#X msg 181 451 close;
#X obj -77 383 prepend set;
#X msg -97 421 50 50 55 10;
#X obj -97 305 tgl 15 0 empty empty empty 17 7 0 10 -262144 -1 -1 1
1;
#X obj -97 360 bng 15 250 50 0 empty empty empty 17 7 0 10 -262144
-1 -1;
#X obj -97 327 metro 80;
#X obj -97 523 comport 1 9600;
#X obj -97 112 loadbang;
#X obj -97 271 int 1;
#X obj -41 242 bng 15 250 50 0 empty empty empty 17 7 0 10 -262144
-1 -1;
#X floatatom 130 806 5 0 0 0 - - -;
#X obj 112 834 change;
#X obj 94 867 bng 15 250 50 0 empty empty empty 17 7 0 10 -262144 -1
-1;
#X obj 112 893 int;
#X floatatom 130 722 5 0 0 0 - - -;
#X obj 130 781 list-round;
#X obj 112 921 send output1;
#X obj -84 569 unpack f;
#X msg 384 486 10;
#X obj -240 461 repack 2;
#X obj 44 550 prepend set;
#X msg 24 574 227;
#X obj 2 242 bng 15 250 50 0 empty empty empty 17 7 0 10 -262144 -1
-1;
#X obj -24 175 delay 1200;
#X obj 3 138 delay 2200;
#X obj 510 408 join;
#X floatatom 860 221 5 0 255 0 - - -;
#X msg 977 221 32;
#X msg 1007 221 10;
#X floatatom 1106 216 5 0 255 0 - - -;
#X msg 1223 216 32;
#X msg 1253 216 10;
#X obj 654 685 prepend set;
#X msg 644 739 49 48 51 9 50 53 53 10;
#X msg 826 744 53 49 32 57 53 10;
#X obj 906 588 pack sym sym;
#X obj 937 568 bng 15 250 50 0 empty empty empty 17 7 0 10 -262144
-1 -1;
#X obj 860 274 arduivis_inputsingle;
#X obj 1106 269 arduivis_inputsingle;
#X connect 0 0 1 0;
#X connect 1 0 12 0;
#X connect 2 0 6 0;
#X connect 3 0 7 0;
#X connect 4 0 5 0;
#X connect 5 0 9 0;
#X connect 6 0 3 0;
#X connect 6 1 3 0;
#X connect 7 0 33 0;
#X connect 7 1 4 1;
#X connect 8 0 16 0;
#X connect 9 0 8 0;
#X connect 9 0 10 0;
#X connect 9 1 8 0;
#X connect 11 0 0 0;
#X connect 12 0 2 0;
#X connect 13 0 21 0;
#X connect 14 0 21 0;
#X connect 15 0 21 0;
#X connect 16 0 17 0;
#X connect 17 0 21 0;
#X connect 18 0 20 0;
#X connect 19 0 17 0;
#X connect 20 0 19 0;
#X connect 21 0 34 1;
#X connect 21 0 35 0;
#X connect 21 0 0 0;
#X connect 21 0 30 0;
#X connect 22 0 38 0;
#X connect 22 0 39 0;
#X connect 23 0 18 0;
#X connect 24 0 14 0;
#X connect 25 0 26 0;
#X connect 25 0 28 1;
#X connect 26 0 27 0;
#X connect 26 0 28 0;
#X connect 27 0 28 0;
#X connect 28 0 31 0;
#X connect 29 0 30 0;
#X connect 30 0 25 0;
#X connect 32 0 29 0;
#X connect 33 0 4 0;
#X connect 34 0 32 0;
#X connect 35 0 36 0;
#X connect 36 0 0 0;
#X connect 36 0 30 0;
#X connect 37 0 23 0;
#X connect 38 0 24 0;
#X connect 39 0 37 0;
#X connect 41 0 52 0;
#X connect 42 0 52 1;
#X connect 43 0 52 1;
#X connect 44 0 53 0;
#X connect 45 0 53 1;
#X connect 46 0 53 1;
#X connect 47 0 48 0;
#X connect 50 0 47 0;
#X connect 50 0 49 0;
#X connect 51 0 50 0;
#X connect 52 0 50 0;
#X connect 52 0 16 0;
#X connect 53 0 50 1;
