#N canvas 137 22 764 775 10;
#N canvas 0 22 450 300 (subpatch) 0;
#X array array1 132300 float 2;
#X coords 0 1 132300 -1 200 140 1;
#X restore 284 313 graph;
#X obj 57 110 openpanel;
#X obj 57 86 bng 15 250 50 0 empty empty empty 0 -6 0 8 -262144 -1
-1;
#X obj 57 162 soundfiler;
#X msg 57 136 read -resize \$1 array1;
#X obj 57 189 expr 44100 / $f1;
#X floatatom 57 250 5 0 0 0 - - -;
#X obj 57 302 phasor~;
#X obj 57 342 *~;
#X obj 200 342 unsig~ 50;
#X obj 285 461 hsl 200 15 0 1 0 0 empty empty empty -2 -6 0 8 -262144
-1 -1 7238 1;
#X text 283 484 0;
#X text 483 483 1;
#X obj 56 379 tabread4~ array1;
#X obj 139 465 line~;
#X msg 139 439 \$1 20;
#X floatatom 139 412 5 0 0 0 - - -;
#X obj 57 509 *~;
#X obj 58 541 hip~ 5;
#X obj 58 571 dac~;
#X obj 57 275 *;
#X obj 153 225 hsl 128 15 -2 2 0 0 empty empty empty -2 -6 0 8 -262144
-1 -1 7717 1;
#X text 140 242 -2;
#X text 278 243 2;
#X text 82 83 load sound file;
#X text 192 202 playback speed;
#X text 274 519 slider shows playing position;
#X text 195 411 volume;
#X text 125 538 DC offset filter;
#X text 45 624 www.pd-tutorial.com;
#X text 58 602 Johannes Kreidler;
#X obj 94 218 t b f;
#X msg 359 90 devices;
#X msg 389 170 close;
#X floatatom 359 229 5 0 0 0 - - -;
#X text 417 228 raw data from Arduino;
#X obj 359 202 comport 9600;
#X floatatom 370 117 5 0 0 0 - - -;
#X msg 370 143 open \$1;
#X text 457 88 find Arduino board;
#X text 457 168 close serial buffer;
#X text 457 116 define board number;
#X text 457 140 open defined board;
#X text 373 31 arduivis - model #1 - input;
#X obj 362 257 hsl 128 15 0 1024 0 0 empty empty empty -2 -8 0 10 -262144
-1 -1 7717 1;
#X text 497 253 data visualization;
#X text 334 51 sketch: arduivis_PD_model1_output.ino;
#X obj 195 47 autoscale -2 2;
#X floatatom 202 89 5 0 0 0 - - -;
#X connect 1 0 4 0;
#X connect 2 0 1 0;
#X connect 3 0 5 0;
#X connect 3 0 8 1;
#X connect 4 0 3 0;
#X connect 5 0 6 0;
#X connect 6 0 20 0;
#X connect 7 0 8 0;
#X connect 7 0 9 0;
#X connect 8 0 13 0;
#X connect 9 0 10 0;
#X connect 13 0 17 0;
#X connect 14 0 17 1;
#X connect 15 0 14 0;
#X connect 16 0 15 0;
#X connect 17 0 18 0;
#X connect 18 0 19 0;
#X connect 18 0 19 1;
#X connect 20 0 7 0;
#X connect 21 0 31 0;
#X connect 31 0 6 0;
#X connect 31 1 20 1;
#X connect 32 0 36 0;
#X connect 33 0 36 0;
#X connect 34 0 44 0;
#X connect 36 0 34 0;
#X connect 37 0 38 0;
#X connect 38 0 36 0;
#X connect 44 0 47 0;
#X connect 47 0 48 0;
#X connect 48 0 21 0;
