{
	"patcher" : 	{
		"fileversion" : 1,
		"appversion" : 		{
			"major" : 7,
			"minor" : 0,
			"revision" : 0,
			"architecture" : "x86",
			"modernui" : 1
		}
,
		"rect" : [ 38.0, 78.0, 457.0, 628.0 ],
		"bgcolor" : [ 0.0, 0.0, 0.0, 1.0 ],
		"editing_bgcolor" : [ 0.0, 0.0, 0.0, 1.0 ],
		"bglocked" : 0,
		"openinpresentation" : 1,
		"default_fontsize" : 12.0,
		"default_fontface" : 0,
		"default_fontname" : "Arial",
		"gridonopen" : 1,
		"gridsize" : [ 15.0, 15.0 ],
		"gridsnaponopen" : 1,
		"objectsnaponopen" : 1,
		"statusbarvisible" : 2,
		"toolbarvisible" : 1,
		"lefttoolbarpinned" : 0,
		"toptoolbarpinned" : 0,
		"righttoolbarpinned" : 0,
		"bottomtoolbarpinned" : 0,
		"toolbars_unpinned_last_save" : 0,
		"tallnewobj" : 0,
		"boxanimatetime" : 200,
		"enablehscroll" : 1,
		"enablevscroll" : 1,
		"devicewidth" : 0.0,
		"description" : "",
		"digest" : "",
		"tags" : "",
		"style" : "",
		"subpatcher_template" : "",
		"boxes" : [ 			{
				"box" : 				{
					"id" : "obj-16",
					"maxclass" : "message",
					"numinlets" : 2,
					"numoutlets" : 1,
					"outlettype" : [ "" ],
					"patching_rect" : [ 748.0, 316.0, 347.135498, 22.0 ],
					"style" : "",
					"text" : "210 36 0 28"
				}

			}
, 			{
				"box" : 				{
					"id" : "obj-81",
					"maxclass" : "message",
					"numinlets" : 2,
					"numoutlets" : 1,
					"outlettype" : [ "" ],
					"patching_rect" : [ 302.0, 424.0, 87.0, 22.0 ],
					"style" : "",
					"text" : "0 0 0 0 0 0 0 0"
				}

			}
, 			{
				"box" : 				{
					"color" : [ 0.74902, 0.705882, 0.662745, 1.0 ],
					"fontface" : 0,
					"fontname" : "Arial",
					"fontsize" : 12.0,
					"id" : "obj-78",
					"maxclass" : "newobj",
					"numinlets" : 1,
					"numoutlets" : 1,
					"outlettype" : [ "" ],
					"patching_rect" : [ 1783.578003, 661.625244, 133.0, 22.0 ],
					"style" : "",
					"text" : "prepend set feedback4"
				}

			}
, 			{
				"box" : 				{
					"color" : [ 0.74902, 0.705882, 0.662745, 1.0 ],
					"fontface" : 0,
					"fontname" : "Arial",
					"fontsize" : 12.0,
					"id" : "obj-79",
					"maxclass" : "newobj",
					"numinlets" : 1,
					"numoutlets" : 1,
					"outlettype" : [ "" ],
					"patching_rect" : [ 1542.578003, 661.625244, 110.0, 22.0 ],
					"style" : "",
					"text" : "prepend set input4"
				}

			}
, 			{
				"box" : 				{
					"color" : [ 0.74902, 0.705882, 0.662745, 1.0 ],
					"fontface" : 0,
					"fontname" : "Arial",
					"fontsize" : 12.0,
					"id" : "obj-76",
					"maxclass" : "newobj",
					"numinlets" : 1,
					"numoutlets" : 1,
					"outlettype" : [ "" ],
					"patching_rect" : [ 1320.059692, 661.625244, 133.0, 22.0 ],
					"style" : "",
					"text" : "prepend set feedback3"
				}

			}
, 			{
				"box" : 				{
					"color" : [ 0.74902, 0.705882, 0.662745, 1.0 ],
					"fontface" : 0,
					"fontname" : "Arial",
					"fontsize" : 12.0,
					"id" : "obj-77",
					"maxclass" : "newobj",
					"numinlets" : 1,
					"numoutlets" : 1,
					"outlettype" : [ "" ],
					"patching_rect" : [ 1079.059692, 661.625244, 110.0, 22.0 ],
					"style" : "",
					"text" : "prepend set input3"
				}

			}
, 			{
				"box" : 				{
					"color" : [ 0.74902, 0.705882, 0.662745, 1.0 ],
					"fontface" : 0,
					"fontname" : "Arial",
					"fontsize" : 12.0,
					"id" : "obj-74",
					"maxclass" : "newobj",
					"numinlets" : 1,
					"numoutlets" : 1,
					"outlettype" : [ "" ],
					"patching_rect" : [ 856.541382, 661.625244, 133.0, 22.0 ],
					"style" : "",
					"text" : "prepend set feedback2"
				}

			}
, 			{
				"box" : 				{
					"color" : [ 0.74902, 0.705882, 0.662745, 1.0 ],
					"fontface" : 0,
					"fontname" : "Arial",
					"fontsize" : 12.0,
					"id" : "obj-75",
					"maxclass" : "newobj",
					"numinlets" : 1,
					"numoutlets" : 1,
					"outlettype" : [ "" ],
					"patching_rect" : [ 615.541382, 661.625244, 110.0, 22.0 ],
					"style" : "",
					"text" : "prepend set input2"
				}

			}
, 			{
				"box" : 				{
					"fontname" : "Avenir Book",
					"fontsize" : 16.0,
					"id" : "obj-61",
					"linecount" : 2,
					"maxclass" : "comment",
					"numinlets" : 1,
					"numoutlets" : 0,
					"patching_rect" : [ 1770.723633, 616.86499, 94.0, 50.0 ],
					"presentation" : 1,
					"presentation_rect" : [ 231.118195, 573.188965, 205.760788, 28.0 ],
					"style" : "",
					"text" : "feedback4 28",
					"textcolor" : [ 1.0, 1.0, 1.0, 1.0 ],
					"textjustification" : 1
				}

			}
, 			{
				"box" : 				{
					"fontname" : "Avenir Book",
					"fontsize" : 18.0,
					"id" : "obj-62",
					"maxclass" : "comment",
					"numinlets" : 1,
					"numoutlets" : 0,
					"patching_rect" : [ 1025.135498, 43.455093, 95.0, 31.0 ],
					"presentation" : 1,
					"presentation_rect" : [ 231.118195, 526.640198, 205.760788, 31.0 ],
					"style" : "",
					"text" : "feedback",
					"textcolor" : [ 1.0, 1.0, 1.0, 1.0 ],
					"textjustification" : 1
				}

			}
, 			{
				"box" : 				{
					"fontname" : "Avenir Book",
					"fontsize" : 18.0,
					"id" : "obj-63",
					"maxclass" : "comment",
					"numinlets" : 1,
					"numoutlets" : 0,
					"patching_rect" : [ 635.541382, 63.728607, 71.329865, 31.0 ],
					"presentation" : 1,
					"presentation_rect" : [ 21.180077, 526.640198, 205.760788, 31.0 ],
					"style" : "",
					"text" : "input",
					"textcolor" : [ 1.0, 1.0, 1.0, 1.0 ],
					"textjustification" : 1
				}

			}
, 			{
				"box" : 				{
					"fontname" : "Avenir Book",
					"fontsize" : 16.0,
					"id" : "obj-64",
					"maxclass" : "comment",
					"numinlets" : 1,
					"numoutlets" : 0,
					"patching_rect" : [ 1529.723633, 616.86499, 94.0, 28.0 ],
					"presentation" : 1,
					"presentation_rect" : [ 16.333275, 573.188965, 210.607529, 28.0 ],
					"style" : "",
					"text" : "input4 28",
					"textcolor" : [ 1.0, 1.0, 1.0, 1.0 ],
					"textjustification" : 1
				}

			}
, 			{
				"box" : 				{
					"fontname" : "Avenir Book",
					"fontsize" : 16.0,
					"id" : "obj-48",
					"linecount" : 2,
					"maxclass" : "comment",
					"numinlets" : 1,
					"numoutlets" : 0,
					"patching_rect" : [ 1275.723633, 616.86499, 94.0, 50.0 ],
					"presentation" : 1,
					"presentation_rect" : [ 231.118195, 483.188965, 205.760788, 28.0 ],
					"style" : "",
					"text" : "feedback3 0",
					"textcolor" : [ 1.0, 1.0, 1.0, 1.0 ],
					"textjustification" : 1
				}

			}
, 			{
				"box" : 				{
					"fontname" : "Avenir Book",
					"fontsize" : 18.0,
					"id" : "obj-49",
					"maxclass" : "comment",
					"numinlets" : 1,
					"numoutlets" : 0,
					"patching_rect" : [ 943.723633, 43.455093, 95.0, 31.0 ],
					"presentation" : 1,
					"presentation_rect" : [ 231.118195, 436.640198, 205.760788, 31.0 ],
					"style" : "",
					"text" : "feedback",
					"textcolor" : [ 1.0, 1.0, 1.0, 1.0 ],
					"textjustification" : 1
				}

			}
, 			{
				"box" : 				{
					"fontname" : "Avenir Book",
					"fontsize" : 18.0,
					"id" : "obj-50",
					"maxclass" : "comment",
					"numinlets" : 1,
					"numoutlets" : 0,
					"patching_rect" : [ 555.723633, 63.728607, 71.329865, 31.0 ],
					"presentation" : 1,
					"presentation_rect" : [ 21.180077, 436.640198, 205.760788, 31.0 ],
					"style" : "",
					"text" : "input",
					"textcolor" : [ 1.0, 1.0, 1.0, 1.0 ],
					"textjustification" : 1
				}

			}
, 			{
				"box" : 				{
					"fontname" : "Avenir Book",
					"fontsize" : 16.0,
					"id" : "obj-54",
					"maxclass" : "comment",
					"numinlets" : 1,
					"numoutlets" : 0,
					"patching_rect" : [ 1034.723633, 616.86499, 94.0, 28.0 ],
					"presentation" : 1,
					"presentation_rect" : [ 16.333336, 483.188965, 210.607529, 28.0 ],
					"style" : "",
					"text" : "input3 0",
					"textcolor" : [ 1.0, 1.0, 1.0, 1.0 ],
					"textjustification" : 1
				}

			}
, 			{
				"box" : 				{
					"fontname" : "Avenir Book",
					"fontsize" : 16.0,
					"id" : "obj-22",
					"linecount" : 2,
					"maxclass" : "comment",
					"numinlets" : 1,
					"numoutlets" : 0,
					"patching_rect" : [ 780.723633, 616.86499, 94.0, 50.0 ],
					"presentation" : 1,
					"presentation_rect" : [ 231.118195, 393.188934, 205.760788, 28.0 ],
					"style" : "",
					"text" : "feedback2 36",
					"textcolor" : [ 1.0, 1.0, 1.0, 1.0 ],
					"textjustification" : 1
				}

			}
, 			{
				"box" : 				{
					"fontname" : "Avenir Book",
					"fontsize" : 18.0,
					"id" : "obj-23",
					"maxclass" : "comment",
					"numinlets" : 1,
					"numoutlets" : 0,
					"patching_rect" : [ 860.534058, 43.455093, 95.0, 31.0 ],
					"presentation" : 1,
					"presentation_rect" : [ 231.118195, 346.640198, 205.760788, 31.0 ],
					"style" : "",
					"text" : "feedback",
					"textcolor" : [ 1.0, 1.0, 1.0, 1.0 ],
					"textjustification" : 1
				}

			}
, 			{
				"box" : 				{
					"fontname" : "Avenir Book",
					"fontsize" : 18.0,
					"id" : "obj-24",
					"maxclass" : "comment",
					"numinlets" : 1,
					"numoutlets" : 0,
					"patching_rect" : [ 474.925781, 63.728607, 71.329865, 31.0 ],
					"presentation" : 1,
					"presentation_rect" : [ 21.180077, 346.640198, 205.760788, 31.0 ],
					"style" : "",
					"text" : "input",
					"textcolor" : [ 1.0, 1.0, 1.0, 1.0 ],
					"textjustification" : 1
				}

			}
, 			{
				"box" : 				{
					"fontname" : "Avenir Book",
					"fontsize" : 16.0,
					"id" : "obj-31",
					"maxclass" : "comment",
					"numinlets" : 1,
					"numoutlets" : 0,
					"patching_rect" : [ 539.723633, 616.86499, 94.0, 28.0 ],
					"presentation" : 1,
					"presentation_rect" : [ 16.333336, 393.188934, 210.607529, 28.0 ],
					"style" : "",
					"text" : "input2 36",
					"textcolor" : [ 1.0, 1.0, 1.0, 1.0 ],
					"textjustification" : 1
				}

			}
, 			{
				"box" : 				{
					"fontname" : "Arial",
					"fontsize" : 12.0,
					"id" : "obj-32",
					"linecount" : 5,
					"maxclass" : "message",
					"numinlets" : 2,
					"numoutlets" : 1,
					"outlettype" : [ "" ],
					"patching_rect" : [ 1456.541382, 101.209702, 64.780273, 76.0 ],
					"style" : "",
					"text" : "http://www.github.com/cskonopka/arduivis"
				}

			}
, 			{
				"box" : 				{
					"fontname" : "Arial",
					"fontsize" : 9.0,
					"id" : "obj-37",
					"linecount" : 2,
					"maxclass" : "newobj",
					"numinlets" : 1,
					"numoutlets" : 1,
					"outlettype" : [ "" ],
					"patching_rect" : [ 1456.541382, 182.003403, 69.0, 29.0 ],
					"style" : "",
					"text" : "prepend launchbrowser"
				}

			}
, 			{
				"box" : 				{
					"fontname" : "Arial",
					"fontsize" : 9.0,
					"id" : "obj-30",
					"maxclass" : "newobj",
					"numinlets" : 1,
					"numoutlets" : 0,
					"patching_rect" : [ 1456.541382, 214.232529, 69.0, 19.0 ],
					"style" : "",
					"text" : "forward max"
				}

			}
, 			{
				"box" : 				{
					"fontname" : "Arial",
					"fontsize" : 12.0,
					"id" : "obj-21",
					"maxclass" : "newobj",
					"numinlets" : 1,
					"numoutlets" : 2,
					"outlettype" : [ "", "bang" ],
					"patcher" : 					{
						"fileversion" : 1,
						"appversion" : 						{
							"major" : 7,
							"minor" : 0,
							"revision" : 0,
							"architecture" : "x86",
							"modernui" : 1
						}
,
						"rect" : [ 0.0, 0.0, 640.0, 480.0 ],
						"bglocked" : 0,
						"openinpresentation" : 0,
						"default_fontsize" : 12.0,
						"default_fontface" : 0,
						"default_fontname" : "Arial",
						"gridonopen" : 1,
						"gridsize" : [ 15.0, 15.0 ],
						"gridsnaponopen" : 1,
						"objectsnaponopen" : 1,
						"statusbarvisible" : 2,
						"toolbarvisible" : 1,
						"lefttoolbarpinned" : 0,
						"toptoolbarpinned" : 0,
						"righttoolbarpinned" : 0,
						"bottomtoolbarpinned" : 0,
						"toolbars_unpinned_last_save" : 0,
						"tallnewobj" : 0,
						"boxanimatetime" : 200,
						"enablehscroll" : 1,
						"enablevscroll" : 1,
						"devicewidth" : 0.0,
						"description" : "",
						"digest" : "",
						"tags" : "",
						"style" : "",
						"subpatcher_template" : "",
						"boxes" : [ 							{
								"box" : 								{
									"fontname" : "Arial",
									"fontsize" : 12.0,
									"id" : "obj-79",
									"maxclass" : "message",
									"numinlets" : 2,
									"numoutlets" : 1,
									"outlettype" : [ "" ],
									"patching_rect" : [ 50.0, 160.623413, 37.0, 18.0 ],
									"style" : "",
									"text" : "set 0"
								}

							}
, 							{
								"box" : 								{
									"fontname" : "Arial",
									"fontsize" : 12.0,
									"id" : "obj-80",
									"linecount" : 2,
									"maxclass" : "newobj",
									"numinlets" : 2,
									"numoutlets" : 1,
									"outlettype" : [ "bang" ],
									"patching_rect" : [ 50.0, 127.623383, 41.0, 33.0 ],
									"style" : "",
									"text" : "delay 80"
								}

							}
, 							{
								"box" : 								{
									"fontname" : "Arial",
									"fontsize" : 12.0,
									"id" : "obj-81",
									"maxclass" : "newobj",
									"numinlets" : 2,
									"numoutlets" : 2,
									"outlettype" : [ "bang", "" ],
									"patching_rect" : [ 50.0, 100.0, 55.751682, 20.0 ],
									"style" : "",
									"text" : "sel 1"
								}

							}
, 							{
								"box" : 								{
									"bgcolor" : [ 0.692156, 0.657535, 0.617954, 1.0 ],
									"blinkcolor" : [ 0.215478, 0.440638, 0.918583, 1.0 ],
									"id" : "obj-1",
									"maxclass" : "button",
									"numinlets" : 1,
									"numoutlets" : 1,
									"outlettype" : [ "bang" ],
									"outlinecolor" : [ 0.215478, 0.440638, 0.918583, 1.0 ],
									"patching_rect" : [ 90.124161, 127.623383, 13.875839, 13.875839 ],
									"style" : ""
								}

							}
, 							{
								"box" : 								{
									"comment" : "",
									"id" : "obj-30",
									"maxclass" : "inlet",
									"numinlets" : 0,
									"numoutlets" : 1,
									"outlettype" : [ "" ],
									"patching_rect" : [ 50.0, 40.0, 25.0, 25.0 ],
									"style" : ""
								}

							}
, 							{
								"box" : 								{
									"comment" : "",
									"id" : "obj-31",
									"maxclass" : "outlet",
									"numinlets" : 1,
									"numoutlets" : 0,
									"patching_rect" : [ 50.0, 238.623413, 25.0, 25.0 ],
									"style" : ""
								}

							}
, 							{
								"box" : 								{
									"comment" : "",
									"id" : "obj-32",
									"maxclass" : "outlet",
									"numinlets" : 1,
									"numoutlets" : 0,
									"patching_rect" : [ 89.124161, 238.623413, 25.0, 25.0 ],
									"style" : ""
								}

							}
 ],
						"lines" : [ 							{
								"patchline" : 								{
									"destination" : [ "obj-32", 0 ],
									"disabled" : 0,
									"hidden" : 0,
									"source" : [ "obj-1", 0 ]
								}

							}
, 							{
								"patchline" : 								{
									"destination" : [ "obj-81", 0 ],
									"disabled" : 0,
									"hidden" : 0,
									"source" : [ "obj-30", 0 ]
								}

							}
, 							{
								"patchline" : 								{
									"destination" : [ "obj-31", 0 ],
									"disabled" : 0,
									"hidden" : 0,
									"source" : [ "obj-79", 0 ]
								}

							}
, 							{
								"patchline" : 								{
									"destination" : [ "obj-79", 0 ],
									"disabled" : 0,
									"hidden" : 0,
									"source" : [ "obj-80", 0 ]
								}

							}
, 							{
								"patchline" : 								{
									"destination" : [ "obj-1", 0 ],
									"disabled" : 0,
									"hidden" : 0,
									"midpoints" : [ 59.5, 123.311691, 98.0, 123.311691 ],
									"source" : [ "obj-81", 0 ]
								}

							}
, 							{
								"patchline" : 								{
									"destination" : [ "obj-80", 0 ],
									"disabled" : 0,
									"hidden" : 0,
									"source" : [ "obj-81", 0 ]
								}

							}
 ]
					}
,
					"patching_rect" : [ 1394.541382, 76.599594, 81.0, 22.0 ],
					"saved_object_attributes" : 					{
						"description" : "",
						"digest" : "",
						"globalpatchername" : "",
						"style" : "",
						"tags" : ""
					}
,
					"style" : "",
					"text" : "p momentary"
				}

			}
, 			{
				"box" : 				{
					"fontname" : "Avenir Book",
					"fontsize" : 24.0,
					"id" : "obj-45",
					"maxclass" : "comment",
					"numinlets" : 1,
					"numoutlets" : 0,
					"patching_rect" : [ 1394.541382, 1.441849, 104.659729, 39.0 ],
					"presentation" : 1,
					"presentation_rect" : [ 230.385849, 65.353058, 206.159729, 39.0 ],
					"style" : "",
					"text" : "github",
					"textcolor" : [ 0.990094, 0.989905, 0.995022, 1.0 ],
					"textjustification" : 1
				}

			}
, 			{
				"box" : 				{
					"fontname" : "Arial",
					"fontsize" : 12.0,
					"id" : "obj-26",
					"maxclass" : "newobj",
					"numinlets" : 1,
					"numoutlets" : 2,
					"outlettype" : [ "", "bang" ],
					"patcher" : 					{
						"fileversion" : 1,
						"appversion" : 						{
							"major" : 7,
							"minor" : 0,
							"revision" : 0,
							"architecture" : "x86",
							"modernui" : 1
						}
,
						"rect" : [ 0.0, 0.0, 640.0, 480.0 ],
						"bglocked" : 0,
						"openinpresentation" : 0,
						"default_fontsize" : 12.0,
						"default_fontface" : 0,
						"default_fontname" : "Arial",
						"gridonopen" : 1,
						"gridsize" : [ 15.0, 15.0 ],
						"gridsnaponopen" : 1,
						"objectsnaponopen" : 1,
						"statusbarvisible" : 2,
						"toolbarvisible" : 1,
						"lefttoolbarpinned" : 0,
						"toptoolbarpinned" : 0,
						"righttoolbarpinned" : 0,
						"bottomtoolbarpinned" : 0,
						"toolbars_unpinned_last_save" : 0,
						"tallnewobj" : 0,
						"boxanimatetime" : 200,
						"enablehscroll" : 1,
						"enablevscroll" : 1,
						"devicewidth" : 0.0,
						"description" : "",
						"digest" : "",
						"tags" : "",
						"style" : "",
						"subpatcher_template" : "",
						"boxes" : [ 							{
								"box" : 								{
									"fontname" : "Arial",
									"fontsize" : 12.0,
									"id" : "obj-79",
									"maxclass" : "message",
									"numinlets" : 2,
									"numoutlets" : 1,
									"outlettype" : [ "" ],
									"patching_rect" : [ 50.0, 160.623413, 37.0, 18.0 ],
									"style" : "",
									"text" : "set 0"
								}

							}
, 							{
								"box" : 								{
									"fontname" : "Arial",
									"fontsize" : 12.0,
									"id" : "obj-80",
									"linecount" : 2,
									"maxclass" : "newobj",
									"numinlets" : 2,
									"numoutlets" : 1,
									"outlettype" : [ "bang" ],
									"patching_rect" : [ 50.0, 127.623383, 41.0, 33.0 ],
									"style" : "",
									"text" : "delay 80"
								}

							}
, 							{
								"box" : 								{
									"fontname" : "Arial",
									"fontsize" : 12.0,
									"id" : "obj-81",
									"maxclass" : "newobj",
									"numinlets" : 2,
									"numoutlets" : 2,
									"outlettype" : [ "bang", "" ],
									"patching_rect" : [ 50.0, 100.0, 55.751682, 20.0 ],
									"style" : "",
									"text" : "sel 1"
								}

							}
, 							{
								"box" : 								{
									"bgcolor" : [ 0.692156, 0.657535, 0.617954, 1.0 ],
									"blinkcolor" : [ 0.215478, 0.440638, 0.918583, 1.0 ],
									"id" : "obj-1",
									"maxclass" : "button",
									"numinlets" : 1,
									"numoutlets" : 1,
									"outlettype" : [ "bang" ],
									"outlinecolor" : [ 0.215478, 0.440638, 0.918583, 1.0 ],
									"patching_rect" : [ 90.124161, 127.623383, 13.875839, 13.875839 ],
									"style" : ""
								}

							}
, 							{
								"box" : 								{
									"comment" : "",
									"id" : "obj-30",
									"maxclass" : "inlet",
									"numinlets" : 0,
									"numoutlets" : 1,
									"outlettype" : [ "" ],
									"patching_rect" : [ 50.0, 40.0, 25.0, 25.0 ],
									"style" : ""
								}

							}
, 							{
								"box" : 								{
									"comment" : "",
									"id" : "obj-31",
									"maxclass" : "outlet",
									"numinlets" : 1,
									"numoutlets" : 0,
									"patching_rect" : [ 50.0, 238.623413, 25.0, 25.0 ],
									"style" : ""
								}

							}
, 							{
								"box" : 								{
									"comment" : "",
									"id" : "obj-32",
									"maxclass" : "outlet",
									"numinlets" : 1,
									"numoutlets" : 0,
									"patching_rect" : [ 89.124161, 238.623413, 25.0, 25.0 ],
									"style" : ""
								}

							}
 ],
						"lines" : [ 							{
								"patchline" : 								{
									"destination" : [ "obj-32", 0 ],
									"disabled" : 0,
									"hidden" : 0,
									"source" : [ "obj-1", 0 ]
								}

							}
, 							{
								"patchline" : 								{
									"destination" : [ "obj-81", 0 ],
									"disabled" : 0,
									"hidden" : 0,
									"source" : [ "obj-30", 0 ]
								}

							}
, 							{
								"patchline" : 								{
									"destination" : [ "obj-31", 0 ],
									"disabled" : 0,
									"hidden" : 0,
									"source" : [ "obj-79", 0 ]
								}

							}
, 							{
								"patchline" : 								{
									"destination" : [ "obj-79", 0 ],
									"disabled" : 0,
									"hidden" : 0,
									"source" : [ "obj-80", 0 ]
								}

							}
, 							{
								"patchline" : 								{
									"destination" : [ "obj-1", 0 ],
									"disabled" : 0,
									"hidden" : 0,
									"midpoints" : [ 59.5, 123.311691, 98.0, 123.311691 ],
									"source" : [ "obj-81", 0 ]
								}

							}
, 							{
								"patchline" : 								{
									"destination" : [ "obj-80", 0 ],
									"disabled" : 0,
									"hidden" : 0,
									"source" : [ "obj-81", 0 ]
								}

							}
 ]
					}
,
					"patching_rect" : [ 1175.541382, 86.019943, 81.0, 22.0 ],
					"saved_object_attributes" : 					{
						"description" : "",
						"digest" : "",
						"globalpatchername" : "",
						"style" : "",
						"tags" : ""
					}
,
					"style" : "",
					"text" : "p momentary"
				}

			}
, 			{
				"box" : 				{
					"fontname" : "Arial",
					"fontsize" : 9.0,
					"hidden" : 1,
					"id" : "obj-39",
					"maxclass" : "newobj",
					"numinlets" : 1,
					"numoutlets" : 1,
					"outlettype" : [ "" ],
					"patching_rect" : [ 1237.925781, 127.705978, 47.0, 19.0 ],
					"style" : "",
					"text" : "pcontrol"
				}

			}
, 			{
				"box" : 				{
					"fontname" : "Arial",
					"fontsize" : 9.0,
					"hidden" : 1,
					"id" : "obj-41",
					"maxclass" : "message",
					"numinlets" : 2,
					"numoutlets" : 1,
					"outlettype" : [ "" ],
					"patching_rect" : [ 1237.925781, 110.630051, 30.0, 19.0 ],
					"style" : "",
					"text" : "open"
				}

			}
, 			{
				"box" : 				{
					"fontname" : "Arial",
					"fontsize" : 9.0,
					"hidden" : 1,
					"id" : "obj-42",
					"maxclass" : "newobj",
					"numinlets" : 1,
					"numoutlets" : 0,
					"patcher" : 					{
						"fileversion" : 1,
						"appversion" : 						{
							"major" : 7,
							"minor" : 0,
							"revision" : 0,
							"architecture" : "x86",
							"modernui" : 1
						}
,
						"rect" : [ 350.0, 95.0, 410.0, 307.0 ],
						"bglocked" : 0,
						"openinpresentation" : 0,
						"default_fontsize" : 12.0,
						"default_fontface" : 0,
						"default_fontname" : "Arial",
						"gridonopen" : 1,
						"gridsize" : [ 15.0, 15.0 ],
						"gridsnaponopen" : 1,
						"objectsnaponopen" : 1,
						"statusbarvisible" : 2,
						"toolbarvisible" : 1,
						"lefttoolbarpinned" : 0,
						"toptoolbarpinned" : 0,
						"righttoolbarpinned" : 0,
						"bottomtoolbarpinned" : 0,
						"toolbars_unpinned_last_save" : 0,
						"tallnewobj" : 0,
						"boxanimatetime" : 200,
						"enablehscroll" : 1,
						"enablevscroll" : 1,
						"devicewidth" : 0.0,
						"description" : "",
						"digest" : "",
						"tags" : "",
						"style" : "",
						"subpatcher_template" : "",
						"boxes" : [ 							{
								"box" : 								{
									"fontname" : "Avenir Book",
									"fontsize" : 18.0,
									"id" : "obj-33",
									"linecount" : 12,
									"maxclass" : "comment",
									"numinlets" : 1,
									"numoutlets" : 0,
									"patching_rect" : [ 1.0, 2.5, 408.0, 302.0 ],
									"presentation" : 1,
									"presentation_linecount" : 16,
									"presentation_rect" : [ 126.173813, 33.686386, 212.0, 400.0 ],
									"style" : "",
									"text" : "instructions\n\n1) upload arduino sketch\n\"arduivis_Max7_model6_multipleFeedbacks.ino\"\n\n2) update serial ports\n\n3) select arduino from the menu\n\n4) start the communication link\n\n5) observe the output of the arduino",
									"textjustification" : 1
								}

							}
, 							{
								"box" : 								{
									"comment" : "",
									"hidden" : 1,
									"id" : "obj-1",
									"maxclass" : "inlet",
									"numinlets" : 0,
									"numoutlets" : 1,
									"outlettype" : [ "" ],
									"patching_rect" : [ 0.0, 0.0, 15.0, 15.0 ],
									"style" : ""
								}

							}
, 							{
								"box" : 								{
									"angle" : 270.0,
									"background" : 1,
									"bordercolor" : [ 0.0, 0.0, 0.0, 1.0 ],
									"grad1" : [ 1.0, 1.0, 1.0, 1.0 ],
									"grad2" : [ 1.0, 1.0, 1.0, 1.0 ],
									"id" : "obj-2",
									"maxclass" : "panel",
									"mode" : 1,
									"numinlets" : 1,
									"numoutlets" : 0,
									"patching_rect" : [ 0.0, 0.0, 410.0, 307.0 ],
									"presentation" : 1,
									"presentation_rect" : [ 14.333334, 119.479965, 425.21228, 271.071594 ],
									"proportion" : 0.39,
									"rounded" : 4,
									"style" : ""
								}

							}
 ],
						"lines" : [  ]
					}
,
					"patching_rect" : [ 1237.925781, 147.152756, 89.0, 19.0 ],
					"saved_object_attributes" : 					{
						"description" : "",
						"digest" : "",
						"globalpatchername" : "",
						"style" : "",
						"tags" : ""
					}
,
					"style" : "",
					"text" : "patcher instructions"
				}

			}
, 			{
				"box" : 				{
					"fontname" : "Avenir Book",
					"fontsize" : 24.0,
					"id" : "obj-47",
					"linecount" : 2,
					"maxclass" : "comment",
					"numinlets" : 1,
					"numoutlets" : 0,
					"patching_rect" : [ 1175.541382, -5.637772, 104.659729, 72.0 ],
					"presentation" : 1,
					"presentation_rect" : [ 21.180077, 65.441696, 205.198883, 39.0 ],
					"style" : "",
					"text" : "instructions",
					"textcolor" : [ 0.990094, 0.989905, 0.995022, 1.0 ],
					"textjustification" : 1
				}

			}
, 			{
				"box" : 				{
					"fontname" : "Avenir Book",
					"fontsize" : 20.0,
					"id" : "obj-17",
					"maxclass" : "comment",
					"numinlets" : 1,
					"numoutlets" : 0,
					"patching_rect" : [ 904.135559, 500.646423, 390.0, 34.0 ],
					"presentation" : 1,
					"presentation_rect" : [ 16.333336, 18.180031, 425.21228, 34.0 ],
					"style" : "",
					"text" : "arduivis : model#6 - multipleFeedback",
					"textjustification" : 1
				}

			}
, 			{
				"box" : 				{
					"id" : "obj-15",
					"maxclass" : "newobj",
					"numinlets" : 1,
					"numoutlets" : 0,
					"patching_rect" : [ 331.213074, 500.646423, 83.0, 22.0 ],
					"style" : "",
					"text" : "s toFeedback"
				}

			}
, 			{
				"box" : 				{
					"color" : [ 0.74902, 0.705882, 0.662745, 1.0 ],
					"fontface" : 0,
					"fontname" : "Arial",
					"fontsize" : 12.0,
					"id" : "obj-9",
					"maxclass" : "newobj",
					"numinlets" : 1,
					"numoutlets" : 1,
					"outlettype" : [ "" ],
					"patching_rect" : [ 355.723633, 616.86499, 133.0, 22.0 ],
					"style" : "",
					"text" : "prepend set feedback1"
				}

			}
, 			{
				"box" : 				{
					"fontname" : "Avenir Book",
					"fontsize" : 16.0,
					"id" : "obj-12",
					"linecount" : 2,
					"maxclass" : "comment",
					"numinlets" : 1,
					"numoutlets" : 0,
					"patching_rect" : [ 285.723633, 616.86499, 94.0, 50.0 ],
					"presentation" : 1,
					"presentation_rect" : [ 231.118195, 303.188934, 205.760788, 28.0 ],
					"style" : "",
					"text" : "feedback1 210",
					"textcolor" : [ 1.0, 1.0, 1.0, 1.0 ],
					"textjustification" : 1
				}

			}
, 			{
				"box" : 				{
					"fontname" : "Avenir Book",
					"fontsize" : 18.0,
					"id" : "obj-2",
					"maxclass" : "comment",
					"numinlets" : 1,
					"numoutlets" : 0,
					"patching_rect" : [ 780.723633, 43.455093, 95.0, 31.0 ],
					"presentation" : 1,
					"presentation_rect" : [ 231.118195, 256.640198, 205.760788, 31.0 ],
					"style" : "",
					"text" : "feedback",
					"textcolor" : [ 1.0, 1.0, 1.0, 1.0 ],
					"textjustification" : 1
				}

			}
, 			{
				"box" : 				{
					"bgcolor" : [ 1.0, 1.0, 1.0, 1.0 ],
					"fontname" : "Avenir Book",
					"fontsize" : 23.0,
					"htricolor" : [ 0.522927, 0.496771, 0.466867, 1.0 ],
					"id" : "obj-5",
					"maxclass" : "number",
					"minimum" : 0,
					"numinlets" : 1,
					"numoutlets" : 2,
					"outlettype" : [ "", "bang" ],
					"parameter_enable" : 0,
					"patching_rect" : [ 780.723633, 216.313217, 70.0, 40.0 ],
					"style" : "",
					"textcolor" : [ 0.0, 0.0, 0.0, 1.0 ],
					"tricolor" : [ 0.215478, 0.440638, 0.918583, 1.0 ]
				}

			}
, 			{
				"box" : 				{
					"fontname" : "Avenir Book",
					"fontsize" : 18.0,
					"id" : "obj-10",
					"maxclass" : "comment",
					"numinlets" : 1,
					"numoutlets" : 0,
					"patching_rect" : [ 394.871277, 61.728607, 71.329865, 31.0 ],
					"presentation" : 1,
					"presentation_rect" : [ 21.180077, 256.640198, 205.760788, 31.0 ],
					"style" : "",
					"text" : "input",
					"textcolor" : [ 1.0, 1.0, 1.0, 1.0 ],
					"textjustification" : 1
				}

			}
, 			{
				"box" : 				{
					"color" : [ 0.74902, 0.705882, 0.662745, 1.0 ],
					"fontname" : "Arial",
					"fontsize" : 12.0,
					"id" : "obj-69",
					"maxclass" : "newobj",
					"numinlets" : 1,
					"numoutlets" : 1,
					"outlettype" : [ "" ],
					"patching_rect" : [ 284.585449, 328.160583, 129.62764, 22.0 ],
					"style" : "",
					"text" : "append 10"
				}

			}
, 			{
				"box" : 				{
					"color" : [ 0.74902, 0.705882, 0.662745, 1.0 ],
					"fontname" : "Arial",
					"fontsize" : 12.0,
					"id" : "obj-89",
					"maxclass" : "newobj",
					"numinlets" : 3,
					"numoutlets" : 1,
					"outlettype" : [ "list" ],
					"patching_rect" : [ 284.585449, 306.160583, 129.62764, 22.0 ],
					"style" : "",
					"text" : "atoi"
				}

			}
, 			{
				"box" : 				{
					"bgcolor" : [ 1.0, 1.0, 1.0, 1.0 ],
					"fontname" : "Avenir Book",
					"fontsize" : 23.0,
					"htricolor" : [ 0.522927, 0.496771, 0.466867, 1.0 ],
					"id" : "obj-20",
					"maxclass" : "number",
					"minimum" : 0,
					"numinlets" : 1,
					"numoutlets" : 2,
					"outlettype" : [ "", "bang" ],
					"parameter_enable" : 0,
					"patching_rect" : [ 394.871277, 234.586731, 70.0, 40.0 ],
					"style" : "",
					"textcolor" : [ 0.0, 0.0, 0.0, 1.0 ],
					"tricolor" : [ 0.215478, 0.440638, 0.918583, 1.0 ]
				}

			}
, 			{
				"box" : 				{
					"color" : [ 0.74902, 0.705882, 0.662745, 1.0 ],
					"fontface" : 0,
					"fontname" : "Arial",
					"fontsize" : 12.0,
					"id" : "obj-92",
					"maxclass" : "newobj",
					"numinlets" : 8,
					"numoutlets" : 1,
					"outlettype" : [ "" ],
					"patching_rect" : [ 504.425781, 341.657715, 110.0, 22.0 ],
					"style" : "",
					"text" : "pak 0 0 0 0 0 0 0 0"
				}

			}
, 			{
				"box" : 				{
					"fontname" : "Avenir Book",
					"fontsize" : 24.0,
					"id" : "obj-11",
					"maxclass" : "comment",
					"numinlets" : 1,
					"numoutlets" : 0,
					"patching_rect" : [ 851.831177, 427.066833, 337.228546, 39.0 ],
					"style" : "",
					"text" : "arduivis : model#3 - feedback",
					"textjustification" : 1
				}

			}
, 			{
				"box" : 				{
					"comment" : "",
					"id" : "obj-6",
					"maxclass" : "outlet",
					"numinlets" : 1,
					"numoutlets" : 0,
					"patching_rect" : [ 285.723633, 711.41864, 30.0, 30.0 ],
					"style" : ""
				}

			}
, 			{
				"box" : 				{
					"color" : [ 0.74902, 0.705882, 0.662745, 1.0 ],
					"fontface" : 0,
					"fontname" : "Arial",
					"fontsize" : 12.0,
					"id" : "obj-72",
					"maxclass" : "newobj",
					"numinlets" : 1,
					"numoutlets" : 1,
					"outlettype" : [ "" ],
					"patching_rect" : [ 44.723633, 618.625244, 110.0, 22.0 ],
					"style" : "",
					"text" : "prepend set input1"
				}

			}
, 			{
				"box" : 				{
					"fontname" : "Avenir Book",
					"fontsize" : 16.0,
					"id" : "obj-55",
					"maxclass" : "comment",
					"numinlets" : 1,
					"numoutlets" : 0,
					"patching_rect" : [ 44.723633, 646.86499, 94.0, 28.0 ],
					"presentation" : 1,
					"presentation_rect" : [ 16.333334, 303.188934, 210.607529, 28.0 ],
					"style" : "",
					"text" : "input1 0",
					"textcolor" : [ 1.0, 1.0, 1.0, 1.0 ],
					"textjustification" : 1
				}

			}
, 			{
				"box" : 				{
					"fontname" : "Arial",
					"fontsize" : 12.0,
					"id" : "obj-40",
					"maxclass" : "newobj",
					"numinlets" : 1,
					"numoutlets" : 2,
					"outlettype" : [ "", "bang" ],
					"patcher" : 					{
						"fileversion" : 1,
						"appversion" : 						{
							"major" : 7,
							"minor" : 0,
							"revision" : 0,
							"architecture" : "x86",
							"modernui" : 1
						}
,
						"rect" : [ 0.0, 0.0, 640.0, 480.0 ],
						"bglocked" : 0,
						"openinpresentation" : 0,
						"default_fontsize" : 12.0,
						"default_fontface" : 0,
						"default_fontname" : "Arial",
						"gridonopen" : 1,
						"gridsize" : [ 15.0, 15.0 ],
						"gridsnaponopen" : 1,
						"objectsnaponopen" : 1,
						"statusbarvisible" : 2,
						"toolbarvisible" : 1,
						"lefttoolbarpinned" : 0,
						"toptoolbarpinned" : 0,
						"righttoolbarpinned" : 0,
						"bottomtoolbarpinned" : 0,
						"toolbars_unpinned_last_save" : 0,
						"tallnewobj" : 0,
						"boxanimatetime" : 200,
						"enablehscroll" : 1,
						"enablevscroll" : 1,
						"devicewidth" : 0.0,
						"description" : "",
						"digest" : "",
						"tags" : "",
						"style" : "",
						"subpatcher_template" : "",
						"boxes" : [ 							{
								"box" : 								{
									"fontname" : "Arial",
									"fontsize" : 12.0,
									"id" : "obj-79",
									"maxclass" : "message",
									"numinlets" : 2,
									"numoutlets" : 1,
									"outlettype" : [ "" ],
									"patching_rect" : [ 50.0, 160.623413, 37.0, 18.0 ],
									"style" : "",
									"text" : "set 0"
								}

							}
, 							{
								"box" : 								{
									"fontname" : "Arial",
									"fontsize" : 12.0,
									"id" : "obj-80",
									"linecount" : 2,
									"maxclass" : "newobj",
									"numinlets" : 2,
									"numoutlets" : 1,
									"outlettype" : [ "bang" ],
									"patching_rect" : [ 50.0, 127.623383, 41.0, 33.0 ],
									"style" : "",
									"text" : "delay 80"
								}

							}
, 							{
								"box" : 								{
									"fontname" : "Arial",
									"fontsize" : 12.0,
									"id" : "obj-81",
									"maxclass" : "newobj",
									"numinlets" : 2,
									"numoutlets" : 2,
									"outlettype" : [ "bang", "" ],
									"patching_rect" : [ 50.0, 100.0, 55.751682, 20.0 ],
									"style" : "",
									"text" : "sel 1"
								}

							}
, 							{
								"box" : 								{
									"bgcolor" : [ 0.692156, 0.657535, 0.617954, 1.0 ],
									"blinkcolor" : [ 0.215478, 0.440638, 0.918583, 1.0 ],
									"id" : "obj-1",
									"maxclass" : "button",
									"numinlets" : 1,
									"numoutlets" : 1,
									"outlettype" : [ "bang" ],
									"outlinecolor" : [ 0.215478, 0.440638, 0.918583, 1.0 ],
									"patching_rect" : [ 90.124161, 127.623383, 13.875839, 13.875839 ],
									"style" : ""
								}

							}
, 							{
								"box" : 								{
									"comment" : "",
									"id" : "obj-30",
									"maxclass" : "inlet",
									"numinlets" : 0,
									"numoutlets" : 1,
									"outlettype" : [ "" ],
									"patching_rect" : [ 50.0, 40.0, 25.0, 25.0 ],
									"style" : ""
								}

							}
, 							{
								"box" : 								{
									"comment" : "",
									"id" : "obj-31",
									"maxclass" : "outlet",
									"numinlets" : 1,
									"numoutlets" : 0,
									"patching_rect" : [ 50.0, 238.623413, 25.0, 25.0 ],
									"style" : ""
								}

							}
, 							{
								"box" : 								{
									"comment" : "",
									"id" : "obj-32",
									"maxclass" : "outlet",
									"numinlets" : 1,
									"numoutlets" : 0,
									"patching_rect" : [ 89.124161, 238.623413, 25.0, 25.0 ],
									"style" : ""
								}

							}
 ],
						"lines" : [ 							{
								"patchline" : 								{
									"destination" : [ "obj-32", 0 ],
									"disabled" : 0,
									"hidden" : 0,
									"source" : [ "obj-1", 0 ]
								}

							}
, 							{
								"patchline" : 								{
									"destination" : [ "obj-81", 0 ],
									"disabled" : 0,
									"hidden" : 0,
									"source" : [ "obj-30", 0 ]
								}

							}
, 							{
								"patchline" : 								{
									"destination" : [ "obj-31", 0 ],
									"disabled" : 0,
									"hidden" : 0,
									"source" : [ "obj-79", 0 ]
								}

							}
, 							{
								"patchline" : 								{
									"destination" : [ "obj-79", 0 ],
									"disabled" : 0,
									"hidden" : 0,
									"source" : [ "obj-80", 0 ]
								}

							}
, 							{
								"patchline" : 								{
									"destination" : [ "obj-1", 0 ],
									"disabled" : 0,
									"hidden" : 0,
									"midpoints" : [ 59.5, 123.311691, 98.0, 123.311691 ],
									"source" : [ "obj-81", 0 ]
								}

							}
, 							{
								"patchline" : 								{
									"destination" : [ "obj-80", 0 ],
									"disabled" : 0,
									"hidden" : 0,
									"source" : [ "obj-81", 0 ]
								}

							}
 ]
					}
,
					"patching_rect" : [ 44.615601, 162.886322, 81.0, 22.0 ],
					"saved_object_attributes" : 					{
						"description" : "",
						"digest" : "",
						"globalpatchername" : "",
						"style" : "",
						"tags" : ""
					}
,
					"style" : "",
					"text" : "p momentary"
				}

			}
, 			{
				"box" : 				{
					"fontname" : "Arial",
					"fontsize" : 12.0,
					"id" : "obj-29",
					"maxclass" : "newobj",
					"numinlets" : 1,
					"numoutlets" : 1,
					"outlettype" : [ "" ],
					"patcher" : 					{
						"fileversion" : 1,
						"appversion" : 						{
							"major" : 7,
							"minor" : 0,
							"revision" : 0,
							"architecture" : "x86",
							"modernui" : 1
						}
,
						"rect" : [ 29.0, 69.0, 144.0, 225.0 ],
						"bglocked" : 0,
						"openinpresentation" : 0,
						"default_fontsize" : 12.0,
						"default_fontface" : 0,
						"default_fontname" : "Arial",
						"gridonopen" : 1,
						"gridsize" : [ 15.0, 15.0 ],
						"gridsnaponopen" : 1,
						"objectsnaponopen" : 1,
						"statusbarvisible" : 2,
						"toolbarvisible" : 1,
						"lefttoolbarpinned" : 0,
						"toptoolbarpinned" : 0,
						"righttoolbarpinned" : 0,
						"bottomtoolbarpinned" : 0,
						"toolbars_unpinned_last_save" : 0,
						"tallnewobj" : 0,
						"boxanimatetime" : 200,
						"enablehscroll" : 1,
						"enablevscroll" : 1,
						"devicewidth" : 0.0,
						"description" : "",
						"digest" : "",
						"tags" : "",
						"style" : "",
						"subpatcher_template" : "",
						"boxes" : [ 							{
								"box" : 								{
									"bgfillcolor_angle" : 270.0,
									"bgfillcolor_autogradient" : 0.79,
									"bgfillcolor_color" : [ 0.290196, 0.309804, 0.301961, 1.0 ],
									"bgfillcolor_color1" : [ 0.74902, 0.705882, 0.662745, 1.0 ],
									"bgfillcolor_color2" : [ 0.685, 0.685, 0.685, 1.0 ],
									"bgfillcolor_proportion" : 0.39,
									"bgfillcolor_type" : "gradient",
									"fontname" : "Trebuchet MS",
									"fontsize" : 14.0,
									"id" : "obj-4",
									"maxclass" : "message",
									"numinlets" : 2,
									"numoutlets" : 1,
									"outlettype" : [ "" ],
									"patching_rect" : [ 9.0, 46.0, 54.748322, 21.0 ],
									"style" : "",
									"text" : "update",
									"textcolor" : [ 0.0, 0.0, 0.0, 1.0 ]
								}

							}
, 							{
								"box" : 								{
									"fontname" : "Arial",
									"fontsize" : 12.0,
									"id" : "obj-32",
									"maxclass" : "newobj",
									"numinlets" : 1,
									"numoutlets" : 1,
									"outlettype" : [ "" ],
									"patching_rect" : [ 29.0, 160.295471, 98.0, 20.0 ],
									"style" : "",
									"text" : "prepend append"
								}

							}
, 							{
								"box" : 								{
									"fontname" : "Arial",
									"fontsize" : 12.0,
									"id" : "obj-31",
									"maxclass" : "newobj",
									"numinlets" : 1,
									"numoutlets" : 1,
									"outlettype" : [ "clear" ],
									"patching_rect" : [ 56.0, 134.327026, 43.0, 20.0 ],
									"style" : "",
									"text" : "t clear"
								}

							}
, 							{
								"box" : 								{
									"fontname" : "Arial",
									"fontsize" : 12.0,
									"id" : "obj-30",
									"maxclass" : "newobj",
									"numinlets" : 1,
									"numoutlets" : 1,
									"outlettype" : [ "" ],
									"patching_rect" : [ 29.0, 134.327026, 27.0, 20.0 ],
									"style" : "",
									"text" : "iter"
								}

							}
, 							{
								"box" : 								{
									"fontname" : "Arial",
									"fontsize" : 12.0,
									"id" : "obj-29",
									"maxclass" : "newobj",
									"numinlets" : 2,
									"numoutlets" : 2,
									"outlettype" : [ "", "" ],
									"patching_rect" : [ 29.0, 109.200684, 62.0, 20.0 ],
									"style" : "",
									"text" : "route port"
								}

							}
, 							{
								"box" : 								{
									"fontname" : "Arial",
									"fontsize" : 12.0,
									"id" : "obj-7",
									"maxclass" : "newobj",
									"numinlets" : 1,
									"numoutlets" : 2,
									"outlettype" : [ "int", "" ],
									"patching_rect" : [ 9.0, 89.200684, 39.0, 20.0 ],
									"style" : "",
									"text" : "serial"
								}

							}
, 							{
								"box" : 								{
									"fontname" : "Arial",
									"fontsize" : 12.0,
									"id" : "obj-8",
									"maxclass" : "newobj",
									"numinlets" : 1,
									"numoutlets" : 1,
									"outlettype" : [ "print" ],
									"patching_rect" : [ 9.0, 68.0, 41.0, 20.0 ],
									"style" : "",
									"text" : "t print"
								}

							}
, 							{
								"box" : 								{
									"comment" : "",
									"id" : "obj-23",
									"maxclass" : "inlet",
									"numinlets" : 0,
									"numoutlets" : 1,
									"outlettype" : [ "bang" ],
									"patching_rect" : [ 9.0, 6.0, 25.0, 25.0 ],
									"style" : ""
								}

							}
, 							{
								"box" : 								{
									"comment" : "",
									"id" : "obj-26",
									"maxclass" : "outlet",
									"numinlets" : 1,
									"numoutlets" : 0,
									"patching_rect" : [ 29.0, 195.295471, 25.0, 25.0 ],
									"style" : ""
								}

							}
 ],
						"lines" : [ 							{
								"patchline" : 								{
									"destination" : [ "obj-4", 0 ],
									"disabled" : 0,
									"hidden" : 0,
									"source" : [ "obj-23", 0 ]
								}

							}
, 							{
								"patchline" : 								{
									"destination" : [ "obj-30", 0 ],
									"disabled" : 0,
									"hidden" : 0,
									"source" : [ "obj-29", 0 ]
								}

							}
, 							{
								"patchline" : 								{
									"destination" : [ "obj-31", 0 ],
									"disabled" : 0,
									"hidden" : 0,
									"midpoints" : [ 38.5, 130.857178, 65.5, 130.857178 ],
									"source" : [ "obj-29", 0 ]
								}

							}
, 							{
								"patchline" : 								{
									"destination" : [ "obj-32", 0 ],
									"disabled" : 0,
									"hidden" : 0,
									"source" : [ "obj-30", 0 ]
								}

							}
, 							{
								"patchline" : 								{
									"destination" : [ "obj-26", 0 ],
									"disabled" : 0,
									"hidden" : 0,
									"midpoints" : [ 65.5, 156.0, 15.0, 156.0, 15.0, 192.0, 38.5, 192.0 ],
									"source" : [ "obj-31", 0 ]
								}

							}
, 							{
								"patchline" : 								{
									"destination" : [ "obj-26", 0 ],
									"disabled" : 0,
									"hidden" : 0,
									"midpoints" : [ 38.5, 180.0, 38.5, 180.0 ],
									"source" : [ "obj-32", 0 ]
								}

							}
, 							{
								"patchline" : 								{
									"destination" : [ "obj-8", 0 ],
									"disabled" : 0,
									"hidden" : 0,
									"source" : [ "obj-4", 0 ]
								}

							}
, 							{
								"patchline" : 								{
									"destination" : [ "obj-29", 0 ],
									"disabled" : 0,
									"hidden" : 0,
									"source" : [ "obj-7", 1 ]
								}

							}
, 							{
								"patchline" : 								{
									"destination" : [ "obj-7", 0 ],
									"disabled" : 0,
									"hidden" : 0,
									"source" : [ "obj-8", 0 ]
								}

							}
 ]
					}
,
					"patching_rect" : [ 44.723633, 192.821136, 57.0, 22.0 ],
					"saved_object_attributes" : 					{
						"description" : "",
						"digest" : "",
						"globalpatchername" : "",
						"style" : "",
						"tags" : ""
					}
,
					"style" : "",
					"text" : "p update"
				}

			}
, 			{
				"box" : 				{
					"color" : [ 0.74902, 0.705882, 0.662745, 1.0 ],
					"fontname" : "Arial",
					"fontsize" : 13.0,
					"id" : "obj-939",
					"maxclass" : "newobj",
					"numinlets" : 2,
					"numoutlets" : 1,
					"outlettype" : [ "bang" ],
					"patching_rect" : [ 284.585449, 218.076782, 62.0, 23.0 ],
					"style" : "",
					"text" : "metro 50"
				}

			}
, 			{
				"box" : 				{
					"color" : [ 0.74902, 0.705882, 0.662745, 1.0 ],
					"fontface" : 0,
					"fontname" : "Arial",
					"fontsize" : 12.0,
					"id" : "obj-43",
					"maxclass" : "newobj",
					"numinlets" : 1,
					"numoutlets" : 4,
					"outlettype" : [ "int", "int", "int", "int" ],
					"patching_rect" : [ 44.723633, 508.519287, 89.0, 22.0 ],
					"style" : "",
					"text" : "unpack 0 0 0 0"
				}

			}
, 			{
				"box" : 				{
					"color" : [ 0.74902, 0.705882, 0.662745, 1.0 ],
					"fontname" : "Arial",
					"fontsize" : 12.0,
					"id" : "obj-44",
					"maxclass" : "newobj",
					"numinlets" : 1,
					"numoutlets" : 1,
					"outlettype" : [ "" ],
					"patching_rect" : [ 44.723633, 484.519287, 165.0, 22.0 ],
					"style" : "",
					"text" : "fromsymbol"
				}

			}
, 			{
				"box" : 				{
					"color" : [ 0.74902, 0.705882, 0.662745, 1.0 ],
					"fontname" : "Arial",
					"fontsize" : 12.0,
					"id" : "obj-51",
					"maxclass" : "newobj",
					"numinlets" : 3,
					"numoutlets" : 1,
					"outlettype" : [ "int" ],
					"patching_rect" : [ 44.723633, 459.566833, 165.0, 22.0 ],
					"style" : "",
					"text" : "itoa"
				}

			}
, 			{
				"box" : 				{
					"color" : [ 0.74902, 0.705882, 0.662745, 1.0 ],
					"fontname" : "Arial",
					"fontsize" : 12.0,
					"id" : "obj-52",
					"maxclass" : "newobj",
					"numinlets" : 2,
					"numoutlets" : 2,
					"outlettype" : [ "", "" ],
					"patching_rect" : [ 44.723633, 435.566833, 165.0, 22.0 ],
					"style" : "",
					"text" : "zl group 1000"
				}

			}
, 			{
				"box" : 				{
					"color" : [ 0.74902, 0.705882, 0.662745, 1.0 ],
					"fontname" : "Arial",
					"fontsize" : 12.0,
					"id" : "obj-53",
					"maxclass" : "newobj",
					"numinlets" : 3,
					"numoutlets" : 3,
					"outlettype" : [ "bang", "bang", "" ],
					"patching_rect" : [ 44.723633, 402.473938, 165.0, 22.0 ],
					"style" : "",
					"text" : "sel 13 10"
				}

			}
, 			{
				"box" : 				{
					"fontname" : "Avenir Book",
					"fontsize" : 24.0,
					"id" : "obj-35",
					"maxclass" : "comment",
					"numinlets" : 1,
					"numoutlets" : 0,
					"patching_rect" : [ 294.415314, 89.728607, 85.0, 39.0 ],
					"presentation" : 1,
					"presentation_rect" : [ 21.180077, 208.374268, 415.698914, 39.0 ],
					"style" : "",
					"text" : "start",
					"textcolor" : [ 0.990094, 0.989905, 0.995022, 1.0 ],
					"textjustification" : 1
				}

			}
, 			{
				"box" : 				{
					"fontname" : "Avenir Book",
					"fontsize" : 24.0,
					"id" : "obj-33",
					"linecount" : 3,
					"maxclass" : "comment",
					"numinlets" : 1,
					"numoutlets" : 0,
					"patching_rect" : [ 48.445465, 61.728607, 97.0, 105.0 ],
					"presentation" : 1,
					"presentation_rect" : [ 112.840492, 119.019714, 232.378082, 39.0 ],
					"style" : "",
					"text" : "update serial ports",
					"textcolor" : [ 1.0, 1.0, 1.0, 1.0 ],
					"textjustification" : 1
				}

			}
, 			{
				"box" : 				{
					"fontname" : "Avenir Book",
					"fontsize" : 16.0,
					"id" : "obj-14",
					"maxclass" : "comment",
					"numinlets" : 1,
					"numoutlets" : 0,
					"patching_rect" : [ 45.615601, 56.715332, 23.0, 28.0 ],
					"style" : "",
					"text" : "1",
					"textcolor" : [ 0.990094, 0.989905, 0.995022, 1.0 ],
					"textjustification" : 1
				}

			}
, 			{
				"box" : 				{
					"fontname" : "Avenir Book",
					"fontsize" : 16.0,
					"id" : "obj-3",
					"maxclass" : "comment",
					"numinlets" : 1,
					"numoutlets" : 0,
					"patching_rect" : [ 286.585449, 55.715332, 23.0, 28.0 ],
					"style" : "",
					"text" : "2",
					"textcolor" : [ 0.990094, 0.989905, 0.995022, 1.0 ],
					"textjustification" : 1
				}

			}
, 			{
				"box" : 				{
					"color" : [ 0.74902, 0.705882, 0.662745, 1.0 ],
					"fontname" : "Trebuchet MS",
					"fontsize" : 12.0,
					"id" : "obj-567",
					"maxclass" : "newobj",
					"numinlets" : 1,
					"numoutlets" : 1,
					"outlettype" : [ "" ],
					"patching_rect" : [ 44.723633, 258.076782, 84.0, 22.0 ],
					"style" : "",
					"text" : "prepend port"
				}

			}
, 			{
				"box" : 				{
					"align" : 1,
					"bgfillcolor_angle" : 270.0,
					"bgfillcolor_autogradient" : 0,
					"bgfillcolor_color" : [ 0.317647, 0.654902, 0.976471, 1.0 ],
					"bgfillcolor_color1" : [ 0.376471, 0.384314, 0.4, 1.0 ],
					"bgfillcolor_color2" : [ 0.290196, 0.309804, 0.301961, 1.0 ],
					"bgfillcolor_proportion" : 0.39,
					"bgfillcolor_type" : "color",
					"color" : [ 0.650963, 0.655203, 0.777106, 1.0 ],
					"elementcolor" : [ 0.650963, 0.655203, 0.777106, 1.0 ],
					"fontface" : 0,
					"fontname" : "Avenir Book",
					"fontsize" : 24.0,
					"id" : "obj-1129",
					"items" : [ "HC-05-DevB", ",", "AdafruitEZ-Link15b9-SPP", ",", "AdafruitEZ-Link2a86-SPP", ",", "Bluetooth-Modem", ",", "Bluetooth-Incoming-Port", ",", "csKonopkasiPhone-Wirele", ",", "usbmodem1411" ],
					"maxclass" : "umenu",
					"numinlets" : 1,
					"numoutlets" : 3,
					"outlettype" : [ "int", "", "" ],
					"parameter_enable" : 1,
					"patching_rect" : [ 44.723633, 218.076782, 234.861816, 41.0 ],
					"pattrmode" : 1,
					"presentation" : 1,
					"presentation_rect" : [ 21.180077, 163.196991, 415.698883, 41.0 ],
					"saved_attribute_attributes" : 					{
						"valueof" : 						{
							"parameter_longname" : "umenu",
							"parameter_shortname" : "umenu",
							"parameter_type" : 3,
							"parameter_invisible" : 1
						}

					}
,
					"style" : "",
					"textcolor" : [ 0.0, 0.0, 0.0, 1.0 ],
					"textjustification" : 1,
					"varname" : "umenu"
				}

			}
, 			{
				"box" : 				{
					"color" : [ 0.74902, 0.705882, 0.662745, 1.0 ],
					"fontname" : "Avenir Book",
					"fontsize" : 12.0,
					"id" : "obj-25",
					"maxclass" : "newobj",
					"numinlets" : 1,
					"numoutlets" : 2,
					"outlettype" : [ "int", "" ],
					"patching_rect" : [ 44.723633, 376.540283, 110.0, 25.0 ],
					"style" : "",
					"text" : "serial portA 9600"
				}

			}
, 			{
				"box" : 				{
					"activebgcolor" : [ 0.0, 0.078431, 0.321569, 1.0 ],
					"activebgoncolor" : [ 0.215478, 0.440638, 0.918583, 1.0 ],
					"background" : 1,
					"bgcolor" : [ 0.811765, 0.768627, 0.721569, 1.0 ],
					"bgoncolor" : [ 0.215478, 0.440638, 0.918583, 1.0 ],
					"bordercolor" : [ 0.0, 0.0, 0.0, 1.0 ],
					"id" : "obj-66",
					"maxclass" : "live.toggle",
					"numinlets" : 1,
					"numoutlets" : 1,
					"outlettype" : [ "" ],
					"parameter_enable" : 1,
					"patching_rect" : [ 284.585449, 53.715332, 104.659729, 107.02655 ],
					"presentation" : 1,
					"presentation_rect" : [ 21.180077, 208.374268, 415.698914, 39.177277 ],
					"rounded" : 10.0,
					"saved_attribute_attributes" : 					{
						"valueof" : 						{
							"parameter_longname" : "live.toggle[1]",
							"parameter_shortname" : "live.toggle",
							"parameter_type" : 2,
							"parameter_mmax" : 1.0,
							"parameter_enum" : [ "off", "on" ]
						}

					}
,
					"varname" : "live.toggle[1]"
				}

			}
, 			{
				"box" : 				{
					"angle" : 270.0,
					"background" : 1,
					"bordercolor" : [ 0.0, 0.0, 0.0, 1.0 ],
					"grad1" : [ 1.0, 1.0, 1.0, 1.0 ],
					"grad2" : [ 1.0, 1.0, 1.0, 1.0 ],
					"id" : "obj-73",
					"maxclass" : "panel",
					"mode" : 1,
					"numinlets" : 1,
					"numoutlets" : 0,
					"patching_rect" : [ 851.831177, 427.066833, 337.228546, 39.0 ],
					"proportion" : 0.39,
					"rounded" : 4,
					"style" : ""
				}

			}
, 			{
				"box" : 				{
					"background" : 1,
					"bgcolor" : [ 0.0, 0.078431, 0.321569, 1.0 ],
					"elementcolor" : [ 0.317647, 0.654902, 0.976471, 1.0 ],
					"id" : "obj-7",
					"knobcolor" : [ 0.0, 0.078431, 0.321569, 1.0 ],
					"knobshape" : 4,
					"maxclass" : "slider",
					"numinlets" : 1,
					"numoutlets" : 1,
					"outlettype" : [ "" ],
					"parameter_enable" : 0,
					"patching_rect" : [ 780.723633, 35.441818, 70.0, 179.379318 ],
					"presentation" : 1,
					"presentation_rect" : [ 231.118195, 252.551544, 205.760788, 39.177277 ],
					"size" : 255.0,
					"style" : ""
				}

			}
, 			{
				"box" : 				{
					"background" : 1,
					"bgcolor" : [ 0.095481, 0.100396, 0.100293, 1.0 ],
					"id" : "obj-13",
					"maxclass" : "multislider",
					"numinlets" : 1,
					"numoutlets" : 2,
					"outlettype" : [ "", "" ],
					"parameter_enable" : 0,
					"patching_rect" : [ 285.723633, 588.625244, 229.62085, 108.793373 ],
					"presentation" : 1,
					"presentation_rect" : [ 231.118195, 296.608551, 205.760788, 41.160767 ],
					"setminmax" : [ 0.0, 255.0 ],
					"setstyle" : 3,
					"slidercolor" : [ 0.317647, 0.654902, 0.976471, 1.0 ],
					"style" : ""
				}

			}
, 			{
				"box" : 				{
					"background" : 1,
					"bgcolor" : [ 0.0, 0.078431, 0.321569, 1.0 ],
					"elementcolor" : [ 0.317647, 0.654902, 0.976471, 1.0 ],
					"id" : "obj-65",
					"knobcolor" : [ 0.0, 0.078431, 0.321569, 1.0 ],
					"knobshape" : 4,
					"maxclass" : "slider",
					"numinlets" : 1,
					"numoutlets" : 1,
					"outlettype" : [ "" ],
					"parameter_enable" : 0,
					"patching_rect" : [ 1025.135498, 35.441818, 70.0, 179.379318 ],
					"presentation" : 1,
					"presentation_rect" : [ 231.118195, 522.551514, 205.760788, 39.177277 ],
					"size" : 255.0,
					"style" : ""
				}

			}
, 			{
				"box" : 				{
					"background" : 1,
					"bgcolor" : [ 0.095481, 0.100396, 0.100293, 1.0 ],
					"id" : "obj-67",
					"maxclass" : "multislider",
					"numinlets" : 1,
					"numoutlets" : 2,
					"outlettype" : [ "", "" ],
					"parameter_enable" : 0,
					"patching_rect" : [ 1770.723633, 588.625244, 229.62085, 108.793373 ],
					"presentation" : 1,
					"presentation_rect" : [ 231.118195, 566.608521, 205.760788, 41.160767 ],
					"setminmax" : [ 0.0, 255.0 ],
					"setstyle" : 3,
					"slidercolor" : [ 0.317647, 0.654902, 0.976471, 1.0 ],
					"style" : ""
				}

			}
, 			{
				"box" : 				{
					"background" : 1,
					"bgcolor" : [ 0.095481, 0.100396, 0.100293, 1.0 ],
					"id" : "obj-68",
					"maxclass" : "multislider",
					"numinlets" : 1,
					"numoutlets" : 2,
					"outlettype" : [ "", "" ],
					"parameter_enable" : 0,
					"patching_rect" : [ 1529.723633, 588.625244, 229.62085, 108.793373 ],
					"presentation" : 1,
					"presentation_rect" : [ 21.180077, 566.608521, 205.760788, 41.160767 ],
					"setminmax" : [ 0.0, 255.0 ],
					"setstyle" : 3,
					"slidercolor" : [ 0.317647, 0.654902, 0.976471, 1.0 ],
					"style" : ""
				}

			}
, 			{
				"box" : 				{
					"background" : 1,
					"bgcolor" : [ 0.0, 0.078431, 0.321569, 1.0 ],
					"elementcolor" : [ 0.317647, 0.654902, 0.976471, 1.0 ],
					"id" : "obj-71",
					"knobcolor" : [ 0.0, 0.078431, 0.321569, 1.0 ],
					"knobshape" : 4,
					"maxclass" : "slider",
					"numinlets" : 1,
					"numoutlets" : 1,
					"outlettype" : [ "" ],
					"parameter_enable" : 0,
					"patching_rect" : [ 635.541382, 55.715332, 70.0, 179.379318 ],
					"presentation" : 1,
					"presentation_rect" : [ 21.180077, 522.551514, 205.760788, 39.177277 ],
					"size" : 255.0,
					"style" : ""
				}

			}
, 			{
				"box" : 				{
					"background" : 1,
					"bgcolor" : [ 0.0, 0.078431, 0.321569, 1.0 ],
					"elementcolor" : [ 0.317647, 0.654902, 0.976471, 1.0 ],
					"id" : "obj-56",
					"knobcolor" : [ 0.0, 0.078431, 0.321569, 1.0 ],
					"knobshape" : 4,
					"maxclass" : "slider",
					"numinlets" : 1,
					"numoutlets" : 1,
					"outlettype" : [ "" ],
					"parameter_enable" : 0,
					"patching_rect" : [ 943.723633, 35.441818, 70.0, 179.379318 ],
					"presentation" : 1,
					"presentation_rect" : [ 231.118195, 432.551544, 205.760788, 39.177277 ],
					"size" : 255.0,
					"style" : ""
				}

			}
, 			{
				"box" : 				{
					"background" : 1,
					"bgcolor" : [ 0.095481, 0.100396, 0.100293, 1.0 ],
					"id" : "obj-58",
					"maxclass" : "multislider",
					"numinlets" : 1,
					"numoutlets" : 2,
					"outlettype" : [ "", "" ],
					"parameter_enable" : 0,
					"patching_rect" : [ 1275.723633, 588.625244, 229.62085, 108.793373 ],
					"presentation" : 1,
					"presentation_rect" : [ 231.118195, 476.608551, 205.760788, 41.160767 ],
					"setminmax" : [ 0.0, 255.0 ],
					"setstyle" : 3,
					"slidercolor" : [ 0.317647, 0.654902, 0.976471, 1.0 ],
					"style" : ""
				}

			}
, 			{
				"box" : 				{
					"background" : 1,
					"bgcolor" : [ 0.095481, 0.100396, 0.100293, 1.0 ],
					"id" : "obj-59",
					"maxclass" : "multislider",
					"numinlets" : 1,
					"numoutlets" : 2,
					"outlettype" : [ "", "" ],
					"parameter_enable" : 0,
					"patching_rect" : [ 1034.723633, 588.625244, 229.62085, 108.793373 ],
					"presentation" : 1,
					"presentation_rect" : [ 21.180077, 476.608551, 205.760788, 41.160767 ],
					"setminmax" : [ 0.0, 255.0 ],
					"setstyle" : 3,
					"slidercolor" : [ 0.317647, 0.654902, 0.976471, 1.0 ],
					"style" : ""
				}

			}
, 			{
				"box" : 				{
					"background" : 1,
					"bgcolor" : [ 0.0, 0.078431, 0.321569, 1.0 ],
					"elementcolor" : [ 0.317647, 0.654902, 0.976471, 1.0 ],
					"id" : "obj-60",
					"knobcolor" : [ 0.0, 0.078431, 0.321569, 1.0 ],
					"knobshape" : 4,
					"maxclass" : "slider",
					"numinlets" : 1,
					"numoutlets" : 1,
					"outlettype" : [ "" ],
					"parameter_enable" : 0,
					"patching_rect" : [ 555.723633, 55.715332, 70.0, 179.379318 ],
					"presentation" : 1,
					"presentation_rect" : [ 21.180077, 432.551544, 205.760788, 39.177277 ],
					"size" : 255.0,
					"style" : ""
				}

			}
, 			{
				"box" : 				{
					"background" : 1,
					"bgcolor" : [ 0.0, 0.078431, 0.321569, 1.0 ],
					"elementcolor" : [ 0.317647, 0.654902, 0.976471, 1.0 ],
					"id" : "obj-34",
					"knobcolor" : [ 0.0, 0.078431, 0.321569, 1.0 ],
					"knobshape" : 4,
					"maxclass" : "slider",
					"numinlets" : 1,
					"numoutlets" : 1,
					"outlettype" : [ "" ],
					"parameter_enable" : 0,
					"patching_rect" : [ 860.534058, 35.441818, 70.0, 179.379318 ],
					"presentation" : 1,
					"presentation_rect" : [ 231.118195, 342.551544, 205.760788, 39.177277 ],
					"size" : 255.0,
					"style" : ""
				}

			}
, 			{
				"box" : 				{
					"background" : 1,
					"bgcolor" : [ 0.095481, 0.100396, 0.100293, 1.0 ],
					"id" : "obj-36",
					"maxclass" : "multislider",
					"numinlets" : 1,
					"numoutlets" : 2,
					"outlettype" : [ "", "" ],
					"parameter_enable" : 0,
					"patching_rect" : [ 780.723633, 588.625244, 229.62085, 108.793373 ],
					"presentation" : 1,
					"presentation_rect" : [ 231.118195, 386.608551, 205.760788, 41.160767 ],
					"setminmax" : [ 0.0, 255.0 ],
					"setstyle" : 3,
					"slidercolor" : [ 0.317647, 0.654902, 0.976471, 1.0 ],
					"style" : ""
				}

			}
, 			{
				"box" : 				{
					"background" : 1,
					"bgcolor" : [ 0.095481, 0.100396, 0.100293, 1.0 ],
					"id" : "obj-38",
					"maxclass" : "multislider",
					"numinlets" : 1,
					"numoutlets" : 2,
					"outlettype" : [ "", "" ],
					"parameter_enable" : 0,
					"patching_rect" : [ 539.723633, 588.625244, 229.62085, 108.793373 ],
					"presentation" : 1,
					"presentation_rect" : [ 21.180077, 386.608551, 205.760788, 41.160767 ],
					"setminmax" : [ 0.0, 255.0 ],
					"setstyle" : 3,
					"slidercolor" : [ 0.317647, 0.654902, 0.976471, 1.0 ],
					"style" : ""
				}

			}
, 			{
				"box" : 				{
					"background" : 1,
					"bgcolor" : [ 0.0, 0.078431, 0.321569, 1.0 ],
					"elementcolor" : [ 0.317647, 0.654902, 0.976471, 1.0 ],
					"id" : "obj-46",
					"knobcolor" : [ 0.0, 0.078431, 0.321569, 1.0 ],
					"knobshape" : 4,
					"maxclass" : "slider",
					"numinlets" : 1,
					"numoutlets" : 1,
					"outlettype" : [ "" ],
					"parameter_enable" : 0,
					"patching_rect" : [ 474.925781, 55.715332, 70.0, 179.379318 ],
					"presentation" : 1,
					"presentation_rect" : [ 21.180077, 342.551544, 205.760788, 39.177277 ],
					"size" : 255.0,
					"style" : ""
				}

			}
, 			{
				"box" : 				{
					"activebgcolor" : [ 0.0, 0.078431, 0.321569, 1.0 ],
					"activebgoncolor" : [ 0.215478, 0.440638, 0.918583, 1.0 ],
					"background" : 1,
					"bgcolor" : [ 0.811765, 0.768627, 0.721569, 1.0 ],
					"bgoncolor" : [ 0.215478, 0.440638, 0.918583, 1.0 ],
					"bordercolor" : [ 0.0, 0.0, 0.0, 1.0 ],
					"id" : "obj-70",
					"maxclass" : "live.toggle",
					"numinlets" : 1,
					"numoutlets" : 1,
					"outlettype" : [ "" ],
					"parameter_enable" : 1,
					"patching_rect" : [ 44.615601, 53.715332, 104.659729, 107.02655 ],
					"presentation" : 1,
					"presentation_rect" : [ 21.180077, 119.019714, 415.698883, 39.177277 ],
					"rounded" : 10.0,
					"saved_attribute_attributes" : 					{
						"valueof" : 						{
							"parameter_longname" : "live.toggle[3]",
							"parameter_shortname" : "live.toggle",
							"parameter_type" : 2,
							"parameter_mmax" : 1.0,
							"parameter_enum" : [ "off", "on" ]
						}

					}
,
					"varname" : "live.toggle[3]"
				}

			}
, 			{
				"box" : 				{
					"background" : 1,
					"bgcolor" : [ 0.095481, 0.100396, 0.100293, 1.0 ],
					"id" : "obj-57",
					"maxclass" : "multislider",
					"numinlets" : 1,
					"numoutlets" : 2,
					"outlettype" : [ "", "" ],
					"parameter_enable" : 0,
					"patching_rect" : [ 44.723633, 588.625244, 229.62085, 108.793373 ],
					"presentation" : 1,
					"presentation_rect" : [ 21.180077, 296.608551, 205.760788, 41.160767 ],
					"setminmax" : [ 0.0, 255.0 ],
					"setstyle" : 3,
					"slidercolor" : [ 0.317647, 0.654902, 0.976471, 1.0 ],
					"style" : ""
				}

			}
, 			{
				"box" : 				{
					"background" : 1,
					"bgcolor" : [ 0.0, 0.078431, 0.321569, 1.0 ],
					"elementcolor" : [ 0.317647, 0.654902, 0.976471, 1.0 ],
					"id" : "obj-125",
					"knobcolor" : [ 0.0, 0.078431, 0.321569, 1.0 ],
					"knobshape" : 4,
					"maxclass" : "slider",
					"numinlets" : 1,
					"numoutlets" : 1,
					"outlettype" : [ "" ],
					"parameter_enable" : 0,
					"patching_rect" : [ 394.871277, 53.715332, 70.0, 179.379318 ],
					"presentation" : 1,
					"presentation_rect" : [ 21.180077, 252.551544, 205.760788, 39.177277 ],
					"size" : 255.0,
					"style" : ""
				}

			}
, 			{
				"box" : 				{
					"angle" : 270.0,
					"background" : 1,
					"bordercolor" : [ 0.0, 0.0, 0.0, 1.0 ],
					"grad1" : [ 1.0, 1.0, 1.0, 1.0 ],
					"grad2" : [ 1.0, 1.0, 1.0, 1.0 ],
					"id" : "obj-1",
					"maxclass" : "panel",
					"mode" : 1,
					"numinlets" : 1,
					"numoutlets" : 0,
					"patching_rect" : [ 166.585449, 55.715332, 102.659729, 102.513275 ],
					"presentation" : 1,
					"presentation_rect" : [ 16.333359, 114.479965, 425.21228, 498.289307 ],
					"proportion" : 0.39,
					"rounded" : 4,
					"style" : ""
				}

			}
, 			{
				"box" : 				{
					"angle" : 270.0,
					"background" : 1,
					"bordercolor" : [ 0.0, 0.0, 0.0, 1.0 ],
					"grad1" : [ 1.0, 1.0, 1.0, 1.0 ],
					"grad2" : [ 1.0, 1.0, 1.0, 1.0 ],
					"id" : "obj-18",
					"maxclass" : "panel",
					"mode" : 1,
					"numinlets" : 1,
					"numoutlets" : 0,
					"patching_rect" : [ 904.135559, 500.646423, 312.0, 39.0 ],
					"presentation" : 1,
					"presentation_rect" : [ 16.333336, 15.591393, 425.21228, 39.177277 ],
					"proportion" : 0.39,
					"rounded" : 4,
					"style" : ""
				}

			}
, 			{
				"box" : 				{
					"activebgcolor" : [ 0.0, 0.078431, 0.321569, 1.0 ],
					"activebgoncolor" : [ 0.215478, 0.440638, 0.918583, 1.0 ],
					"background" : 1,
					"bgcolor" : [ 0.811765, 0.768627, 0.721569, 1.0 ],
					"bgoncolor" : [ 0.215478, 0.440638, 0.918583, 1.0 ],
					"bordercolor" : [ 0.0, 0.0, 0.0, 1.0 ],
					"id" : "obj-27",
					"maxclass" : "live.toggle",
					"numinlets" : 1,
					"numoutlets" : 1,
					"outlettype" : [ "" ],
					"parameter_enable" : 1,
					"patching_rect" : [ 1175.541382, -23.151077, 104.659729, 107.02655 ],
					"presentation" : 1,
					"presentation_rect" : [ 20.180077, 65.353058, 206.198883, 39.177277 ],
					"rounded" : 10.0,
					"saved_attribute_attributes" : 					{
						"valueof" : 						{
							"parameter_longname" : "live.toggle[7]",
							"parameter_shortname" : "live.toggle",
							"parameter_type" : 2,
							"parameter_mmax" : 1.0,
							"parameter_enum" : [ "off", "on" ]
						}

					}
,
					"varname" : "live.toggle[2]"
				}

			}
, 			{
				"box" : 				{
					"activebgcolor" : [ 0.0, 0.078431, 0.321569, 1.0 ],
					"activebgoncolor" : [ 0.215478, 0.440638, 0.918583, 1.0 ],
					"background" : 1,
					"bgcolor" : [ 0.811765, 0.768627, 0.721569, 1.0 ],
					"bgoncolor" : [ 0.215478, 0.440638, 0.918583, 1.0 ],
					"bordercolor" : [ 0.0, 0.0, 0.0, 1.0 ],
					"id" : "obj-28",
					"maxclass" : "live.toggle",
					"numinlets" : 1,
					"numoutlets" : 1,
					"outlettype" : [ "" ],
					"parameter_enable" : 1,
					"patching_rect" : [ 1394.541382, -32.571457, 104.659729, 107.02655 ],
					"presentation" : 1,
					"presentation_rect" : [ 230.385849, 65.353058, 206.159729, 39.177277 ],
					"rounded" : 10.0,
					"saved_attribute_attributes" : 					{
						"valueof" : 						{
							"parameter_longname" : "live.toggle[8]",
							"parameter_shortname" : "live.toggle",
							"parameter_type" : 2,
							"parameter_mmax" : 1.0,
							"parameter_enum" : [ "off", "on" ]
						}

					}
,
					"varname" : "live.toggle[5]"
				}

			}
, 			{
				"box" : 				{
					"angle" : 270.0,
					"background" : 1,
					"bordercolor" : [ 0.0, 0.0, 0.0, 1.0 ],
					"grad1" : [ 1.0, 1.0, 1.0, 1.0 ],
					"grad2" : [ 1.0, 1.0, 1.0, 1.0 ],
					"id" : "obj-19",
					"maxclass" : "panel",
					"mode" : 1,
					"numinlets" : 1,
					"numoutlets" : 0,
					"patching_rect" : [ 919.135559, 515.646423, 312.0, 39.0 ],
					"presentation" : 1,
					"presentation_rect" : [ 16.333336, 60.366333, 425.21228, 49.164001 ],
					"proportion" : 0.39,
					"rounded" : 4,
					"style" : ""
				}

			}
 ],
		"lines" : [ 			{
				"patchline" : 				{
					"destination" : [ "obj-567", 0 ],
					"disabled" : 0,
					"hidden" : 0,
					"midpoints" : [ 162.154541, 253.106628, 54.223633, 253.106628 ],
					"source" : [ "obj-1129", 1 ]
				}

			}
, 			{
				"patchline" : 				{
					"destination" : [ "obj-20", 0 ],
					"disabled" : 0,
					"hidden" : 0,
					"source" : [ "obj-125", 0 ]
				}

			}
, 			{
				"patchline" : 				{
					"destination" : [ "obj-92", 0 ],
					"disabled" : 0,
					"hidden" : 0,
					"source" : [ "obj-20", 0 ]
				}

			}
, 			{
				"patchline" : 				{
					"destination" : [ "obj-28", 0 ],
					"disabled" : 0,
					"hidden" : 0,
					"midpoints" : [ 1404.041382, 102.315781, 1390.188965, 102.315781, 1390.188965, -36.236893, 1404.041382, -36.236893 ],
					"source" : [ "obj-21", 0 ]
				}

			}
, 			{
				"patchline" : 				{
					"destination" : [ "obj-32", 0 ],
					"disabled" : 0,
					"hidden" : 0,
					"source" : [ "obj-21", 1 ]
				}

			}
, 			{
				"patchline" : 				{
					"destination" : [ "obj-53", 0 ],
					"disabled" : 0,
					"hidden" : 0,
					"source" : [ "obj-25", 0 ]
				}

			}
, 			{
				"patchline" : 				{
					"destination" : [ "obj-27", 0 ],
					"disabled" : 0,
					"hidden" : 0,
					"midpoints" : [ 1185.041382, 111.73613, 1171.188965, 111.73613, 1171.188965, -26.816513, 1185.041382, -26.816513 ],
					"source" : [ "obj-26", 0 ]
				}

			}
, 			{
				"patchline" : 				{
					"destination" : [ "obj-41", 0 ],
					"disabled" : 0,
					"hidden" : 0,
					"source" : [ "obj-26", 1 ]
				}

			}
, 			{
				"patchline" : 				{
					"destination" : [ "obj-26", 0 ],
					"disabled" : 0,
					"hidden" : 0,
					"midpoints" : [ 1185.041382, 84.183517, 1185.041382, 84.183517 ],
					"source" : [ "obj-27", 0 ]
				}

			}
, 			{
				"patchline" : 				{
					"destination" : [ "obj-21", 0 ],
					"disabled" : 0,
					"hidden" : 0,
					"midpoints" : [ 1404.041382, 74.763168, 1404.041382, 74.763168 ],
					"source" : [ "obj-28", 0 ]
				}

			}
, 			{
				"patchline" : 				{
					"destination" : [ "obj-1129", 0 ],
					"disabled" : 0,
					"hidden" : 0,
					"source" : [ "obj-29", 0 ]
				}

			}
, 			{
				"patchline" : 				{
					"destination" : [ "obj-37", 0 ],
					"disabled" : 0,
					"hidden" : 0,
					"source" : [ "obj-32", 0 ]
				}

			}
, 			{
				"patchline" : 				{
					"destination" : [ "obj-36", 0 ],
					"disabled" : 0,
					"hidden" : 0,
					"source" : [ "obj-34", 0 ]
				}

			}
, 			{
				"patchline" : 				{
					"destination" : [ "obj-74", 0 ],
					"disabled" : 0,
					"hidden" : 0,
					"source" : [ "obj-34", 0 ]
				}

			}
, 			{
				"patchline" : 				{
					"destination" : [ "obj-92", 5 ],
					"disabled" : 0,
					"hidden" : 0,
					"source" : [ "obj-34", 0 ]
				}

			}
, 			{
				"patchline" : 				{
					"destination" : [ "obj-30", 0 ],
					"disabled" : 0,
					"hidden" : 0,
					"source" : [ "obj-37", 0 ]
				}

			}
, 			{
				"patchline" : 				{
					"destination" : [ "obj-42", 0 ],
					"disabled" : 0,
					"hidden" : 1,
					"source" : [ "obj-39", 0 ]
				}

			}
, 			{
				"patchline" : 				{
					"destination" : [ "obj-29", 0 ],
					"disabled" : 0,
					"hidden" : 0,
					"midpoints" : [ 116.115601, 189.519531, 54.223633, 189.519531 ],
					"source" : [ "obj-40", 1 ]
				}

			}
, 			{
				"patchline" : 				{
					"destination" : [ "obj-70", 0 ],
					"disabled" : 0,
					"hidden" : 0,
					"midpoints" : [ 54.115601, 188.602493, 40.263184, 188.602493, 40.263184, 50.049866, 54.115601, 50.049866 ],
					"source" : [ "obj-40", 0 ]
				}

			}
, 			{
				"patchline" : 				{
					"destination" : [ "obj-39", 0 ],
					"disabled" : 0,
					"hidden" : 1,
					"source" : [ "obj-41", 0 ]
				}

			}
, 			{
				"patchline" : 				{
					"destination" : [ "obj-34", 0 ],
					"disabled" : 0,
					"hidden" : 0,
					"source" : [ "obj-43", 1 ]
				}

			}
, 			{
				"patchline" : 				{
					"destination" : [ "obj-38", 0 ],
					"disabled" : 0,
					"hidden" : 0,
					"source" : [ "obj-43", 1 ]
				}

			}
, 			{
				"patchline" : 				{
					"destination" : [ "obj-56", 0 ],
					"disabled" : 0,
					"hidden" : 0,
					"source" : [ "obj-43", 2 ]
				}

			}
, 			{
				"patchline" : 				{
					"destination" : [ "obj-57", 0 ],
					"disabled" : 0,
					"hidden" : 0,
					"source" : [ "obj-43", 0 ]
				}

			}
, 			{
				"patchline" : 				{
					"destination" : [ "obj-59", 0 ],
					"disabled" : 0,
					"hidden" : 0,
					"source" : [ "obj-43", 2 ]
				}

			}
, 			{
				"patchline" : 				{
					"destination" : [ "obj-65", 0 ],
					"disabled" : 0,
					"hidden" : 0,
					"source" : [ "obj-43", 3 ]
				}

			}
, 			{
				"patchline" : 				{
					"destination" : [ "obj-68", 0 ],
					"disabled" : 0,
					"hidden" : 0,
					"source" : [ "obj-43", 3 ]
				}

			}
, 			{
				"patchline" : 				{
					"destination" : [ "obj-7", 0 ],
					"disabled" : 0,
					"hidden" : 0,
					"source" : [ "obj-43", 0 ]
				}

			}
, 			{
				"patchline" : 				{
					"destination" : [ "obj-75", 0 ],
					"disabled" : 0,
					"hidden" : 0,
					"midpoints" : [ 77.556969, 532.0 ],
					"source" : [ "obj-43", 1 ]
				}

			}
, 			{
				"patchline" : 				{
					"destination" : [ "obj-77", 0 ],
					"disabled" : 0,
					"hidden" : 0,
					"source" : [ "obj-43", 2 ]
				}

			}
, 			{
				"patchline" : 				{
					"destination" : [ "obj-79", 0 ],
					"disabled" : 0,
					"hidden" : 0,
					"source" : [ "obj-43", 3 ]
				}

			}
, 			{
				"patchline" : 				{
					"destination" : [ "obj-16", 1 ],
					"disabled" : 0,
					"hidden" : 0,
					"source" : [ "obj-44", 0 ]
				}

			}
, 			{
				"patchline" : 				{
					"destination" : [ "obj-43", 0 ],
					"disabled" : 0,
					"hidden" : 0,
					"midpoints" : [ 54.223633, 508.569275, 54.223633, 508.569275 ],
					"source" : [ "obj-44", 0 ]
				}

			}
, 			{
				"patchline" : 				{
					"destination" : [ "obj-92", 1 ],
					"disabled" : 0,
					"hidden" : 0,
					"source" : [ "obj-46", 0 ]
				}

			}
, 			{
				"patchline" : 				{
					"destination" : [ "obj-92", 4 ],
					"disabled" : 0,
					"hidden" : 0,
					"source" : [ "obj-5", 0 ]
				}

			}
, 			{
				"patchline" : 				{
					"destination" : [ "obj-44", 0 ],
					"disabled" : 0,
					"hidden" : 0,
					"source" : [ "obj-51", 0 ]
				}

			}
, 			{
				"patchline" : 				{
					"destination" : [ "obj-51", 0 ],
					"disabled" : 0,
					"hidden" : 0,
					"midpoints" : [ 54.223633, 455.049866, 54.223633, 455.049866 ],
					"source" : [ "obj-52", 0 ]
				}

			}
, 			{
				"patchline" : 				{
					"destination" : [ "obj-52", 0 ],
					"disabled" : 0,
					"hidden" : 0,
					"midpoints" : [ 200.223633, 429.281281, 54.223633, 429.281281 ],
					"source" : [ "obj-53", 2 ]
				}

			}
, 			{
				"patchline" : 				{
					"destination" : [ "obj-52", 0 ],
					"disabled" : 0,
					"hidden" : 0,
					"midpoints" : [ 54.223633, 432.473999, 54.223633, 432.473999 ],
					"source" : [ "obj-53", 0 ]
				}

			}
, 			{
				"patchline" : 				{
					"destination" : [ "obj-58", 0 ],
					"disabled" : 0,
					"hidden" : 0,
					"midpoints" : [ 954.0, 217.0 ],
					"source" : [ "obj-56", 0 ]
				}

			}
, 			{
				"patchline" : 				{
					"destination" : [ "obj-76", 0 ],
					"disabled" : 0,
					"hidden" : 0,
					"midpoints" : [ 938.0, 159.0 ],
					"source" : [ "obj-56", 0 ]
				}

			}
, 			{
				"patchline" : 				{
					"destination" : [ "obj-92", 6 ],
					"disabled" : 0,
					"hidden" : 0,
					"source" : [ "obj-56", 0 ]
				}

			}
, 			{
				"patchline" : 				{
					"destination" : [ "obj-25", 0 ],
					"disabled" : 0,
					"hidden" : 0,
					"midpoints" : [ 54.223633, 315.761292, 54.223633, 315.761292 ],
					"source" : [ "obj-567", 0 ]
				}

			}
, 			{
				"patchline" : 				{
					"destination" : [ "obj-92", 2 ],
					"disabled" : 0,
					"hidden" : 0,
					"source" : [ "obj-60", 0 ]
				}

			}
, 			{
				"patchline" : 				{
					"destination" : [ "obj-67", 0 ],
					"disabled" : 0,
					"hidden" : 0,
					"midpoints" : [ 1855.0, 602.0 ],
					"source" : [ "obj-65", 0 ]
				}

			}
, 			{
				"patchline" : 				{
					"destination" : [ "obj-78", 0 ],
					"disabled" : 0,
					"hidden" : 0,
					"source" : [ "obj-65", 0 ]
				}

			}
, 			{
				"patchline" : 				{
					"destination" : [ "obj-92", 7 ],
					"disabled" : 0,
					"hidden" : 0,
					"source" : [ "obj-65", 0 ]
				}

			}
, 			{
				"patchline" : 				{
					"destination" : [ "obj-939", 0 ],
					"disabled" : 0,
					"hidden" : 0,
					"source" : [ "obj-66", 0 ]
				}

			}
, 			{
				"patchline" : 				{
					"destination" : [ "obj-25", 0 ],
					"disabled" : 0,
					"hidden" : 0,
					"source" : [ "obj-69", 0 ]
				}

			}
, 			{
				"patchline" : 				{
					"destination" : [ "obj-13", 0 ],
					"disabled" : 0,
					"hidden" : 0,
					"source" : [ "obj-7", 0 ]
				}

			}
, 			{
				"patchline" : 				{
					"destination" : [ "obj-5", 0 ],
					"disabled" : 0,
					"hidden" : 0,
					"source" : [ "obj-7", 0 ]
				}

			}
, 			{
				"patchline" : 				{
					"destination" : [ "obj-9", 0 ],
					"disabled" : 0,
					"hidden" : 0,
					"source" : [ "obj-7", 0 ]
				}

			}
, 			{
				"patchline" : 				{
					"destination" : [ "obj-40", 0 ],
					"disabled" : 0,
					"hidden" : 0,
					"midpoints" : [ 54.115601, 161.049866, 54.115601, 161.049866 ],
					"source" : [ "obj-70", 0 ]
				}

			}
, 			{
				"patchline" : 				{
					"destination" : [ "obj-92", 3 ],
					"disabled" : 0,
					"hidden" : 0,
					"midpoints" : [ 649.0, 239.0 ],
					"source" : [ "obj-71", 0 ]
				}

			}
, 			{
				"patchline" : 				{
					"destination" : [ "obj-55", 0 ],
					"disabled" : 0,
					"hidden" : 0,
					"source" : [ "obj-72", 0 ]
				}

			}
, 			{
				"patchline" : 				{
					"destination" : [ "obj-22", 0 ],
					"disabled" : 0,
					"hidden" : 0,
					"source" : [ "obj-74", 0 ]
				}

			}
, 			{
				"patchline" : 				{
					"destination" : [ "obj-31", 0 ],
					"disabled" : 0,
					"hidden" : 0,
					"source" : [ "obj-75", 0 ]
				}

			}
, 			{
				"patchline" : 				{
					"destination" : [ "obj-48", 0 ],
					"disabled" : 0,
					"hidden" : 0,
					"source" : [ "obj-76", 0 ]
				}

			}
, 			{
				"patchline" : 				{
					"destination" : [ "obj-54", 0 ],
					"disabled" : 0,
					"hidden" : 0,
					"source" : [ "obj-77", 0 ]
				}

			}
, 			{
				"patchline" : 				{
					"destination" : [ "obj-61", 0 ],
					"disabled" : 0,
					"hidden" : 0,
					"source" : [ "obj-78", 0 ]
				}

			}
, 			{
				"patchline" : 				{
					"destination" : [ "obj-64", 0 ],
					"disabled" : 0,
					"hidden" : 0,
					"source" : [ "obj-79", 0 ]
				}

			}
, 			{
				"patchline" : 				{
					"destination" : [ "obj-43", 0 ],
					"disabled" : 0,
					"hidden" : 0,
					"source" : [ "obj-81", 0 ]
				}

			}
, 			{
				"patchline" : 				{
					"destination" : [ "obj-69", 0 ],
					"disabled" : 0,
					"hidden" : 0,
					"midpoints" : [ 294.085449, 325.716858, 294.085449, 325.716858 ],
					"source" : [ "obj-89", 0 ]
				}

			}
, 			{
				"patchline" : 				{
					"destination" : [ "obj-12", 0 ],
					"disabled" : 0,
					"hidden" : 0,
					"source" : [ "obj-9", 0 ]
				}

			}
, 			{
				"patchline" : 				{
					"destination" : [ "obj-89", 2 ],
					"disabled" : 0,
					"hidden" : 0,
					"midpoints" : [ 513.925781, 303.023682, 404.713074, 303.023682 ],
					"source" : [ "obj-92", 0 ]
				}

			}
, 			{
				"patchline" : 				{
					"destination" : [ "obj-25", 0 ],
					"disabled" : 0,
					"hidden" : 0,
					"midpoints" : [ 294.085449, 312.8078, 54.223633, 312.8078 ],
					"source" : [ "obj-939", 0 ]
				}

			}
, 			{
				"patchline" : 				{
					"destination" : [ "obj-89", 0 ],
					"disabled" : 0,
					"hidden" : 0,
					"source" : [ "obj-939", 0 ]
				}

			}
 ],
		"parameters" : 		{
			"obj-70" : [ "live.toggle[3]", "live.toggle", 0 ],
			"obj-27" : [ "live.toggle[7]", "live.toggle", 0 ],
			"obj-28" : [ "live.toggle[8]", "live.toggle", 0 ],
			"obj-66" : [ "live.toggle[1]", "live.toggle", 0 ],
			"obj-1129" : [ "umenu", "umenu", 0 ]
		}
,
		"dependency_cache" : [  ],
		"embedsnapshot" : 0
	}

}
