#N canvas 217 22 1436 856 16;
#X floatatom 1607 89 5 0 255 0 - - -;
#X obj 1607 119 spell;
#X obj 1607 181 prepend set;
#X msg 1607 246 49 54 49;
#X obj 1607 212 t b a;
#X obj 1607 150 thresh 0.9;
#X obj 1610 33 hsl 128 20 0 255 0 0 empty empty empty -2 -8 0 10 -262144
-1 -1 0 1;
#X obj 1607 58 list-round;
#X obj 1413 33 tgl 50 0 empty empty empty 17 7 0 10 -262144 -1 -1 0
1;
#X obj 1413 287 bng 15 250 50 0 empty empty empty 17 7 0 10 -262144
-1 -1;
#X obj 1413 246 metro 50;
#X obj 86 279 comport 9600;
#X text 1418 45 poll;
#X text 21 -133 arduivis - model #2 - input;
#X msg 14 -98 devices;
#X msg 44 -18 close;
#X floatatom 25 -71 5 0 0 0 - - -;
#X msg 25 -45 open \$1;
#X text 112 -100 find Arduino board;
#X text 112 -20 close serial buffer;
#X text 112 -72 define board number;
#X text 112 -48 open defined board;
#X floatatom 222 560 5 0 255 0 - - -;
#X obj 222 590 spell;
#X obj 222 652 prepend set;
#X msg 222 717 52 56;
#X obj 222 810 prepend;
#X obj 222 841 prepend set;
#X obj 222 683 t b a;
#X obj 222 748 t b a;
#X msg 222 907 52 56 32;
#X obj 222 621 thresh 0.9;
#X msg 222 779 32;
#X obj 222 872 t b a;
#X obj 225 504 hsl 128 20 0 255 0 0 empty empty empty -2 -8 0 10 -262144
-1 -1 0 1;
#X obj 222 529 list-round;
#X obj 1607 352 zl join;
#X msg 1503 246 mode join;
#X floatatom 440 606 5 0 0 0 - - -;
#X floatatom 1747 89 5 0 255 0 - - -;
#X obj 1747 119 spell;
#X obj 1747 181 prepend set;
#X msg 1747 246 49 55 55;
#X obj 1747 212 t b a;
#X obj 1747 150 thresh 0.9;
#X obj 1750 33 hsl 128 20 0 255 0 0 empty empty empty -2 -8 0 10 -262144
-1 -1 0 1;
#X obj 1747 58 list-round;
#X obj 1607 441 prepend;
#X obj 1607 472 prepend set;
#X obj 1607 379 t b a;
#X msg 1607 538 49 54 49 49 55 55 49 51 49 49 54 55 32;
#X msg 1607 410 32;
#X obj 1607 503 t b a;
#X floatatom 720 574 5 0 255 0 - - -;
#X obj 720 604 spell;
#X obj 720 666 prepend set;
#X msg 720 731 49 50 54;
#X obj 720 697 t b a;
#X obj 720 635 thresh 0.9;
#X obj 723 518 hsl 128 20 0 255 0 0 empty empty empty -2 -8 0 10 -262144
-1 -1 0 1;
#X obj 720 543 list-round;
#X obj 720 844 zl join;
#X msg 486 727 mode join;
#X floatatom 860 574 5 0 255 0 - - -;
#X obj 860 604 spell;
#X obj 860 666 prepend set;
#X msg 860 731 56 54;
#X obj 860 697 t b a;
#X obj 860 635 thresh 0.9;
#X obj 863 518 hsl 128 20 0 255 0 0 empty empty empty -2 -8 0 10 -262144
-1 -1 0 1;
#X obj 860 543 list-round;
#X obj 860 767 bng 15 250 50 0 empty empty empty 17 7 0 10 -262144
-1 -1;
#X obj 720 933 prepend;
#X obj 720 964 prepend set;
#X obj 720 871 t b a;
#X msg 720 1030 49 50 54 56 54 32;
#X msg 720 902 32;
#X obj 720 995 t b a;
#X floatatom 1887 89 5 0 255 0 - - -;
#X obj 1887 119 spell;
#X obj 1887 181 prepend set;
#X msg 1887 246 49 51 49;
#X obj 1887 212 t b a;
#X obj 1887 150 thresh 0.9;
#X obj 1890 33 hsl 128 20 0 255 0 0 empty empty empty -2 -8 0 10 -262144
-1 -1 0 1;
#X obj 1887 58 list-round;
#X floatatom 2027 89 5 0 255 0 - - -;
#X obj 2027 119 spell;
#X obj 2027 181 prepend set;
#X msg 2027 246 49 54 55;
#X obj 2027 212 t b a;
#X obj 2027 150 thresh 0.9;
#X obj 2030 33 hsl 128 20 0 255 0 0 empty empty empty -2 -8 0 10 -262144
-1 -1 0 1;
#X obj 2027 58 list-round;
#X obj 1887 286 zl join;
#X obj 1747 320 zl join;
#X floatatom 712 -103 5 0 255 0 - - -;
#X obj 712 -83 spell;
#X obj 712 -40 prepend set;
#X msg 712 6 53 54;
#X obj 712 71 prepend;
#X obj 712 93 prepend set;
#X obj 712 -19 t b a;
#X obj 712 27 t b a;
#X msg 712 142 53 54 32;
#X obj 712 114 t b a;
#X obj 712 -61 thresh 0.9;
#X text 747 -103 blue;
#X obj 770 142 bng 15 250 50 0 empty empty empty 17 7 0 10 -262144
-1 -1;
#X text 774 141 3;
#X floatatom 842 -103 5 0 255 0 - - -;
#X obj 842 -83 spell;
#X obj 842 -40 prepend set;
#X msg 842 6 52 53;
#X obj 842 71 prepend;
#X obj 842 93 prepend set;
#X obj 842 -19 t b a;
#X obj 842 27 t b a;
#X msg 842 162 52 53 32;
#X obj 842 114 t b a;
#X obj 842 -61 thresh 0.9;
#X text 877 -103 blue;
#X obj 910 142 bng 15 250 50 0 empty empty empty 17 7 0 10 -262144
-1 -1;
#X text 914 141 3;
#X floatatom 1022 -103 5 0 255 0 - - -;
#X obj 1022 -83 spell;
#X obj 1022 -40 prepend set;
#X msg 1022 6 55 54;
#X obj 1022 71 prepend;
#X msg 1022 50 10;
#X obj 1022 93 prepend set;
#X obj 1022 -19 t b a;
#X obj 1022 27 t b a;
#X msg 1022 142 55 54 10;
#X obj 1022 114 t b a;
#X obj 1022 -61 thresh 0.9;
#X text 1057 -103 blue;
#X obj 1080 142 bng 15 250 50 0 empty empty empty 17 7 0 10 -262144
-1 -1;
#X text 1084 141 3;
#X obj 501 394 prepend set;
#X msg 481 418 53 54 32 52 53 32 55 54 10;
#X msg 712 50 32;
#X obj 632 216 bng 15 250 50 0 empty empty empty 17 7 0 10 -262144
-1 -1;
#X obj 213 92 tgl 15 0 empty empty empty 17 7 0 10 -262144 -1 -1 0
1;
#X obj 213 130 bng 15 250 50 0 empty empty empty 17 7 0 10 -262144
-1 -1;
#X obj 213 110 metro 80;
#X msg 842 50 32;
#X obj 489 100 moe;
#X msg 475 17 mode join;
#X obj 682 202 zl join;
#X obj 682 232 zl join;
#X obj 87 336 repack 3;
#X obj 93 386 unpack 0 0 0;
#X floatatom 73 434 5 0 0 0 - - -;
#X floatatom 145 446 5 0 0 0 - - -;
#X floatatom 216 429 5 0 0 0 - - -;
#X connect 0 0 1 0;
#X connect 1 0 5 0;
#X connect 2 0 4 0;
#X connect 3 0 36 0;
#X connect 4 0 3 0;
#X connect 4 1 3 0;
#X connect 5 0 2 0;
#X connect 6 0 7 0;
#X connect 7 0 0 0;
#X connect 8 0 10 0;
#X connect 9 0 36 0;
#X connect 9 0 95 0;
#X connect 9 0 94 0;
#X connect 10 0 9 0;
#X connect 11 0 151 0;
#X connect 14 0 11 0;
#X connect 15 0 11 0;
#X connect 16 0 17 0;
#X connect 17 0 11 0;
#X connect 22 0 23 0;
#X connect 23 0 31 0;
#X connect 24 0 28 0;
#X connect 25 0 29 0;
#X connect 26 0 27 0;
#X connect 27 0 33 0;
#X connect 28 0 25 0;
#X connect 28 1 25 0;
#X connect 29 0 32 0;
#X connect 29 1 26 1;
#X connect 31 0 24 0;
#X connect 32 0 26 0;
#X connect 33 0 30 0;
#X connect 33 1 30 0;
#X connect 34 0 35 0;
#X connect 35 0 22 0;
#X connect 36 0 49 0;
#X connect 37 0 36 0;
#X connect 37 0 95 0;
#X connect 37 0 94 0;
#X connect 39 0 40 0;
#X connect 40 0 44 0;
#X connect 41 0 43 0;
#X connect 42 0 95 0;
#X connect 43 0 42 0;
#X connect 43 1 42 0;
#X connect 44 0 41 0;
#X connect 45 0 46 0;
#X connect 46 0 39 0;
#X connect 47 0 48 0;
#X connect 48 0 52 0;
#X connect 49 0 51 0;
#X connect 49 1 47 1;
#X connect 51 0 47 0;
#X connect 52 0 50 0;
#X connect 52 1 50 0;
#X connect 53 0 54 0;
#X connect 54 0 58 0;
#X connect 55 0 57 0;
#X connect 56 0 61 0;
#X connect 57 0 56 0;
#X connect 57 1 56 0;
#X connect 58 0 55 0;
#X connect 59 0 60 0;
#X connect 60 0 53 0;
#X connect 61 0 74 0;
#X connect 62 0 61 0;
#X connect 63 0 64 0;
#X connect 64 0 68 0;
#X connect 65 0 67 0;
#X connect 66 0 61 1;
#X connect 66 0 71 0;
#X connect 67 0 66 0;
#X connect 67 1 66 0;
#X connect 68 0 65 0;
#X connect 69 0 70 0;
#X connect 70 0 63 0;
#X connect 71 0 61 0;
#X connect 72 0 73 0;
#X connect 73 0 77 0;
#X connect 74 0 76 0;
#X connect 74 1 72 1;
#X connect 76 0 72 0;
#X connect 77 0 75 0;
#X connect 77 1 75 0;
#X connect 78 0 79 0;
#X connect 79 0 83 0;
#X connect 80 0 82 0;
#X connect 81 0 94 0;
#X connect 82 0 81 0;
#X connect 82 1 81 0;
#X connect 83 0 80 0;
#X connect 84 0 85 0;
#X connect 85 0 78 0;
#X connect 86 0 87 0;
#X connect 87 0 91 0;
#X connect 88 0 90 0;
#X connect 89 0 94 1;
#X connect 90 0 89 0;
#X connect 90 1 89 0;
#X connect 91 0 88 0;
#X connect 92 0 93 0;
#X connect 93 0 86 0;
#X connect 94 0 95 1;
#X connect 95 0 36 1;
#X connect 96 0 97 0;
#X connect 97 0 106 0;
#X connect 98 0 102 0;
#X connect 99 0 103 0;
#X connect 100 0 101 0;
#X connect 101 0 105 0;
#X connect 102 0 99 0;
#X connect 102 1 99 0;
#X connect 103 0 141 0;
#X connect 103 1 100 1;
#X connect 104 0 149 0;
#X connect 105 0 104 0;
#X connect 105 0 108 0;
#X connect 105 1 104 0;
#X connect 106 0 98 0;
#X connect 110 0 111 0;
#X connect 111 0 120 0;
#X connect 112 0 116 0;
#X connect 113 0 117 0;
#X connect 114 0 115 0;
#X connect 115 0 119 0;
#X connect 116 0 113 0;
#X connect 116 1 113 0;
#X connect 117 0 146 0;
#X connect 117 1 114 1;
#X connect 118 0 149 1;
#X connect 119 0 118 0;
#X connect 119 0 122 0;
#X connect 119 1 118 0;
#X connect 120 0 112 0;
#X connect 124 0 125 0;
#X connect 125 0 135 0;
#X connect 126 0 131 0;
#X connect 127 0 132 0;
#X connect 128 0 130 0;
#X connect 129 0 128 0;
#X connect 130 0 134 0;
#X connect 131 0 127 0;
#X connect 131 1 127 0;
#X connect 132 0 129 0;
#X connect 132 1 128 1;
#X connect 133 0 150 1;
#X connect 134 0 133 0;
#X connect 134 0 137 0;
#X connect 134 1 133 0;
#X connect 135 0 126 0;
#X connect 139 0 140 0;
#X connect 140 0 11 0;
#X connect 141 0 100 0;
#X connect 142 0 149 0;
#X connect 142 0 150 0;
#X connect 143 0 145 0;
#X connect 144 0 142 0;
#X connect 144 0 140 0;
#X connect 145 0 144 0;
#X connect 146 0 114 0;
#X connect 148 0 149 0;
#X connect 148 0 150 0;
#X connect 149 0 150 0;
#X connect 150 0 139 0;
#X connect 151 0 152 0;
#X connect 152 0 153 0;
#X connect 152 1 154 0;
#X connect 152 2 155 0;
