#N canvas 24 22 640 643 16;
#X obj 8 468 comport 9600;
#X msg 8 -14 devices;
#X msg 38 66 close;
#X floatatom 19 13 5 0 0 0 - - -;
#X msg 19 39 open \$1;
#X text 106 -16 find Arduino board;
#X text 106 36 open defined board;
#X text 288 84 arduivis - model #5 - multipleInputs;
#X text 254 108 sketch: arduivis_PD_model5_multipleinputs.ino;
#X obj 8 498 repack 4;
#X obj 8 527 unpack 0 0 0 0;
#X floatatom 8 564 5 0 0 0 - - -;
#X obj 11 591 hsl 128 24 0 255 0 0 empty empty empty -2 -8 0 10 -262144
-1 -1 0 1;
#X floatatom 148 564 5 0 0 0 - - -;
#X obj 151 591 hsl 128 24 0 255 0 0 empty empty empty -2 -8 0 10 -262144
-1 -1 0 1;
#X floatatom 288 564 5 0 0 0 - - -;
#X obj 291 591 hsl 128 24 0 255 0 0 empty empty empty -2 -8 0 10 -262144
-1 -1 0 1;
#X floatatom 428 564 5 0 0 0 - - -;
#X obj 431 591 hsl 128 24 0 255 0 0 empty empty empty -2 -8 0 10 -262144
-1 -1 0 1;
#X text 34 592 slider #1;
#X text 183 592 slider #2;
#X text 319 592 slider #3;
#X text 462 592 slider #4;
#X text 106 64 close serial buffer;
#X text 106 12 define board number;
#X obj 38 99 loadbang;
#X obj 38 182 line;
#X floatatom 38 208 5 0 0 0 - - -;
#X msg 38 156 47 300;
#X obj 41 233 hsl 128 20 0 255 0 0 empty empty empty -2 -8 0 10 -262144
-1 -1 4800 1;
#X obj 186 182 line;
#X floatatom 186 208 5 0 0 0 - - -;
#X msg 186 156 47 300;
#X obj 189 233 hsl 128 20 0 255 0 0 empty empty empty -2 -8 0 10 -262144
-1 -1 8900 1;
#X obj 38 328 zl join;
#X obj 186 282 t;
#X obj 334 182 line;
#X floatatom 334 208 5 0 0 0 - - -;
#X msg 334 156 47 300;
#X obj 337 233 hsl 128 20 0 255 0 0 empty empty empty -2 -8 0 10 -262144
-1 -1 12300 1;
#X obj 38 355 zl join;
#X obj 334 282 t;
#X obj 482 182 line;
#X floatatom 482 208 5 0 0 0 - - -;
#X msg 482 156 47 300;
#X obj 485 233 hsl 128 20 0 255 0 0 empty empty empty -2 -8 0 10 -262144
-1 -1 10800 1;
#X obj 482 282 t;
#X obj 38 382 zl join;
#X msg 38 437 57 54 32 49 55 57 32 50 52 55 32 50 49 55 32;
#X obj 38 408 prepend set;
#X obj 38 128 bng 15 250 50 0 empty empty empty 17 7 0 10 -262144 -1
-1;
#X obj 160 332 tgl 47 0 empty empty empty 17 7 0 10 -262144 -1 -1 0
1;
#X obj 160 408 bng 15 250 50 0 empty empty empty 17 7 0 10 -262144
-1 -1;
#X obj 160 382 metro 51;
#X obj 38 256 arduivis_parse;
#X obj 186 256 arduivis_parse;
#X obj 334 256 arduivis_parse;
#X obj 482 256 arduivis_parse;
#X text 541 207;
#X connect 0 0 9 0;
#X connect 1 0 0 0;
#X connect 2 0 0 0;
#X connect 3 0 4 0;
#X connect 4 0 0 0;
#X connect 9 0 10 0;
#X connect 10 0 11 0;
#X connect 10 1 13 0;
#X connect 10 2 15 0;
#X connect 10 3 17 0;
#X connect 11 0 12 0;
#X connect 13 0 14 0;
#X connect 15 0 16 0;
#X connect 17 0 18 0;
#X connect 25 0 50 0;
#X connect 26 0 27 0;
#X connect 27 0 29 0;
#X connect 28 0 26 0;
#X connect 29 0 54 0;
#X connect 30 0 31 0;
#X connect 31 0 33 0;
#X connect 32 0 30 0;
#X connect 33 0 55 0;
#X connect 34 0 40 0;
#X connect 35 0 34 0;
#X connect 36 0 37 0;
#X connect 37 0 39 0;
#X connect 38 0 36 0;
#X connect 39 0 56 0;
#X connect 40 0 47 0;
#X connect 41 0 40 0;
#X connect 42 0 43 0;
#X connect 43 0 45 0;
#X connect 44 0 42 0;
#X connect 45 0 57 0;
#X connect 46 0 47 0;
#X connect 47 0 49 0;
#X connect 48 0 0 0;
#X connect 49 0 48 0;
#X connect 50 0 32 0;
#X connect 50 0 38 0;
#X connect 50 0 44 0;
#X connect 50 0 28 0;
#X connect 51 0 53 0;
#X connect 52 0 48 0;
#X connect 53 0 52 0;
#X connect 54 0 34 0;
#X connect 55 0 34 1;
#X connect 55 0 35 0;
#X connect 56 0 40 1;
#X connect 56 0 41 0;
#X connect 57 0 46 0;
#X connect 57 0 47 1;
