#N canvas 227 22 1084 737 16;
#X obj 8 523 comport 9600;
#X msg 8 -104 devices;
#X msg 38 -24 close;
#X floatatom 19 -77 5 0 0 0 - - -;
#X msg 19 -51 open \$1;
#X text 106 -106 find Arduino board;
#X text 106 -26 close serial buffer;
#X text 106 -78 define board number;
#X text 106 -54 open defined board;
#X msg 136 477 49 32 53 49 32 50 51 32 48 10;
#X obj 35 181 tgl 15 0 empty empty empty 17 7 0 10 -262144 -1 -1 1
1;
#X obj 35 241 bng 15 250 50 0 empty empty empty 17 7 0 10 -262144 -1
-1;
#X floatatom 903 158 5 0 255 0 - - -;
#X obj 903 184 spell;
#X obj 903 211 thresh 0.9;
#X obj 906 106 hsl 128 20 0 255 0 0 empty empty empty -2 -8 0 10 -262144
-1 -1 0 1;
#X obj 903 131 list-round;
#X obj 796 265 prepend set;
#X msg 796 327 48 10;
#X obj 796 297 t b a;
#X msg 916 238 loadbang;
#X obj 916 265 bng 15 250 50 0 empty empty empty 17 7 0 10 -262144
-1 -1;
#X obj 796 238 iem_prepend;
#X obj 796 186 bng 15 250 50 0 empty empty empty 17 7 0 10 -262144
-1 -1;
#X msg 796 211 10;
#X obj 136 448 prepend set;
#X obj 35 327 bng 15 250 50 0 empty empty empty 17 7 0 10 -262144 -1
-1;
#X obj 136 359 zl join;
#X obj 136 389 zl join;
#X obj 136 419 zl join;
#X msg 35 297 loadbang;
#X floatatom 683 158 5 0 255 0 - - -;
#X obj 683 184 spell;
#X obj 683 211 thresh 0.9;
#X obj 686 106 hsl 128 20 1 255 0 0 empty empty empty -2 -8 0 10 -262144
-1 -1 0 1;
#X obj 683 131 list-round;
#X obj 576 265 prepend set;
#X msg 576 327 50 51 32;
#X obj 576 297 t b a;
#X msg 696 238 loadbang;
#X obj 696 265 bng 15 250 50 0 empty empty empty 17 7 0 10 -262144
-1 -1;
#X obj 576 238 iem_prepend;
#X obj 576 186 bng 15 250 50 0 empty empty empty 17 7 0 10 -262144
-1 -1;
#X floatatom 463 158 5 0 255 0 - - -;
#X obj 463 184 spell;
#X obj 463 211 thresh 0.9;
#X obj 466 106 hsl 128 20 1 255 0 0 empty empty empty -2 -8 0 10 -262144
-1 -1 0 0;
#X obj 463 131 list-round;
#X obj 356 265 prepend set;
#X msg 356 327 53 49 32;
#X obj 356 297 t b a;
#X msg 476 238 loadbang;
#X obj 476 265 bng 15 250 50 0 empty empty empty 17 7 0 10 -262144
-1 -1;
#X obj 356 238 iem_prepend;
#X obj 356 186 bng 15 250 50 0 empty empty empty 17 7 0 10 -262144
-1 -1;
#X floatatom 243 158 5 0 255 0 - - -;
#X obj 243 184 spell;
#X obj 243 211 thresh 0.9;
#X obj 246 106 hsl 128 20 1 255 0 0 empty empty empty -2 -8 0 10 -262144
-1 -1 0 1;
#X obj 243 131 list-round;
#X obj 136 265 prepend set;
#X msg 136 327 49 32;
#X obj 136 297 t b a;
#X msg 256 238 loadbang;
#X obj 256 265 bng 15 250 50 0 empty empty empty 17 7 0 10 -262144
-1 -1;
#X obj 136 238 iem_prepend;
#X obj 190 175 bng 15 250 50 0 empty empty empty 17 7 0 10 -262144
-1 -1;
#X msg 136 211 32;
#X msg 356 211 32;
#X msg 576 211 32;
#X obj 35 211 metro 47;
#X msg 243 79 13;
#X msg 463 79 47;
#X msg 683 79 60;
#X msg 903 79 107;
#X obj 243 40 bng 15 250 50 0 empty empty empty 17 7 0 10 -262144 -1
-1;
#X msg 243 10 loadbang;
#X connect 1 0 0 0;
#X connect 2 0 0 0;
#X connect 3 0 4 0;
#X connect 4 0 0 0;
#X connect 9 0 0 0;
#X connect 10 0 70 0;
#X connect 11 0 9 0;
#X connect 12 0 13 0;
#X connect 13 0 14 0;
#X connect 14 0 22 1;
#X connect 15 0 16 0;
#X connect 15 0 23 0;
#X connect 16 0 12 0;
#X connect 17 0 19 0;
#X connect 18 0 29 1;
#X connect 19 0 18 0;
#X connect 19 0 29 0;
#X connect 19 1 18 0;
#X connect 20 0 21 0;
#X connect 21 0 18 0;
#X connect 22 0 17 0;
#X connect 23 0 24 0;
#X connect 24 0 22 0;
#X connect 25 0 9 0;
#X connect 26 0 27 0;
#X connect 26 0 28 0;
#X connect 26 0 29 0;
#X connect 26 0 54 0;
#X connect 26 0 42 0;
#X connect 26 0 23 0;
#X connect 26 0 67 0;
#X connect 27 0 28 0;
#X connect 28 0 29 0;
#X connect 29 0 25 0;
#X connect 30 0 26 0;
#X connect 31 0 32 0;
#X connect 32 0 33 0;
#X connect 33 0 41 1;
#X connect 34 0 35 0;
#X connect 34 0 42 0;
#X connect 35 0 31 0;
#X connect 36 0 38 0;
#X connect 37 0 28 1;
#X connect 38 0 37 0;
#X connect 38 0 28 0;
#X connect 38 1 37 0;
#X connect 39 0 40 0;
#X connect 40 0 37 0;
#X connect 41 0 36 0;
#X connect 42 0 69 0;
#X connect 43 0 44 0;
#X connect 44 0 45 0;
#X connect 45 0 53 1;
#X connect 46 0 47 0;
#X connect 46 0 54 0;
#X connect 47 0 43 0;
#X connect 48 0 50 0;
#X connect 49 0 27 1;
#X connect 50 0 49 0;
#X connect 50 0 27 0;
#X connect 50 1 49 0;
#X connect 51 0 52 0;
#X connect 52 0 49 0;
#X connect 53 0 48 0;
#X connect 54 0 68 0;
#X connect 55 0 56 0;
#X connect 56 0 57 0;
#X connect 57 0 65 1;
#X connect 58 0 59 0;
#X connect 58 0 66 0;
#X connect 59 0 55 0;
#X connect 60 0 62 0;
#X connect 61 0 27 0;
#X connect 62 0 61 0;
#X connect 62 1 61 0;
#X connect 63 0 64 0;
#X connect 64 0 61 0;
#X connect 65 0 60 0;
#X connect 66 0 67 0;
#X connect 67 0 65 0;
#X connect 68 0 53 0;
#X connect 69 0 41 0;
#X connect 70 0 11 0;
#X connect 71 0 58 0;
#X connect 72 0 46 0;
#X connect 73 0 34 0;
#X connect 74 0 15 0;
#X connect 75 0 71 0;
#X connect 75 0 72 0;
#X connect 75 0 73 0;
#X connect 75 0 74 0;
#X connect 76 0 75 0;
