#N canvas 24 22 1007 847 16;
#X obj 8 672 comport 9600;
#X msg 8 -14 devices;
#X msg 38 66 close;
#X floatatom 19 13 5 0 0 0 - - -;
#X msg 19 39 open \$1;
#X text 106 -16 find Arduino board;
#X text 106 64 close serial buffer;
#X text 106 12 define board number;
#X text 106 36 open defined board;
#X obj 185 167 tgl 47 0 empty empty empty 17 7 0 10 -262144 -1 -1 0
1;
#X obj 185 253 bng 15 250 50 0 empty empty empty 17 7 0 10 -262144
-1 -1;
#X obj 277 -14 loadbang;
#X obj 277 50 line;
#X floatatom 277 78 5 0 0 0 - - -;
#X msg 277 22 47 300;
#X obj 456 48 line;
#X floatatom 456 76 5 0 0 0 - - -;
#X obj 636 48 line;
#X floatatom 636 76 5 0 0 0 - - -;
#X obj 816 48 line;
#X floatatom 816 76 5 0 0 0 - - -;
#X msg 456 20 13 300;
#X msg 636 20 190 300;
#X msg 816 20 110 300;
#X text 336 79 slider #1;
#X text 515 79 slider #2;
#X text 695 79 slider #3;
#X text 875 79 slider #4;
#X text 596 714 arduivis - model #5 - multipleInputs;
#X text 562 738 sketch: arduivis_PD_model5_multipleinputs.ino;
#X text 190 179 poll;
#X obj 8 702 repack 4;
#X obj 8 731 unpack 0 0 0 0;
#X floatatom 8 768 5 0 0 0 - - -;
#X obj 11 795 hsl 128 24 0 255 0 0 empty empty empty -2 -8 0 10 -262144
-1 -1 5827 1;
#X floatatom 148 768 5 0 0 0 - - -;
#X obj 151 795 hsl 128 24 0 255 0 0 empty empty empty -2 -8 0 10 -262144
-1 -1 647 1;
#X floatatom 288 768 5 0 0 0 - - -;
#X obj 291 795 hsl 128 24 0 255 0 0 empty empty empty -2 -8 0 10 -262144
-1 -1 6973 1;
#X floatatom 428 768 5 0 0 0 - - -;
#X obj 431 795 hsl 128 24 0 255 0 0 empty empty empty -2 -8 0 10 -262144
-1 -1 4084 1;
#X floatatom 816 162 5 0 255 0 - - -;
#X obj 816 192 spell;
#X obj 816 254 prepend set;
#X msg 816 319 56 50;
#X obj 816 412 prepend;
#X obj 816 443 prepend set;
#X obj 816 285 t b a;
#X obj 816 350 t b a;
#X msg 816 509 56 50 32;
#X obj 816 223 thresh 0.9;
#X msg 816 381 32;
#X obj 816 474 t b a;
#X obj 819 106 hsl 128 20 0 255 0 0 empty empty empty -2 -8 0 10 -262144
-1 -1 4078 1;
#X obj 816 131 list-round;
#X msg 276 658 49 49 55 32 49 51 32 49 52 48 32 56 50 32;
#X obj 276 629 prepend set;
#X obj 276 540 zl join;
#X obj 276 570 zl join;
#X obj 276 600 zl join;
#X msg 898 381 loadbang;
#X obj 898 412 bng 15 250 50 0 empty empty empty 17 7 0 10 -262144
-1 -1;
#X floatatom 636 162 5 0 255 0 - - -;
#X obj 636 192 spell;
#X obj 636 254 prepend set;
#X msg 636 319 49 52 48;
#X obj 636 412 prepend;
#X obj 636 443 prepend set;
#X obj 636 285 t b a;
#X obj 636 350 t b a;
#X msg 636 509 49 52 48 32;
#X obj 636 223 thresh 0.9;
#X msg 636 381 32;
#X obj 636 474 t b a;
#X obj 639 106 hsl 128 20 0 255 0 0 empty empty empty -2 -8 0 10 -262144
-1 -1 6963 1;
#X obj 636 131 list-round;
#X msg 718 381 loadbang;
#X obj 718 412 bng 15 250 50 0 empty empty empty 17 7 0 10 -262144
-1 -1;
#X floatatom 456 162 5 0 255 0 - - -;
#X obj 456 192 spell;
#X obj 456 254 prepend set;
#X msg 456 319 49 51;
#X obj 456 412 prepend;
#X obj 456 443 prepend set;
#X obj 456 285 t b a;
#X obj 456 350 t b a;
#X msg 456 509 49 51 32;
#X obj 456 223 thresh 0.9;
#X msg 456 381 32;
#X obj 456 474 t b a;
#X obj 459 106 hsl 128 20 0 255 0 0 empty empty empty -2 -8 0 10 -262144
-1 -1 647 1;
#X obj 456 131 list-round;
#X msg 538 381 loadbang;
#X obj 538 412 bng 15 250 50 0 empty empty empty 17 7 0 10 -262144
-1 -1;
#X floatatom 276 162 5 0 255 0 - - -;
#X obj 276 192 spell;
#X obj 276 254 prepend set;
#X msg 276 319 49 49 55;
#X obj 276 412 prepend;
#X obj 276 443 prepend set;
#X obj 276 285 t b a;
#X obj 276 350 t b a;
#X msg 276 509 49 49 55 32;
#X obj 276 223 thresh 0.9;
#X msg 276 381 32;
#X obj 276 474 t b a;
#X obj 279 106 hsl 128 20 0 255 0 0 empty empty empty -2 -8 0 10 -262144
-1 -1 5841 1;
#X obj 276 131 list-round;
#X msg 358 381 loadbang;
#X obj 358 412 bng 15 250 50 0 empty empty empty 17 7 0 10 -262144
-1 -1;
#X text 34 796 slider #1;
#X text 183 796 slider #2;
#X text 319 796 slider #3;
#X text 462 796 slider #4;
#X obj 185 223 metro 47;
#X connect 0 0 31 0;
#X connect 1 0 0 0;
#X connect 2 0 0 0;
#X connect 3 0 4 0;
#X connect 4 0 0 0;
#X connect 9 0 114 0;
#X connect 10 0 55 0;
#X connect 11 0 14 0;
#X connect 11 0 21 0;
#X connect 11 0 22 0;
#X connect 11 0 23 0;
#X connect 12 0 13 0;
#X connect 13 0 106 0;
#X connect 14 0 12 0;
#X connect 15 0 16 0;
#X connect 16 0 90 0;
#X connect 17 0 18 0;
#X connect 18 0 74 0;
#X connect 19 0 20 0;
#X connect 20 0 53 0;
#X connect 21 0 15 0;
#X connect 22 0 17 0;
#X connect 23 0 19 0;
#X connect 31 0 32 0;
#X connect 32 0 33 0;
#X connect 32 1 35 0;
#X connect 32 2 37 0;
#X connect 32 3 39 0;
#X connect 33 0 34 0;
#X connect 35 0 36 0;
#X connect 37 0 38 0;
#X connect 39 0 40 0;
#X connect 41 0 42 0;
#X connect 42 0 50 0;
#X connect 43 0 47 0;
#X connect 44 0 48 0;
#X connect 45 0 46 0;
#X connect 46 0 52 0;
#X connect 47 0 44 0;
#X connect 47 1 44 0;
#X connect 48 0 51 0;
#X connect 48 1 45 1;
#X connect 49 0 59 1;
#X connect 50 0 43 0;
#X connect 51 0 45 0;
#X connect 52 0 49 0;
#X connect 52 0 59 0;
#X connect 52 1 49 0;
#X connect 53 0 54 0;
#X connect 54 0 41 0;
#X connect 55 0 0 0;
#X connect 56 0 55 0;
#X connect 57 0 58 0;
#X connect 58 0 59 0;
#X connect 59 0 56 0;
#X connect 60 0 61 0;
#X connect 61 0 52 0;
#X connect 62 0 63 0;
#X connect 63 0 71 0;
#X connect 64 0 68 0;
#X connect 65 0 69 0;
#X connect 66 0 67 0;
#X connect 67 0 73 0;
#X connect 68 0 65 0;
#X connect 68 1 65 0;
#X connect 69 0 72 0;
#X connect 69 1 66 1;
#X connect 70 0 58 1;
#X connect 71 0 64 0;
#X connect 72 0 66 0;
#X connect 73 0 70 0;
#X connect 73 0 58 0;
#X connect 73 1 70 0;
#X connect 74 0 75 0;
#X connect 75 0 62 0;
#X connect 76 0 77 0;
#X connect 77 0 73 0;
#X connect 78 0 79 0;
#X connect 79 0 87 0;
#X connect 80 0 84 0;
#X connect 81 0 85 0;
#X connect 82 0 83 0;
#X connect 83 0 89 0;
#X connect 84 0 81 0;
#X connect 84 1 81 0;
#X connect 85 0 88 0;
#X connect 85 1 82 1;
#X connect 86 0 57 1;
#X connect 87 0 80 0;
#X connect 88 0 82 0;
#X connect 89 0 86 0;
#X connect 89 0 57 0;
#X connect 89 1 86 0;
#X connect 90 0 91 0;
#X connect 91 0 78 0;
#X connect 92 0 93 0;
#X connect 93 0 89 0;
#X connect 94 0 95 0;
#X connect 95 0 103 0;
#X connect 96 0 100 0;
#X connect 97 0 101 0;
#X connect 98 0 99 0;
#X connect 99 0 105 0;
#X connect 100 0 97 0;
#X connect 100 1 97 0;
#X connect 101 0 104 0;
#X connect 101 1 98 1;
#X connect 102 0 57 0;
#X connect 103 0 96 0;
#X connect 104 0 98 0;
#X connect 105 0 102 0;
#X connect 105 1 102 0;
#X connect 106 0 107 0;
#X connect 107 0 94 0;
#X connect 108 0 109 0;
#X connect 109 0 105 0;
#X connect 114 0 10 0;
