#N canvas 227 22 1076 641 16;
#X obj 8 512 comport 9600;
#X msg 8 -14 devices;
#X msg 38 66 close;
#X floatatom 19 13 5 0 0 0 - - -;
#X msg 19 39 open \$1;
#X text 106 -16 find Arduino board;
#X text 106 64 close serial buffer;
#X text 106 12 define board number;
#X text 106 36 open defined board;
#X msg 170 476 52 52 32 49 50 32 49 55 55 32 49 48 51 10;
#X obj 81 154 tgl 47 0 empty empty empty 17 7 0 10 -262144 -1 -1 0
1;
#X obj 81 240 bng 15 250 50 0 empty empty empty 17 7 0 10 -262144 -1
-1;
#X floatatom 937 157 5 0 255 0 - - -;
#X obj 937 183 spell;
#X obj 937 210 thresh 0.9;
#X obj 940 105 hsl 128 20 0 255 0 0 empty empty empty -2 -8 0 10 -262144
-1 -1 5478 1;
#X obj 937 130 list-round;
#X obj 830 264 prepend set;
#X msg 830 326 49 48 51 10;
#X obj 830 296 t b a;
#X msg 950 237 loadbang;
#X obj 950 264 bng 15 250 50 0 empty empty empty 17 7 0 10 -262144
-1 -1;
#X obj 830 237 iem_prepend;
#X obj 830 185 bng 15 250 50 0 empty empty empty 17 7 0 10 -262144
-1 -1;
#X msg 830 210 10;
#X obj 170 447 prepend set;
#X obj 170 358 zl join;
#X obj 170 388 zl join;
#X obj 170 418 zl join;
#X floatatom 717 157 5 0 255 0 - - -;
#X obj 717 183 spell;
#X obj 717 210 thresh 0.9;
#X obj 720 105 hsl 128 20 0 255 0 0 empty empty empty -2 -8 0 10 -262144
-1 -1 9463 1;
#X obj 717 130 list-round;
#X obj 610 264 prepend set;
#X msg 610 326 49 55 55 32;
#X obj 610 296 t b a;
#X msg 730 237 loadbang;
#X obj 730 264 bng 15 250 50 0 empty empty empty 17 7 0 10 -262144
-1 -1;
#X obj 610 237 iem_prepend;
#X obj 610 185 bng 15 250 50 0 empty empty empty 17 7 0 10 -262144
-1 -1;
#X floatatom 497 157 5 0 255 0 - - -;
#X obj 497 183 spell;
#X obj 497 210 thresh 0.9;
#X obj 500 105 hsl 128 20 0 255 0 0 empty empty empty -2 -8 0 10 -262144
-1 -1 647 0;
#X obj 497 130 list-round;
#X obj 390 264 prepend set;
#X msg 390 326 49 50 32;
#X obj 390 296 t b a;
#X msg 510 237 loadbang;
#X obj 510 264 bng 15 250 50 0 empty empty empty 17 7 0 10 -262144
-1 -1;
#X obj 390 237 iem_prepend;
#X obj 390 185 bng 15 250 50 0 empty empty empty 17 7 0 10 -262144
-1 -1;
#X floatatom 277 157 5 0 255 0 - - -;
#X obj 277 183 spell;
#X obj 277 210 thresh 0.9;
#X obj 280 105 hsl 128 20 0 255 0 0 empty empty empty -2 -8 0 10 -262144
-1 -1 2341 1;
#X obj 277 130 list-round;
#X obj 170 264 prepend set;
#X msg 170 326 52 52 32;
#X obj 170 296 t b a;
#X msg 290 237 loadbang;
#X obj 290 264 bng 15 250 50 0 empty empty empty 17 7 0 10 -262144
-1 -1;
#X obj 170 237 iem_prepend;
#X obj 170 184 bng 15 250 50 0 empty empty empty 17 7 0 10 -262144
-1 -1;
#X msg 170 210 32;
#X msg 390 210 32;
#X msg 610 210 32;
#X obj 81 210 metro 47;
#X obj 277 -14 loadbang;
#X obj 277 50 line;
#X floatatom 277 78 5 0 0 0 - - -;
#X msg 277 22 47 300;
#X obj 497 48 line;
#X floatatom 497 76 5 0 0 0 - - -;
#X obj 717 48 line;
#X floatatom 717 76 5 0 0 0 - - -;
#X obj 937 48 line;
#X floatatom 937 76 5 0 0 0 - - -;
#X msg 497 20 13 300;
#X msg 717 20 190 300;
#X msg 937 20 110 300;
#X text 336 79 slider #1;
#X text 556 79 slider #2;
#X text 776 79 slider #3;
#X text 996 79 slider #4;
#X text 392 -89 arduivis - model #5 - multipleInputs;
#X text 358 -65 sketch: arduivis_PD_model5_multipleinputs.ino;
#X text 86 166 poll;
#X connect 1 0 0 0;
#X connect 2 0 0 0;
#X connect 3 0 4 0;
#X connect 4 0 0 0;
#X connect 9 0 0 0;
#X connect 10 0 68 0;
#X connect 11 0 9 0;
#X connect 12 0 13 0;
#X connect 13 0 14 0;
#X connect 14 0 22 1;
#X connect 15 0 16 0;
#X connect 15 0 23 0;
#X connect 16 0 12 0;
#X connect 17 0 19 0;
#X connect 18 0 28 1;
#X connect 19 0 18 0;
#X connect 19 0 28 0;
#X connect 19 1 18 0;
#X connect 20 0 21 0;
#X connect 21 0 18 0;
#X connect 22 0 17 0;
#X connect 23 0 24 0;
#X connect 24 0 22 0;
#X connect 25 0 9 0;
#X connect 26 0 27 0;
#X connect 27 0 28 0;
#X connect 28 0 25 0;
#X connect 29 0 30 0;
#X connect 30 0 31 0;
#X connect 31 0 39 1;
#X connect 32 0 33 0;
#X connect 32 0 40 0;
#X connect 33 0 29 0;
#X connect 34 0 36 0;
#X connect 35 0 27 1;
#X connect 36 0 35 0;
#X connect 36 0 27 0;
#X connect 36 1 35 0;
#X connect 37 0 38 0;
#X connect 38 0 35 0;
#X connect 39 0 34 0;
#X connect 40 0 67 0;
#X connect 41 0 42 0;
#X connect 42 0 43 0;
#X connect 43 0 51 1;
#X connect 44 0 45 0;
#X connect 44 0 52 0;
#X connect 45 0 41 0;
#X connect 46 0 48 0;
#X connect 47 0 26 1;
#X connect 48 0 47 0;
#X connect 48 0 26 0;
#X connect 48 1 47 0;
#X connect 49 0 50 0;
#X connect 50 0 47 0;
#X connect 51 0 46 0;
#X connect 52 0 66 0;
#X connect 53 0 54 0;
#X connect 54 0 55 0;
#X connect 55 0 63 1;
#X connect 56 0 57 0;
#X connect 56 0 64 0;
#X connect 57 0 53 0;
#X connect 58 0 60 0;
#X connect 59 0 26 0;
#X connect 60 0 59 0;
#X connect 60 1 59 0;
#X connect 61 0 62 0;
#X connect 62 0 59 0;
#X connect 63 0 58 0;
#X connect 64 0 65 0;
#X connect 65 0 63 0;
#X connect 66 0 51 0;
#X connect 67 0 39 0;
#X connect 68 0 11 0;
#X connect 69 0 72 0;
#X connect 69 0 79 0;
#X connect 69 0 80 0;
#X connect 69 0 81 0;
#X connect 70 0 71 0;
#X connect 71 0 56 0;
#X connect 72 0 70 0;
#X connect 73 0 74 0;
#X connect 74 0 44 0;
#X connect 75 0 76 0;
#X connect 76 0 32 0;
#X connect 77 0 78 0;
#X connect 78 0 15 0;
#X connect 79 0 73 0;
#X connect 80 0 75 0;
#X connect 81 0 77 0;
