#N canvas 66 37 335 259 16;
#X msg 35 61 devices;
#X msg 65 141 close;
#X floatatom 35 200 5 0 0 0 - - -;
#X text 93 199 raw data from Arduino;
#X obj 35 173 comport 9600;
#X floatatom 46 88 5 0 0 0 - - -;
#X msg 46 114 open \$1;
#X text 133 59 find Arduino board;
#X text 133 139 close serial buffer;
#X text 133 87 define board number;
#X text 133 111 open defined board;
#X text 49 2 arduivis - model #1 - input;
#X obj 38 228 hsl 128 15 0 255 0 0 empty empty empty -2 -8 0 10 -262144
-1 -1 0 1;
#X text 173 224 data visualization;
#X text 10 22 sketch: arduivis_PD_model1_output.ino;
#X connect 0 0 4 0;
#X connect 1 0 4 0;
#X connect 2 0 12 0;
#X connect 4 0 2 0;
#X connect 5 0 6 0;
